<?xml version="1.0" encoding="UTF-8"?>
<svg id="Layer_1" data-name="Layer 1" xmlns="http://www.w3.org/2000/svg" viewBox="0 0 294.62 565.4">
  <defs>
    <style>
      .cls-1 {
        fill: #fff;
      }
    </style>
  </defs>
  <path class="cls-1" d="M0,0V565.4H294.62V0H0ZM196.7,152.14v-39.67c46.98,0,85.06,38.08,85.06,85.06h0v69.41l-39.75,15.65v-85.06c0-24.98-20.33-45.31-45.31-45.31v-.08ZM12.28,197.53c0-46.98,38.08-85.06,85.06-85.06v-.05h31v39.72h-31v.08c-24.98,0-45.31,20.33-45.31,45.31s20.33,45.31,45.31,45.31,45.31-20.33,45.31-45.31V28.22l39.75-15.65V197.53h0c0,46.98-38.08,85.06-85.06,85.06S12.28,244.51,12.28,197.53h0Zm270.07,355.35H12.28V295.11H282.35v257.77Z"/>
  <g id="Futura_PT_Medium_-_Outlined" data-name="Futura PT Medium - Outlined">
    <path class="cls-1" d="M45.76,321.82c6.23,0,11.66,.67,16.62,4.35,5.43,4.09,8.58,10.59,8.58,18.02s-3.08,13.87-8.98,18.02c-5.23,3.69-10.12,4.29-16.35,4.29h-9.25v-44.69h9.38Zm-2.55,38.26h2.95c3.35,0,7.97-.27,11.86-3.15,3.08-2.34,6.1-6.63,6.1-12.73s-2.81-10.52-6.03-12.86c-3.89-2.81-8.64-3.08-11.93-3.08h-2.95v31.83Z"/>
    <path class="cls-1" d="M100.17,328.26h-17.82v11.32h17.29v6.43h-17.29v14.07h17.82v6.43h-24.66v-44.69h24.66v6.43Z"/>
    <path class="cls-1" d="M107.67,366.51v-47.71l32.43,33.97v-30.95h6.83v47.44l-32.43-33.97v31.22h-6.83Z"/>
    <path class="cls-1" d="M158.59,321.82l12.46,31.16,12.46-31.16h7.37l-19.83,47.57-19.83-47.57h7.37Z"/>
    <path class="cls-1" d="M219.83,328.26h-17.82v11.32h17.29v6.43h-17.29v14.07h17.82v6.43h-24.66v-44.69h24.66v6.43Z"/>
    <path class="cls-1" d="M233.96,321.82c5.43,0,8.91,.67,11.79,2.61,4.89,3.28,5.29,8.58,5.29,10.52,0,6.43-3.95,11.12-9.92,12.46l13.94,19.1h-8.24l-12.8-18.29h-1.21v18.29h-6.83v-44.69h7.97Zm-1.14,20.5h2.14c1.88,0,9.51-.2,9.51-7.3,0-6.3-5.96-6.9-9.31-6.9h-2.34v14.2Z"/>
    <path class="cls-1" d="M43.22,414.51h19.16v-17.69h6.83v44.69h-6.83v-20.57h-19.16v20.57h-6.83v-44.69h6.83v17.69Z"/>
    <path class="cls-1" d="M102.18,430.73h-19.1l-4.89,10.79h-7.37l22.24-47.3,21.17,47.3h-7.37l-4.69-10.79Zm-2.75-6.43l-6.63-15.14-6.9,15.14h13.53Z"/>
    <path class="cls-1" d="M124.02,396.82v44.69h-6.83v-44.69h6.83Z"/>
    <path class="cls-1" d="M137.35,396.82c5.43,0,8.91,.67,11.79,2.61,4.89,3.28,5.29,8.58,5.29,10.52,0,6.43-3.95,11.12-9.92,12.46l13.94,19.1h-8.24l-12.8-18.29h-1.21v18.29h-6.83v-44.69h7.97Zm-1.14,20.5h2.14c1.88,0,9.51-.2,9.51-7.3,0-6.3-5.96-6.9-9.31-6.9h-2.34v14.2Z"/>
    <path class="cls-1" d="M45.76,471.82c6.23,0,11.66,.67,16.62,4.35,5.43,4.09,8.58,10.59,8.58,18.02s-3.08,13.87-8.98,18.02c-5.23,3.69-10.12,4.29-16.35,4.29h-9.25v-44.69h9.38Zm-2.55,38.26h2.95c3.35,0,7.97-.27,11.86-3.15,3.08-2.34,6.1-6.63,6.1-12.73s-2.81-10.52-6.03-12.86c-3.89-2.81-8.64-3.08-11.93-3.08h-2.95v31.83Z"/>
    <path class="cls-1" d="M100.17,478.26h-17.82v11.32h17.29v6.43h-17.29v14.07h17.82v6.43h-24.66v-44.69h24.66v6.43Z"/>
    <path class="cls-1" d="M125.63,481.74c-.4-1-1.01-1.94-2.01-2.81-1.41-1.14-2.88-1.61-4.82-1.61-4.15,0-6.3,2.48-6.3,5.36,0,1.34,.47,3.69,4.82,5.43l4.49,1.81c8.24,3.35,10.52,8.04,10.52,13.13,0,8.51-6.03,14.34-14.41,14.34-5.16,0-8.24-1.94-10.52-4.49-2.41-2.68-3.48-5.63-3.75-8.71l6.77-1.47c0,2.21,.8,4.29,1.88,5.7,1.27,1.61,3.15,2.68,5.83,2.68,4.15,0,7.37-3.02,7.37-7.5s-3.48-6.43-6.43-7.64l-4.29-1.81c-3.69-1.54-9.11-4.62-9.11-11.32,0-6.03,4.69-11.79,13.07-11.79,4.82,0,7.57,1.81,8.98,3.02,1.21,1.07,2.48,2.61,3.42,4.49l-5.49,3.22Z"/>
    <path class="cls-1" d="M145.05,471.82v44.69h-6.83v-44.69h6.83Z"/>
    <path class="cls-1" d="M174.87,493.27h18.43v.33c0,7.64-2.28,13.87-6.63,18.09-4.62,4.49-10.12,5.7-15.21,5.7-6.5,0-11.12-1.88-15.21-6.1-4.36-4.49-6.63-10.45-6.63-16.88,0-6.97,2.81-13,6.5-16.68,3.82-3.89,9.92-6.7,16.82-6.7,4.02,0,8.17,.87,11.66,2.81,3.69,2.08,5.96,4.69,7.24,6.7l-5.43,3.82c-1.34-1.88-3.35-3.89-5.49-5.09-2.48-1.47-5.16-1.94-7.91-1.94-5.83,0-9.58,2.41-11.79,4.62-2.95,2.95-4.76,7.71-4.76,12.53,0,4.49,1.68,8.98,4.62,12.13,3.08,3.28,6.9,4.49,11.19,4.49,3.89,0,7.1-1.14,9.98-3.95,2.48-2.41,3.48-5.03,3.75-7.57h-11.12v-6.3Z"/>
    <path class="cls-1" d="M197.85,516.51v-47.71l32.43,33.97v-30.95h6.83v47.44l-32.43-33.97v31.22h-6.83Z"/>
  </g>
</svg>