<?xml version="1.0" encoding="UTF-8"?><svg id="Layer_1" xmlns="http://www.w3.org/2000/svg" viewBox="0 0 294.59 577.64"><path d="M0,0V577.64H294.59V0H0ZM196.68,152.13v-39.67c46.97,0,85.05,38.08,85.05,85.05h0v69.4l-39.74,15.65v-85.05c0-24.98-20.33-45.31-45.31-45.31v-.08ZM12.27,197.51c0-46.97,38.08-85.05,85.05-85.05v-.05h31v39.72h-31v.08c-24.98,0-45.31,20.32-45.31,45.31s20.32,45.31,45.31,45.31,45.31-20.32,45.31-45.31V28.22l39.74-15.65V197.51h0c0,46.97-38.08,85.05-85.05,85.05S12.27,244.48,12.27,197.51h0Zm270.04,367.61H12.27V295.08H282.32v270.04Z" fill="#fff"/><path d="M63.43,367.48c3.21-2.74,7.83-7.77,7.83-17.14,0-8.03-3.55-13.72-7.63-17.14-5.62-4.75-11.98-5.22-16.47-5.22h-9.1v44.66h9.04c7.97,0,12.25-1.67,16.34-5.16Zm-20.42-34.81h4.35c11.31,0,18.81,6.96,18.81,17.67,0,6.36-2.68,10.78-6.03,13.59-4.35,3.62-9.24,4.02-12.79,4.02h-4.35v-35.28Z" fill="#fff"/><polygon points="103.53 367.95 85.32 367.95 85.32 350.61 103 350.61 103 345.92 85.32 345.92 85.32 332.67 103.53 332.67 103.53 327.98 80.37 327.98 80.37 372.64 103.53 372.64 103.53 367.95" fill="#fff"/><polygon points="117.59 338.16 152.41 374.64 152.41 327.98 147.45 327.98 147.45 362.59 112.64 326.11 112.64 372.64 117.59 372.64 117.59 338.16" fill="#fff"/><polygon points="194.86 327.98 189.36 327.98 176.78 362.06 164.19 327.98 158.7 327.98 176.78 375.31 194.86 327.98" fill="#fff"/><polygon points="224.31 367.95 206.1 367.95 206.1 350.61 223.78 350.61 223.78 345.92 206.1 345.92 206.1 332.67 224.31 332.67 224.31 327.98 201.15 327.98 201.15 372.64 224.31 372.64 224.31 367.95" fill="#fff"/><path d="M238.37,353.09h1.27l13.59,19.55h6.03l-14.19-19.95c6.76-.47,11.25-5.49,11.25-12.32,0-4.75-2.28-8.17-4.89-9.91-3.35-2.28-7.83-2.48-10.85-2.48h-7.16v44.66h4.95v-19.55Zm0-20.42h3.01c2.14,0,4.42,.13,6.43,1.27,2.81,1.61,3.55,4.08,3.55,6.56,0,5.22-3.68,8.17-9.84,8.17h-3.15v-16Z" fill="#fff"/><polygon points="43.01 427.81 65.91 427.81 65.91 449.63 70.86 449.63 70.86 404.98 65.91 404.98 65.91 423.12 43.01 423.12 43.01 404.98 38.05 404.98 38.05 449.63 43.01 449.63 43.01 427.81" fill="#fff"/><path d="M88,437.05h19.01l5.22,12.59h5.49l-20.02-46.8-20.55,46.8h5.49l5.36-12.59Zm9.57-22.56l7.5,17.88h-15.13l7.63-17.88Z" fill="#fff"/><rect x="124.02" y="404.98" width="4.95" height="44.66" fill="#fff"/><path d="M140.49,404.98v44.66h4.95v-19.55h1.27l13.59,19.55h6.03l-14.19-19.95c6.76-.47,11.25-5.49,11.25-12.32,0-4.75-2.28-8.17-4.89-9.91-3.35-2.28-7.83-2.48-10.85-2.48h-7.16Zm14.39,5.96c2.81,1.61,3.55,4.08,3.55,6.56,0,5.22-3.68,8.17-9.84,8.17h-3.15v-16h3.01c2.14,0,4.42,.13,6.43,1.27Z" fill="#fff"/><path d="M63.43,521.47c3.21-2.74,7.83-7.77,7.83-17.14,0-8.03-3.55-13.72-7.63-17.14-5.62-4.75-11.98-5.22-16.47-5.22h-9.1v44.66h9.04c7.97,0,12.25-1.67,16.34-5.16Zm-20.42-34.81h4.35c11.31,0,18.81,6.96,18.81,17.67,0,6.36-2.68,10.78-6.03,13.59-4.35,3.62-9.24,4.02-12.79,4.02h-4.35v-35.28Z" fill="#fff"/><polygon points="80.37 526.63 103.53 526.63 103.53 521.94 85.32 521.94 85.32 504.6 103 504.6 103 499.91 85.32 499.91 85.32 486.66 103.53 486.66 103.53 481.97 80.37 481.97 80.37 526.63" fill="#fff"/><path d="M128.1,501.39l-4.28-1.87c-1.67-.74-3.35-1.47-4.69-2.81-1.2-1.14-1.67-2.14-1.67-3.88,0-4.15,3.08-6.9,7.5-6.9,2.54,0,4.15,.87,5.02,1.54,1,.8,2.01,2.14,2.61,3.35l3.95-2.61c-1-1.94-2.54-3.75-4.35-4.95-2.21-1.47-4.42-2.01-7.16-2.01-7.23,0-12.52,4.62-12.52,11.52,0,3.35,1.14,5.42,3.08,7.3,2.01,1.94,4.22,2.88,5.96,3.68l4.02,1.88c2.34,1.07,4.08,1.87,5.36,3.08,1.61,1.47,2.21,3.21,2.21,5.22,0,4.49-2.88,8.84-8.97,8.84-2.28,0-4.49-.54-6.43-2.48-1.27-1.34-2.34-3.35-2.68-5.69l-4.82,1.34c.6,2.68,1.94,5.76,4.15,7.9,3.08,3.01,6.76,3.61,9.71,3.61,8.03,0,14.13-5.49,14.13-13.72,0-3.21-.94-5.83-3.21-8.1-1.87-1.88-4.28-3.08-6.9-4.22Z" fill="#fff"/><rect x="147.32" y="481.97" width="4.95" height="44.66" fill="#fff"/><path d="M161.38,504.33c0,12.99,9.91,23.1,23.16,23.1,10.24,0,15.26-6.23,16.6-8.03,2.81-3.82,4.28-9.17,4.28-14.13v-1.07h-18.61v4.69h13.26c-.13,2.81-1,4.95-1.81,6.36-2.54,4.49-7.7,7.5-13.66,7.5-8.44,0-18.14-6.16-18.14-18.34,0-10.38,7.5-18.48,18.28-18.48,5.36,0,8.7,2.01,10.85,3.75,1.47,1.2,2.95,2.81,4.22,4.62l3.68-3.35c-1.27-1.74-3.15-3.75-5.16-5.29-4.35-3.35-9.37-4.42-13.66-4.42-13.32,0-23.3,10.11-23.3,23.1Z" fill="#fff"/><polygon points="249.35 516.58 214.54 480.1 214.54 526.63 219.49 526.63 219.49 492.15 254.31 528.64 254.31 481.97 249.35 481.97 249.35 516.58" fill="#fff"/></svg>