<?xml version="1.0" encoding="utf-8"?>
<svg xmlns="http://www.w3.org/2000/svg">
  <defs>
    <linearGradient id="InstagramGradient" gradientTransform="rotate(90)">
      <stop offset="0%" stop-color="#833ab4" />
      <stop offset="50%" stop-color="#fd1d1d" />
      <stop offset="100%" stop-color="#fcb045" />
    </linearGradient>
  </defs>
  <defs>

    <symbol id="ellipsis-icon" viewBox="0 0 24 24">
      <circle cx="17.5" cy="12" r="1.5"></circle> <circle cx="12" cy="12" r="1.5"></circle> <circle cx="6.5" cy="12" r="1.5"></circle>
    </symbol>

    <symbol id="facebook-icon" viewBox="0 0 960 960">
      <path d="M936.01,482.85c0-251.84-204.05-455.88-455.88-455.88S24.24,231.01,24.24,482.85c0,227.54,384.54,450.37,384.54,450.37v-319.2h-115.81v-132.35h115.81v-100.44c0-114.25,67.93-177.35,171.97-177.35,49.83,0,101.93,8.9,101.93,8.9v112.65h-57.75c-56.86,0-74.6,35.15-74.6,71.2v85.06h127.46l-20.22,132.35h-107.24v319.2c218.97-34.23,385.68-222.83,385.68-450.37Z"/>
    </symbol>

    <symbol id="instagram-icon" viewBox="0 0 960 960">
      <path fill="url(#InstagramGradient)"  d="M480.1,246.23c-129.4,0-233.77,104.37-233.77,233.77s104.37,233.77,233.77,233.77,233.77-104.37,233.77-233.77-104.37-233.77-233.77-233.77ZM480.1,631.98c-83.62,0-151.98-68.16-151.98-151.98s68.16-151.98,151.98-151.98,151.98,68.16,151.98,151.98-68.36,151.98-151.98,151.98h0ZM777.96,236.66c0,30.32-24.41,54.53-54.53,54.53s-54.53-24.41-54.53-54.53,24.41-54.53,54.53-54.53,54.53,24.41,54.53,54.53ZM932.8,292c-3.46-73.04-20.14-137.74-73.65-191.05-53.31-53.31-118.01-69.99-191.05-73.65-75.28-4.27-300.91-4.27-376.19,0-72.84,3.46-137.54,20.14-191.05,73.45-53.51,53.31-69.99,118.01-73.65,191.05-4.27,75.28-4.27,300.91,0,376.19,3.46,73.04,20.14,137.74,73.65,191.05,53.51,53.31,118.01,69.99,191.05,73.65,75.28,4.27,300.91,4.27,376.19,0,73.04-3.46,137.74-20.14,191.05-73.65,53.31-53.31,69.99-118.01,73.65-191.05,4.27-75.28,4.27-300.71,0-375.99h0ZM835.54,748.77c-15.87,39.88-46.59,70.6-86.67,86.67-60.02,23.8-202.44,18.31-268.77,18.31s-208.95,5.29-268.77-18.31c-39.88-15.87-70.6-46.59-86.67-86.67-23.8-60.02-18.31-202.44-18.31-268.77s-5.29-208.95,18.31-268.77c15.87-39.88,46.59-70.6,86.67-86.67,60.02-23.8,202.44-18.31,268.77-18.31s208.95-5.29,268.77,18.31c39.88,15.87,70.6,46.59,86.67,86.67,23.8,60.02,18.31,202.44,18.31,268.77s5.49,208.95-18.31,268.77Z"/>
    </symbol>

    <symbol id="twitter-icon" viewBox="0 0 960 960">
      <path d="M842.16,294.29c.58,8.1.58,16.2.58,24.3,0,247.03-188.02,531.67-531.67,531.67-105.87,0-204.22-30.66-286.95-83.89,15.04,1.73,29.5,2.31,45.13,2.31,87.36,0,167.78-29.5,231.99-79.84-82.15-1.74-151-55.54-174.72-129.59,11.57,1.73,23.14,2.89,35.29,2.89,16.78,0,33.56-2.32,49.18-6.36-85.62-17.36-149.84-92.57-149.84-183.4v-2.31c24.88,13.88,53.81,22.56,84.47,23.72-50.33-33.56-83.31-90.83-83.31-155.63,0-34.71,9.25-66.53,25.45-94.3,91.99,113.39,230.26,187.44,385.3,195.54-2.89-13.88-4.63-28.35-4.63-42.81,0-102.98,83.31-186.87,186.87-186.87,53.8,0,102.4,22.56,136.53,59.01,42.23-8.1,82.73-23.72,118.6-45.13-13.89,43.39-43.39,79.84-82.15,102.98,37.61-4.05,74.05-14.46,107.61-28.93-25.45,37.02-57.27,70-93.72,96.61h0Z"/>
    </symbol>

    <symbol id="youtube-icon" viewBox="0 0 960 960">
      <path d="M916.82,259.77c-10.49-39.48-41.38-70.58-80.61-81.13-71.1-19.18-356.21-19.18-356.21-19.18,0,0-285.11,0-356.21,19.18-39.23,10.55-70.12,41.65-80.61,81.13-19.05,71.56-19.05,220.87-19.05,220.87,0,0,0,149.31,19.05,220.87,10.49,39.48,41.38,69.28,80.61,79.83,71.1,19.18,356.21,19.18,356.21,19.18,0,0,285.11,0,356.21-19.18,39.23-10.55,70.12-40.35,80.61-79.83,19.05-71.56,19.05-220.87,19.05-220.87,0,0,0-149.31-19.05-220.87ZM386.4,616.21v-271.13l238.29,135.57-238.29,135.56h0Z"/>
    </symbol>

    <symbol id="phone-icon" viewBox="0 0 957 957">
      <path d="M479.26,450.05c-78.46,0-142.24,63.79-142.24,142.24s63.79,142.24,142.24,142.24,142.24-63.79,142.24-142.24-63.83-142.24-142.24-142.24ZM479.26,677.64c-47.12,0-85.34-38.23-85.34-85.34s38.23-85.34,85.34-85.34,85.34,38.23,85.34,85.34-38.23,85.34-85.34,85.34ZM913.45,233.67c-121.79-97.88-276.3-153.44-434.19-153.44S166.78,135.79,44.98,233.67c-13.34,10.89-21.12,27.35-20.89,44.45v115.04c0,15.71,12.73,28.45,28.45,28.45h113.79c15.72,0,28.45-12.8,28.45-28.45s-12.73-28.45-28.45-28.45h-85.34l-.44-86.94c113.13-90.62,253.81-140.2,398.72-140.64,144.91.22,285.37,50,396.67,140.91v86.68h-83.74c-15.65,0-28.45,12.8-28.45,28.45s12.8,28.45,28.45,28.45h112.19c15.71,0,28.45-12.74,28.45-28.45v-115.04c1.78-17.25-6.05-33.6-19.38-44.45ZM682.66,365.06c-18.72-32.75-52.58-53.16-89.79-56.13,0-.41.18-.76.18-1.12v-56.9c0-15.71-12.74-28.45-28.45-28.45s-28.45,12.73-28.45,28.45v56.9h-113.79v-56.9c0-15.71-12.74-28.45-28.45-28.45s-28.45,12.73-28.45,28.45v56.9c0,.42.23.78.24,1.2-37.25,3.01-71.08,23.36-89.81,56.15l-179.93,314.88c-9.83,17.2-15,36.66-15,56.47v26.47c0,62.59,51.21,113.79,113.79,113.79h567.36c62.59,0,113.79-51.21,113.79-113.79v-26.56c0-19.81-5.17-39.26-15-56.47l-178.26-314.88ZM819.04,762.98c0,31.42-25.48,56.9-56.9,56.9H194.78c-31.42,0-56.9-25.48-56.9-56.9v-26.67c0-9.9,2.58-19.63,7.5-28.23l179.93-313.11c10.1-19.24,28.95-30.26,49.4-30.26h209.27c20.38,0,39.19,10.92,49.3,28.61l179.93,314.71c4.91,8.59,7.5,18.33,7.5,28.23v26.72h-1.69Z"/>
    </symbol>

    <symbol id="chat-icon" viewBox="0 0 957 957">
      <path d="M860.64,451.14c0,64.29-26.42,124.99-75.87,178.63-14.05,16.62-18.32,36.85-10.99,56.12l.22.58c18.79,49.79,50.68,93.19,69.66,119.04-75.51-7.47-137.82-40.03-175.6-67.81-13.94-9.91-31.72-12.66-48-7.42-46.17,14.53-94.03,21.8-142.33,21.8-211.17,0-381.47-135.08-381.47-300.94S266.56,150.21,477.73,150.21c211,0,382.91,135.08,382.91,300.94ZM41.54,451.14c0,196.41,194.41,355.65,436.19,355.65,55.91,0,109.26-8.89,158.85-24.37,51.3,35.05,132.7,79.08,237.84,79.08,16.45,0,31.09-9.92,37.72-24.88,6.41-14.96,3.42-32.49-7.91-44.46-.85-.63-53.86-57.71-79.29-125.25,56.41-59.76,90.47-134.34,90.47-215.79,0-196.46-196.08-355.65-437.68-355.65-241.78,0-436.19,159.24-436.19,355.65Z"/>
    </symbol>

    <symbol id="squareDhd-icon" viewBox="0 0 957 957">
      <path d="M705.8,933.08H251.11c-125.46,0-227.17-101.71-227.17-227.17V251.1C23.94,125.63,125.65,23.93,251.11,23.93h454.8c125.46,0,227.17,101.71,227.17,227.17v454.69c0,122.74-100.01,227.29-227.29,227.29ZM115.26,251.55v453.89c0,75.28,61.03,136.3,136.3,136.3h453.89c75.28,0,136.3-61.03,136.3-136.3V251.55c0-75.28-61.03-136.3-136.3-136.3H251.57c-75.28,0-136.3,61.03-136.3,136.3ZM570.06,342.88h-181.74c-25.09,0-45.43,20.34-45.43,45.43v181.74c0,25.09,20.34,45.43,45.43,45.43h181.74c25.09,0,45.43-20.34,45.43-45.43v-181.74c0-25.09-20.34-45.43-45.43-45.43Z"/>
    </symbol>

    <symbol id="squarePersonal-icon" viewBox="0 0 957 957">
      <path d="M705.8,933.08H251.11c-125.46,0-227.17-101.71-227.17-227.17V251.1C23.94,125.63,125.65,23.93,251.11,23.93h454.8c125.46,0,227.17,101.71,227.17,227.17v454.69c0,122.74-100.01,227.29-227.29,227.29ZM115.26,251.55v453.89c0,75.28,61.03,136.3,136.3,136.3h453.89c75.28,0,136.3-61.03,136.3-136.3V251.55c0-75.28-61.03-136.3-136.3-136.3H251.57c-75.28,0-136.3,61.03-136.3,136.3ZM570.06,342.88h-181.74c-25.09,0-45.43,20.34-45.43,45.43v181.74c0,25.09,20.34,45.43,45.43,45.43h181.74c25.09,0,45.43-20.34,45.43-45.43v-181.74c0-25.09-20.34-45.43-45.43-45.43Z"/>
    </symbol>

    <symbol id="vagaro-icon" viewBox="0 0 957 957">
      <path d="M799.07,69.02c-74.15-6.46-114.64,7.64-150.41,56.48l-171.53,289.89c-48.84-87.87-98.91-175.01-150.22-261.46-35.75-64.51-96.39-94.5-169.64-84.94C57.02,80.69.51,184.75,37.76,282.65l312.82,541.81c72.59,100.42,208.07,79.35,271.43-24.71,91.93-151.04,212.45-361.96,292.25-505.03,14.08-25.26,18.27-69,15.89-97.41-3.73-66.12-65.71-124.28-131.1-128.3h.03ZM332.03,690.82c-65.25-109.98-131.54-219.82-194.32-331.25-16.54-29.34-55.74-87.57-59.3-118.17-12.55-107.82,121.13-162.27,188.13-76.12l181.72,312.35c-34.57,73.22-85.52,138.25-116.2,213.19h-.03ZM870.3,268.44s-218.37,416.93-314.57,540.06c-73.44,93.98-218.62-3.73-171.2-116.55L686.77,169.61c15.61-23.17,42.35-43.14,70.42-46.98,84.2-11.56,145.86,67.63,113.1,145.84v-.03ZM514.11,698.87c39.72,39.72-19.64,103.43-61.99,63.36-41.83-39.58,20.95-104.39,61.99-63.36Z"/>
    </symbol>

    <symbol id="close-icon" viewBox="0 0 957 957">
      <path d="M880.02,30.77c12.66-12.76,33.48-12.76,46.14,0,12.86,12.74,12.86,33.42,0,46.18l-401.55,401.53,401.55,401.55c12.86,12.66,12.86,33.48,0,46.14-12.66,12.86-33.48,12.86-46.14,0l-401.55-401.55L76.94,926.16c-12.74,12.86-33.42,12.86-46.19,0-12.75-12.66-12.75-33.48,0-46.14l401.58-401.55L30.76,76.94c-12.75-12.74-12.75-33.42,0-46.18,12.75-12.76,33.43-12.76,46.19,0l401.53,401.57L880.02,30.77Z"/>
    </symbol>

    <symbol id="location-icon" viewBox="0 0 957 957">
      <path d="M621.47,365.5c0,78.72-63.76,142.48-142.48,142.48s-142.48-63.76-142.48-142.48,63.76-142.48,142.48-142.48,142.48,63.76,142.48,142.48ZM478.99,450.99c47.2,0,85.49-38.29,85.49-85.49s-38.29-85.49-85.49-85.49-85.49,38.29-85.49,85.49,38.29,85.49,85.49,85.49ZM820.94,365.5c0,155.66-208.38,432.79-299.75,547.13-21.91,27.25-62.51,27.25-84.42,0-92.97-114.34-299.75-391.47-299.75-547.13,0-188.86,153.1-341.96,341.96-341.96s341.96,153.1,341.96,341.96h0ZM478.99,80.54c-157.44,0-284.96,127.52-284.96,284.96,0,27.78,9.67,65.9,29.49,112.92,19.43,46.13,46.73,96.18,77.62,146.22,60.66,98.49,132.61,192.71,177.85,249.52,45.24-56.81,117.19-151.03,177.92-249.52,30.81-50.05,58.06-100.09,77.47-146.22,19.95-47.02,29.56-85.13,29.56-112.92,0-157.44-127.52-284.96-284.96-284.96Z"/>
    </symbol>

  </defs>
</svg>
