<svg style="position: absolute; width: 0; height: 0; overflow: hidden;" version="1.1"
  xmlns="http://www.w3.org/2000/svg"
  xmlns:xlink="http://www.w3.org/1999/xlink">
  <defs>
    <symbol id="home-logo" viewBox="0 0 308.17 578.94">
      <title>home-logo</title>
      <path d="M0,0v578.94h308.17V0H0z M301.39,572.17H6.77V6.77h294.62V572.17z"/>
      <path d="M145.12,424.1h-2.14v-14.2h2.34c3.35,0,9.31,0.6,9.31,6.9C154.64,423.9,147,424.1,145.12,424.1z M92.66,431.07
	h13.53l-6.63-15.14L92.66,431.07z M64.79,363.7c3.08-2.34,6.1-6.63,6.1-12.73c0-5.9-2.81-10.52-6.03-12.86
	c-3.89-2.81-8.64-3.08-11.93-3.08h-2.95v31.83h2.95C56.28,366.85,60.91,366.58,64.79,363.7z M64.86,488.11
	c-3.89-2.81-8.64-3.08-11.93-3.08h-2.95v31.83h2.95c3.35,0,7.97-0.27,11.86-3.15c3.08-2.34,6.1-6.63,6.1-12.73
	C70.89,495.08,68.08,490.45,64.86,488.11z M251.25,341.79c0-6.3-5.96-6.9-9.31-6.9h-2.34v14.2h2.14
	C243.61,349.1,251.25,348.9,251.25,341.79z M289.12,301.88v257.77H19.05V301.88H289.12z M157.99,328.6l19.83,47.57l19.83-47.57
	h-7.37l-12.46,31.16l-12.46-31.16H157.99z M114.44,373.28h6.83v-31.22l32.43,33.97V328.6h-6.83v30.95l-32.43-33.97V373.28z
	 M123.95,403.6v44.69h6.83V403.6H123.95z M82.28,373.28h24.66v-6.43H89.11v-14.07h17.29v-6.43H89.11v-11.32h17.82v-6.43H82.28
	V373.28z M43.15,373.28h9.25c6.23,0,11.12-0.6,16.35-4.29c5.9-4.15,8.98-10.59,8.98-18.02s-3.15-13.94-8.58-18.02
	c-4.96-3.68-10.39-4.35-16.62-4.35h-9.38V373.28z M43.15,448.28h6.83v-20.57h19.16v20.57h6.83V403.6h-6.83v17.69H49.99V403.6h-6.83
	V448.28z M77.72,500.97c0-7.44-3.15-13.94-8.58-18.02c-4.96-3.68-10.39-4.35-16.62-4.35h-9.38v44.69h9.25
	c6.23,0,11.12-0.6,16.35-4.29C74.64,514.84,77.72,508.41,77.72,500.97z M106.94,478.6H82.28v44.69h24.66v-6.43H89.11v-14.07h17.29
	v-6.43H89.11v-11.32h17.82V478.6z M108.95,437.5l4.69,10.79h7.37l-21.17-47.3l-22.24,47.3h7.37l4.89-10.79H108.95z M139.1,509.82
	c0-5.09-2.28-9.78-10.52-13.13l-4.49-1.81c-4.35-1.74-4.82-4.09-4.82-5.43c0-2.88,2.14-5.36,6.3-5.36c1.94,0,3.42,0.47,4.82,1.61
	c1,0.87,1.61,1.81,2.01,2.81l5.49-3.22c-0.94-1.88-2.21-3.42-3.42-4.49c-1.41-1.21-4.15-3.02-8.98-3.02
	c-8.38,0-13.07,5.76-13.07,11.79c0,6.7,5.43,9.78,9.11,11.32l4.29,1.81c2.95,1.21,6.43,3.08,6.43,7.64c0,4.49-3.22,7.5-7.37,7.5
	c-2.68,0-4.56-1.07-5.83-2.68c-1.07-1.41-1.88-3.48-1.88-5.7l-6.77,1.47c0.27,3.08,1.34,6.03,3.75,8.71
	c2.28,2.55,5.36,4.49,10.52,4.49C133.07,524.16,139.1,518.33,139.1,509.82z M144.19,429.99l12.8,18.29h8.24l-13.94-19.1
	c5.96-1.34,9.92-6.03,9.92-12.46c0-1.94-0.4-7.24-5.29-10.52c-2.88-1.94-6.37-2.61-11.79-2.61h-7.97v44.69h6.83v-18.29H144.19z
	 M151.82,478.6h-6.83v44.69h6.83V478.6z M200.07,500.04h-18.43v6.3h11.12c-0.27,2.55-1.27,5.16-3.75,7.57
	c-2.88,2.81-6.1,3.95-9.98,3.95c-4.29,0-8.11-1.21-11.19-4.49c-2.95-3.15-4.62-7.64-4.62-12.13c0-4.82,1.81-9.58,4.76-12.53
	c2.21-2.21,5.96-4.62,11.79-4.62c2.75,0,5.43,0.47,7.91,1.94c2.14,1.21,4.15,3.22,5.49,5.09l5.43-3.82
	c-1.27-2.01-3.55-4.62-7.24-6.7c-3.48-1.94-7.64-2.81-11.66-2.81c-6.9,0-13,2.81-16.82,6.7c-3.68,3.69-6.5,9.72-6.5,16.68
	c0,6.43,2.28,12.4,6.63,16.88c4.09,4.22,8.71,6.1,15.21,6.1c5.09,0,10.59-1.21,15.21-5.7c4.36-4.22,6.63-10.45,6.63-18.09V500.04z
	 M201.94,373.28h24.66v-6.43h-17.82v-14.07h17.29v-6.43h-17.29v-11.32h17.82v-6.43h-24.66V373.28z M243.88,478.6h-6.83v30.95
	l-32.43-33.97v47.71h6.83v-31.22l32.43,33.97V478.6z M261.84,373.28l-13.94-19.1c5.96-1.34,9.92-6.03,9.92-12.46
	c0-1.94-0.4-7.24-5.29-10.52c-2.88-1.94-6.37-2.61-11.79-2.61h-7.97v44.69h6.83v-18.29h1.21l12.8,18.29H261.84z"/>
      <path d="M203.47,158.92v-39.67c46.98,0,85.06,38.08,85.06,85.06v0v69.41l-39.75,15.65V204.3
	c0-24.98-20.33-45.31-45.31-45.31V158.92z M19.05,204.3c0-46.98,38.08-85.06,85.06-85.06v-0.05h31v39.72h-31v0.08
	c-24.98,0-45.31,20.33-45.31,45.31c0,24.98,20.33,45.31,45.31,45.31c24.98,0,45.31-20.33,45.31-45.31v-71.99V34.99l39.75-15.65
	V204.3v0c0,46.98-38.08,85.06-85.06,85.06S19.05,251.28,19.05,204.3L19.05,204.3z"/>
    </symbol>

    <symbol id="header-logo" viewBox="0 0 1327.21 268.73">
      <rect x="5" y="5" style="fill:transparent" width="1317.2" height="258.7"/>
      <path d="M0,268.7h1327.2V0H0V268.7z M147.4,127.9L147.4,127.9v-27.3c32.2,0,58.4,26.1,58.4,58.3v47.6l-27.3,10.7V159
			C178.5,141.9,164.6,127.9,147.4,127.9L147.4,127.9z M79.2,190.1c17.1,0,31.1-13.9,31.1-31.1v-49.4V42.9l27.3-10.7V159
			c0,32.2-26.1,58.3-58.3,58.3c-32.2,0-58.3-26.1-58.3-58.4s26.1-58.3,58.3-58.3v0h21.3v27.2H79.2v0.1c-17.1,0-31.1,13.9-31.1,31.1
			C48.2,176.2,62.1,190.1,79.2,190.1L79.2,190.1z M1305.8,20.9v227H227v-227H1305.8z"/>
      <path d="M301.2,102c10.2,0,19.1,1.1,27.3,7.2c8.9,6.7,14.1,17.4,14.1,29.6s-5.1,22.8-14.7,29.6c-8.6,6.1-16.6,7-26.8,7h-15.2V102
			C285.8,102,301.2,102,301.2,102z M297,164.8h4.8c5.5,0,13.1-0.4,19.5-5.2c5.1-3.9,10-10.9,10-20.9s-4.6-17.3-9.9-21.1
			c-6.4-4.6-14.2-5.1-19.6-5.1H297L297,164.8L297,164.8z M390.5,112.6h-29.3v18.6h28.4v10.6h-28.4v23.1h29.3v10.6h-40.5V102h40.5
			C390.5,102,390.5,112.6,390.5,112.6z M402.9,175.4V97.1l53.2,55.8V102h11.2v77.9l-53.2-55.8v51.3L402.9,175.4L402.9,175.4z
			 M486.5,102l20.5,51.2l20.5-51.2h12.1l-32.6,78.1L474.4,102H486.5L486.5,102z M587,112.6h-29.3v18.6h28.4v10.6h-28.4v23.1H587v10.6
			h-40.5V102H587V112.6z M610.2,102c8.9,0,14.6,1.1,19.4,4.3c8,5.4,8.7,14.1,8.7,17.3c0,10.6-6.5,18.3-16.3,20.5l22.9,31.4h-13.5
			l-21-30h-2v30h-11.2V102H610.2z M608.3,135.7h3.5c3.1,0,15.6-0.3,15.6-12c0-10.3-9.8-11.3-15.3-11.3h-3.8L608.3,135.7L608.3,135.7z
			 M692.7,131.1h31.5v-29h11.2v73.4h-11.2v-33.8h-31.5v33.8h-11.2V102h11.2V131.1z M789.5,157.7h-31.3l-8,17.7H738l36.5-77.7
			l34.8,77.7h-12.1L789.5,157.7L789.5,157.7z M785,147.1l-10.9-24.9l-11.3,24.9H785L785,147.1z M825.4,102v73.4h-11.2V102H825.4z
			 M847.3,102c8.9,0,14.6,1.1,19.4,4.3c8,5.4,8.7,14.1,8.7,17.3c0,10.6-6.5,18.3-16.3,20.5l22.9,31.4h-13.5l-21-30h-2v30h-11.2V102
			H847.3z M845.4,135.7h3.5c3.1,0,15.6-0.3,15.6-12c0-10.3-9.8-11.3-15.3-11.3h-3.8L845.4,135.7L845.4,135.7z M933.9,102
			c10.2,0,19.1,1.1,27.3,7.2c8.9,6.7,14.1,17.4,14.1,29.6s-5.1,22.8-14.7,29.6c-8.6,6.1-16.6,7-26.8,7h-15.2V102L933.9,102L933.9,102z
			 M929.8,164.8h4.8c5.5,0,13.1-0.4,19.5-5.2c5.1-3.9,10-10.9,10-20.9s-4.6-17.3-9.9-21.1c-6.4-4.6-14.2-5.1-19.6-5.1h-4.8
			L929.8,164.8L929.8,164.8z M1023.3,112.6H994v18.6h28.4v10.6H994v23.1h29.3v10.6h-40.5V102h40.5
			C1023.3,102,1023.3,112.6,1023.3,112.6z M1065.1,118.3c-0.7-1.7-1.7-3.2-3.3-4.6c-2.3-1.9-4.7-2.6-7.9-2.6c-6.8,0-10.3,4.1-10.3,8.8
			c0,2.2,0.8,6.1,7.9,8.9l7.4,3c13.5,5.5,17.3,13.2,17.3,21.6c0,14-9.9,23.5-23.7,23.5c-8.5,0-13.5-3.2-17.3-7.4
			c-4-4.4-5.7-9.2-6.2-14.3l11.1-2.4c0,3.6,1.3,7,3.1,9.4c2.1,2.6,5.2,4.4,9.6,4.4c6.8,0,12.1-4.9,12.1-12.3s-5.7-10.6-10.6-12.5l-7-3
			c-6.1-2.5-15-7.6-15-18.6c0-9.9,7.7-19.4,21.4-19.4c7.9,0,12.4,3,14.7,4.9c2,1.8,4.1,4.3,5.6,7.4L1065.1,118.3L1065.1,118.3z
			 M1097,102v73.4h-11.2V102C1085.7,102,1097,102,1097,102z M1145.9,137.2h30.2v0.6c0,12.5-3.7,22.8-10.9,29.7
			c-7.6,7.4-16.6,9.4-25,9.4c-10.7,0-18.3-3.1-25-10c-7.2-7.4-10.9-17.2-10.9-27.7c0-11.4,4.6-21.3,10.7-27.4c6.3-6.4,16.3-11,27.6-11
			c6.6,0,13.4,1.4,19.1,4.6c6.1,3.4,9.8,7.7,11.9,11l-8.9,6.3c-2.2-3.1-5.5-6.4-9-8.4c-4.1-2.4-8.5-3.2-13-3.2c-9.6,0-15.7,4-19.4,7.6
			c-4.8,4.8-7.8,12.6-7.8,20.6c0,7.4,2.8,14.7,7.6,19.9c5.1,5.4,11.3,7.4,18.4,7.4c6.4,0,11.7-1.9,16.4-6.5c4.1-4,5.7-8.2,6.2-12.4
			h-18.3V137.2z M1183.6,175.4V97.1l53.2,55.8V102h11.2v77.9l-53.2-55.8v51.3L1183.6,175.4L1183.6,175.4z"/>
    </symbol>

    <symbol id="phone-icon" viewBox="0 0 28 24.5">
      <path d="m0,5.25C3.86,1.84,8.85-.03,14,0c5.15-.03,10.14,1.84,14,5.25v4.38h-5.25l-1.75-4.38c-2.21-.93-4.6-1.38-7-1.31-2.4-.06-4.79.38-7,1.31l-1.75,4.38H0v-4.38Zm1.75,19.25v-5.25l7-12.25h10.5l7,12.25v5.25H1.75Zm16.19-9.19c0-2.17-1.76-3.94-3.93-3.94,0,0,0,0,0,0-2.17,0-3.94,1.76-3.94,3.93,0,0,0,0,0,0,0,2.17,1.76,3.94,3.93,3.94,0,0,0,0,0,0,2.17,0,3.94-1.76,3.94-3.93h0Z"/>
    </symbol>

    <symbol id="location-icon" viewBox="0 0 21 28">
      <path d="m10.5,28s10.5-11.38,10.5-17.5C21,4.7,16.3,0,10.5,0S0,4.7,0,10.5c0,6.12,10.5,17.5,10.5,17.5Zm0-14c-1.93,0-3.5-1.57-3.5-3.5h0c0-1.93,1.57-3.5,3.5-3.5s3.5,1.57,3.5,3.5-1.57,3.5-3.5,3.5h0Z"/>
    </symbol>

    <symbol id="instagram-icon" viewBox="0 0 24.514 24.508">
      <path d="m12.26,5.97c-3.47,0-6.28,2.8-6.28,6.26,0,0,0,.01,0,.02,0,3.47,2.8,6.28,6.26,6.28,0,0,.01,0,.02,0,3.47,0,6.28-2.8,6.28-6.26,0,0,0-.01,0-.02,0-3.47-2.8-6.28-6.26-6.28,0,0-.01,0-.02,0Zm0,10.37c-2.25,0-4.08-1.83-4.09-4.09,0-2.26,1.83-4.08,4.09-4.09,2.26,0,4.08,1.83,4.09,4.09,0,2.25-1.83,4.08-4.09,4.09Zm8.01-10.63c0-.81-.65-1.46-1.46-1.47-.81,0-1.47.66-1.47,1.47,0,.81.65,1.46,1.46,1.47,0,0,0,0,0,0,.81,0,1.46-.65,1.46-1.46,0,0,0,0,0,0h0Zm4.16,1.49c.04-1.91-.67-3.75-1.98-5.14C21.06.76,19.22.05,17.31.09,15.29-.03,9.22-.03,7.2.09c-1.9-.04-3.75.67-5.13,1.97C.76,3.45.05,5.29.09,7.19-.03,9.22-.03,15.28.09,17.31c-.04,1.91.67,3.75,1.98,5.14,1.39,1.3,3.23,2.01,5.14,1.98,2.02.12,8.09.12,10.11,0,1.91.04,3.75-.67,5.14-1.98,1.3-1.39,2.02-3.23,1.98-5.13.11-2.02.11-8.08,0-10.11h0Zm-2.61,12.28c-.42,1.07-1.26,1.91-2.33,2.33-1.61.64-5.44.49-7.22.49s-5.62.14-7.22-.49c-1.07-.42-1.91-1.26-2.33-2.33-.64-1.61-.49-5.44-.49-7.22s-.14-5.62.49-7.22c.42-1.07,1.26-1.91,2.33-2.33,1.61-.64,5.44-.49,7.22-.49s5.62-.14,7.22.49c1.07.42,1.91,1.26,2.33,2.33.64,1.61.49,5.44.49,7.22s.15,5.62-.49,7.22Z"/>
    </symbol>

    <symbol id="facebook-icon" viewBox="0 0 27.125 26.961">
      <path d="m27.12,13.56C27.13,6.07,21.06,0,13.57,0h0C6.07,0,0,6.07,0,13.56c0,0,0,0,0,0,0,6.67,4.85,12.36,11.44,13.4v-9.48h-3.44v-3.92h3.44v-2.99c0-3.4,2.02-5.28,5.12-5.28,1.02.01,2.03.1,3.04.26v3.34h-1.71c-1.07-.14-2.06.61-2.2,1.69-.02.14-.02.29,0,.43v2.55h3.76l-.6,3.92h-3.16v9.48c6.59-1.04,11.44-6.73,11.44-13.4Z"/>
    </symbol>

    <symbol id="close-x" viewBox="0 0 384 512">
      <path d="M323,51l17-17L306,.1l-17,17-119,119L51,17,34,0,.1,34l17,17,119,119-119.1,119L0,306l34,33.9,17-17,119-119,119,119.1,17,17,33.9-34-17-17-119-119,119.1-119Z"/>
    </symbol>
  </defs>
</svg>
