<svg style="position: absolute; width: 0; height: 0; overflow: hidden;" version="1.1"
  xmlns="http://www.w3.org/2000/svg"
  xmlns:xlink="http://www.w3.org/1999/xlink">
  <defs>
    <symbol id="home-logo" viewBox="0 0 308.17 578.94">
      <title>home-logo</title>
      <path d="M0,0v578.94h308.17V0H0z M301.39,572.17H6.77V6.77h294.62V572.17z"/>
      <path d="M145.12,424.1h-2.14v-14.2h2.34c3.35,0,9.31,0.6,9.31,6.9C154.64,423.9,147,424.1,145.12,424.1z M92.66,431.07
	h13.53l-6.63-15.14L92.66,431.07z M64.79,363.7c3.08-2.34,6.1-6.63,6.1-12.73c0-5.9-2.81-10.52-6.03-12.86
	c-3.89-2.81-8.64-3.08-11.93-3.08h-2.95v31.83h2.95C56.28,366.85,60.91,366.58,64.79,363.7z M64.86,488.11
	c-3.89-2.81-8.64-3.08-11.93-3.08h-2.95v31.83h2.95c3.35,0,7.97-0.27,11.86-3.15c3.08-2.34,6.1-6.63,6.1-12.73
	C70.89,495.08,68.08,490.45,64.86,488.11z M251.25,341.79c0-6.3-5.96-6.9-9.31-6.9h-2.34v14.2h2.14
	C243.61,349.1,251.25,348.9,251.25,341.79z M289.12,301.88v257.77H19.05V301.88H289.12z M157.99,328.6l19.83,47.57l19.83-47.57
	h-7.37l-12.46,31.16l-12.46-31.16H157.99z M114.44,373.28h6.83v-31.22l32.43,33.97V328.6h-6.83v30.95l-32.43-33.97V373.28z
	 M123.95,403.6v44.69h6.83V403.6H123.95z M82.28,373.28h24.66v-6.43H89.11v-14.07h17.29v-6.43H89.11v-11.32h17.82v-6.43H82.28
	V373.28z M43.15,373.28h9.25c6.23,0,11.12-0.6,16.35-4.29c5.9-4.15,8.98-10.59,8.98-18.02s-3.15-13.94-8.58-18.02
	c-4.96-3.68-10.39-4.35-16.62-4.35h-9.38V373.28z M43.15,448.28h6.83v-20.57h19.16v20.57h6.83V403.6h-6.83v17.69H49.99V403.6h-6.83
	V448.28z M77.72,500.97c0-7.44-3.15-13.94-8.58-18.02c-4.96-3.68-10.39-4.35-16.62-4.35h-9.38v44.69h9.25
	c6.23,0,11.12-0.6,16.35-4.29C74.64,514.84,77.72,508.41,77.72,500.97z M106.94,478.6H82.28v44.69h24.66v-6.43H89.11v-14.07h17.29
	v-6.43H89.11v-11.32h17.82V478.6z M108.95,437.5l4.69,10.79h7.37l-21.17-47.3l-22.24,47.3h7.37l4.89-10.79H108.95z M139.1,509.82
	c0-5.09-2.28-9.78-10.52-13.13l-4.49-1.81c-4.35-1.74-4.82-4.09-4.82-5.43c0-2.88,2.14-5.36,6.3-5.36c1.94,0,3.42,0.47,4.82,1.61
	c1,0.87,1.61,1.81,2.01,2.81l5.49-3.22c-0.94-1.88-2.21-3.42-3.42-4.49c-1.41-1.21-4.15-3.02-8.98-3.02
	c-8.38,0-13.07,5.76-13.07,11.79c0,6.7,5.43,9.78,9.11,11.32l4.29,1.81c2.95,1.21,6.43,3.08,6.43,7.64c0,4.49-3.22,7.5-7.37,7.5
	c-2.68,0-4.56-1.07-5.83-2.68c-1.07-1.41-1.88-3.48-1.88-5.7l-6.77,1.47c0.27,3.08,1.34,6.03,3.75,8.71
	c2.28,2.55,5.36,4.49,10.52,4.49C133.07,524.16,139.1,518.33,139.1,509.82z M144.19,429.99l12.8,18.29h8.24l-13.94-19.1
	c5.96-1.34,9.92-6.03,9.92-12.46c0-1.94-0.4-7.24-5.29-10.52c-2.88-1.94-6.37-2.61-11.79-2.61h-7.97v44.69h6.83v-18.29H144.19z
	 M151.82,478.6h-6.83v44.69h6.83V478.6z M200.07,500.04h-18.43v6.3h11.12c-0.27,2.55-1.27,5.16-3.75,7.57
	c-2.88,2.81-6.1,3.95-9.98,3.95c-4.29,0-8.11-1.21-11.19-4.49c-2.95-3.15-4.62-7.64-4.62-12.13c0-4.82,1.81-9.58,4.76-12.53
	c2.21-2.21,5.96-4.62,11.79-4.62c2.75,0,5.43,0.47,7.91,1.94c2.14,1.21,4.15,3.22,5.49,5.09l5.43-3.82
	c-1.27-2.01-3.55-4.62-7.24-6.7c-3.48-1.94-7.64-2.81-11.66-2.81c-6.9,0-13,2.81-16.82,6.7c-3.68,3.69-6.5,9.72-6.5,16.68
	c0,6.43,2.28,12.4,6.63,16.88c4.09,4.22,8.71,6.1,15.21,6.1c5.09,0,10.59-1.21,15.21-5.7c4.36-4.22,6.63-10.45,6.63-18.09V500.04z
	 M201.94,373.28h24.66v-6.43h-17.82v-14.07h17.29v-6.43h-17.29v-11.32h17.82v-6.43h-24.66V373.28z M243.88,478.6h-6.83v30.95
	l-32.43-33.97v47.71h6.83v-31.22l32.43,33.97V478.6z M261.84,373.28l-13.94-19.1c5.96-1.34,9.92-6.03,9.92-12.46
	c0-1.94-0.4-7.24-5.29-10.52c-2.88-1.94-6.37-2.61-11.79-2.61h-7.97v44.69h6.83v-18.29h1.21l12.8,18.29H261.84z"/>
      <path d="M203.47,158.92v-39.67c46.98,0,85.06,38.08,85.06,85.06v0v69.41l-39.75,15.65V204.3
	c0-24.98-20.33-45.31-45.31-45.31V158.92z M19.05,204.3c0-46.98,38.08-85.06,85.06-85.06v-0.05h31v39.72h-31v0.08
	c-24.98,0-45.31,20.33-45.31,45.31c0,24.98,20.33,45.31,45.31,45.31c24.98,0,45.31-20.33,45.31-45.31v-71.99V34.99l39.75-15.65
	V204.3v0c0,46.98-38.08,85.06-85.06,85.06S19.05,251.28,19.05,204.3L19.05,204.3z"/>
    </symbol>

    <symbol id="header-logo" viewBox="0 0 1327.21 268.73">
      <rect x="5" y="5" style="fill:transparent" width="1317.2" height="258.7"/>
      <path d="M0,268.7h1327.2V0H0V268.7z M147.4,127.9L147.4,127.9v-27.3c32.2,0,58.4,26.1,58.4,58.3v47.6l-27.3,10.7V159
			C178.5,141.9,164.6,127.9,147.4,127.9L147.4,127.9z M79.2,190.1c17.1,0,31.1-13.9,31.1-31.1v-49.4V42.9l27.3-10.7V159
			c0,32.2-26.1,58.3-58.3,58.3c-32.2,0-58.3-26.1-58.3-58.4s26.1-58.3,58.3-58.3v0h21.3v27.2H79.2v0.1c-17.1,0-31.1,13.9-31.1,31.1
			C48.2,176.2,62.1,190.1,79.2,190.1L79.2,190.1z M1305.8,20.9v227H227v-227H1305.8z"/>
      <path d="M301.2,102c10.2,0,19.1,1.1,27.3,7.2c8.9,6.7,14.1,17.4,14.1,29.6s-5.1,22.8-14.7,29.6c-8.6,6.1-16.6,7-26.8,7h-15.2V102
			C285.8,102,301.2,102,301.2,102z M297,164.8h4.8c5.5,0,13.1-0.4,19.5-5.2c5.1-3.9,10-10.9,10-20.9s-4.6-17.3-9.9-21.1
			c-6.4-4.6-14.2-5.1-19.6-5.1H297L297,164.8L297,164.8z M390.5,112.6h-29.3v18.6h28.4v10.6h-28.4v23.1h29.3v10.6h-40.5V102h40.5
			C390.5,102,390.5,112.6,390.5,112.6z M402.9,175.4V97.1l53.2,55.8V102h11.2v77.9l-53.2-55.8v51.3L402.9,175.4L402.9,175.4z
			 M486.5,102l20.5,51.2l20.5-51.2h12.1l-32.6,78.1L474.4,102H486.5L486.5,102z M587,112.6h-29.3v18.6h28.4v10.6h-28.4v23.1H587v10.6
			h-40.5V102H587V112.6z M610.2,102c8.9,0,14.6,1.1,19.4,4.3c8,5.4,8.7,14.1,8.7,17.3c0,10.6-6.5,18.3-16.3,20.5l22.9,31.4h-13.5
			l-21-30h-2v30h-11.2V102H610.2z M608.3,135.7h3.5c3.1,0,15.6-0.3,15.6-12c0-10.3-9.8-11.3-15.3-11.3h-3.8L608.3,135.7L608.3,135.7z
			 M692.7,131.1h31.5v-29h11.2v73.4h-11.2v-33.8h-31.5v33.8h-11.2V102h11.2V131.1z M789.5,157.7h-31.3l-8,17.7H738l36.5-77.7
			l34.8,77.7h-12.1L789.5,157.7L789.5,157.7z M785,147.1l-10.9-24.9l-11.3,24.9H785L785,147.1z M825.4,102v73.4h-11.2V102H825.4z
			 M847.3,102c8.9,0,14.6,1.1,19.4,4.3c8,5.4,8.7,14.1,8.7,17.3c0,10.6-6.5,18.3-16.3,20.5l22.9,31.4h-13.5l-21-30h-2v30h-11.2V102
			H847.3z M845.4,135.7h3.5c3.1,0,15.6-0.3,15.6-12c0-10.3-9.8-11.3-15.3-11.3h-3.8L845.4,135.7L845.4,135.7z M933.9,102
			c10.2,0,19.1,1.1,27.3,7.2c8.9,6.7,14.1,17.4,14.1,29.6s-5.1,22.8-14.7,29.6c-8.6,6.1-16.6,7-26.8,7h-15.2V102L933.9,102L933.9,102z
			 M929.8,164.8h4.8c5.5,0,13.1-0.4,19.5-5.2c5.1-3.9,10-10.9,10-20.9s-4.6-17.3-9.9-21.1c-6.4-4.6-14.2-5.1-19.6-5.1h-4.8
			L929.8,164.8L929.8,164.8z M1023.3,112.6H994v18.6h28.4v10.6H994v23.1h29.3v10.6h-40.5V102h40.5
			C1023.3,102,1023.3,112.6,1023.3,112.6z M1065.1,118.3c-0.7-1.7-1.7-3.2-3.3-4.6c-2.3-1.9-4.7-2.6-7.9-2.6c-6.8,0-10.3,4.1-10.3,8.8
			c0,2.2,0.8,6.1,7.9,8.9l7.4,3c13.5,5.5,17.3,13.2,17.3,21.6c0,14-9.9,23.5-23.7,23.5c-8.5,0-13.5-3.2-17.3-7.4
			c-4-4.4-5.7-9.2-6.2-14.3l11.1-2.4c0,3.6,1.3,7,3.1,9.4c2.1,2.6,5.2,4.4,9.6,4.4c6.8,0,12.1-4.9,12.1-12.3s-5.7-10.6-10.6-12.5l-7-3
			c-6.1-2.5-15-7.6-15-18.6c0-9.9,7.7-19.4,21.4-19.4c7.9,0,12.4,3,14.7,4.9c2,1.8,4.1,4.3,5.6,7.4L1065.1,118.3L1065.1,118.3z
			 M1097,102v73.4h-11.2V102C1085.7,102,1097,102,1097,102z M1145.9,137.2h30.2v0.6c0,12.5-3.7,22.8-10.9,29.7
			c-7.6,7.4-16.6,9.4-25,9.4c-10.7,0-18.3-3.1-25-10c-7.2-7.4-10.9-17.2-10.9-27.7c0-11.4,4.6-21.3,10.7-27.4c6.3-6.4,16.3-11,27.6-11
			c6.6,0,13.4,1.4,19.1,4.6c6.1,3.4,9.8,7.7,11.9,11l-8.9,6.3c-2.2-3.1-5.5-6.4-9-8.4c-4.1-2.4-8.5-3.2-13-3.2c-9.6,0-15.7,4-19.4,7.6
			c-4.8,4.8-7.8,12.6-7.8,20.6c0,7.4,2.8,14.7,7.6,19.9c5.1,5.4,11.3,7.4,18.4,7.4c6.4,0,11.7-1.9,16.4-6.5c4.1-4,5.7-8.2,6.2-12.4
			h-18.3V137.2z M1183.6,175.4V97.1l53.2,55.8V102h11.2v77.9l-53.2-55.8v51.3L1183.6,175.4L1183.6,175.4z"/>
    </symbol>

    <symbol id="phone-icon" viewBox="0 0 28 24.5">
      <path d="m0,5.25C3.86,1.84,8.85-.03,14,0c5.15-.03,10.14,1.84,14,5.25v4.38h-5.25l-1.75-4.38c-2.21-.93-4.6-1.38-7-1.31-2.4-.06-4.79.38-7,1.31l-1.75,4.38H0v-4.38Zm1.75,19.25v-5.25l7-12.25h10.5l7,12.25v5.25H1.75Zm16.19-9.19c0-2.17-1.76-3.94-3.93-3.94,0,0,0,0,0,0-2.17,0-3.94,1.76-3.94,3.93,0,0,0,0,0,0,0,2.17,1.76,3.94,3.93,3.94,0,0,0,0,0,0,2.17,0,3.94-1.76,3.94-3.93h0Z"/>
    </symbol>

    <symbol id="location-icon" viewBox="0 0 21 28">
      <path d="m10.5,28s10.5-11.38,10.5-17.5C21,4.7,16.3,0,10.5,0S0,4.7,0,10.5c0,6.12,10.5,17.5,10.5,17.5Zm0-14c-1.93,0-3.5-1.57-3.5-3.5h0c0-1.93,1.57-3.5,3.5-3.5s3.5,1.57,3.5,3.5-1.57,3.5-3.5,3.5h0Z"/>
    </symbol>

    <symbol id="instagram-icon" viewBox="0 0 24.514 24.508">
      <path d="m12.26,5.97c-3.47,0-6.28,2.8-6.28,6.26,0,0,0,.01,0,.02,0,3.47,2.8,6.28,6.26,6.28,0,0,.01,0,.02,0,3.47,0,6.28-2.8,6.28-6.26,0,0,0-.01,0-.02,0-3.47-2.8-6.28-6.26-6.28,0,0-.01,0-.02,0Zm0,10.37c-2.25,0-4.08-1.83-4.09-4.09,0-2.26,1.83-4.08,4.09-4.09,2.26,0,4.08,1.83,4.09,4.09,0,2.25-1.83,4.08-4.09,4.09Zm8.01-10.63c0-.81-.65-1.46-1.46-1.47-.81,0-1.47.66-1.47,1.47,0,.81.65,1.46,1.46,1.47,0,0,0,0,0,0,.81,0,1.46-.65,1.46-1.46,0,0,0,0,0,0h0Zm4.16,1.49c.04-1.91-.67-3.75-1.98-5.14C21.06.76,19.22.05,17.31.09,15.29-.03,9.22-.03,7.2.09c-1.9-.04-3.75.67-5.13,1.97C.76,3.45.05,5.29.09,7.19-.03,9.22-.03,15.28.09,17.31c-.04,1.91.67,3.75,1.98,5.14,1.39,1.3,3.23,2.01,5.14,1.98,2.02.12,8.09.12,10.11,0,1.91.04,3.75-.67,5.14-1.98,1.3-1.39,2.02-3.23,1.98-5.13.11-2.02.11-8.08,0-10.11h0Zm-2.61,12.28c-.42,1.07-1.26,1.91-2.33,2.33-1.61.64-5.44.49-7.22.49s-5.62.14-7.22-.49c-1.07-.42-1.91-1.26-2.33-2.33-.64-1.61-.49-5.44-.49-7.22s-.14-5.62.49-7.22c.42-1.07,1.26-1.91,2.33-2.33,1.61-.64,5.44-.49,7.22-.49s5.62-.14,7.22.49c1.07.42,1.91,1.26,2.33,2.33.64,1.61.49,5.44.49,7.22s.15,5.62-.49,7.22Z"/>
    </symbol>

    <symbol id="facebook-icon" viewBox="0 0 27.125 26.961">
      <path d="m27.12,13.56C27.13,6.07,21.06,0,13.57,0h0C6.07,0,0,6.07,0,13.56c0,0,0,0,0,0,0,6.67,4.85,12.36,11.44,13.4v-9.48h-3.44v-3.92h3.44v-2.99c0-3.4,2.02-5.28,5.12-5.28,1.02.01,2.03.1,3.04.26v3.34h-1.71c-1.07-.14-2.06.61-2.2,1.69-.02.14-.02.29,0,.43v2.55h3.76l-.6,3.92h-3.16v9.48c6.59-1.04,11.44-6.73,11.44-13.4Z"/>
    </symbol>

    <symbol id="close-x" viewBox="0 0 384 512">
      <path d="M323,51l17-17L306,.1l-17,17-119,119L51,17,34,0,.1,34l17,17,119,119-119.1,119L0,306l34,33.9,17-17,119-119,119,119.1,17,17,33.9-34-17-17-119-119,119.1-119Z"/>
    </symbol>

    <symbol id="kevin-murphy" viewBox="0 0 4562.07 1507.51">
      <path d="M4188.68,1158.27c.69,1.1,1.41,2.18,2.05,3.31,18,31.26,36.03,62.49,53.92,93.81,1.79,3.14,3.83,4.48,7.49,4.37,8.15-.24,16.32-.05,24.48-.08,6.07-.02,6.41-.34,6.42-6.59.02-26.95.01-53.9.01-80.84,0-19.3-.09-38.59.06-57.89.04-4.58-1.22-6.72-6.24-6.42-6.31.37-12.67.38-18.98,0-4.75-.29-5.81,1.5-5.78,5.95.17,30.77.09,61.55.08,92.32,0,1.34-.15,2.68-.28,4.98-7.89-13.77-15.25-26.59-22.59-39.42-11.22-19.62-22.37-39.29-33.74-58.82-1.17-2.02-3.58-4.59-5.52-4.68-9.8-.48-19.65-.35-29.46-.07-1.31.04-3.07,1.94-3.68,3.37-.67,1.57-.28,3.6-.28,5.42,0,44.58,0,89.16,0,133.74,0,1.16.06,2.33.01,3.49-.17,3.86,1.23,5.82,5.51,5.53,4.64-.31,9.32.02,13.99-.09,12.06-.28,11.66,2.67,11.66-11.8,0-29.77,0-59.53,0-89.3.29-.1.58-.2.87-.31ZM3195.43,1125.26c-9.19-11.66-22.33-16.47-36.43-16.95-23.96-.81-47.96-.24-71.95-.31-3.21,0-4.54,1.41-4.45,4.52.08,2.66,0,5.32,0,7.98,0,44.08,0,88.17,0,132.25,0,6.84.08,6.89,7.06,6.91,5.66.01,11.33.02,16.99,0,6.65-.02,6.8-.15,6.81-6.67.02-15.47.04-30.94-.02-46.41,0-2.79.21-4.87,3.9-4.83,11.82.13,23.66-.28,35.47.15,12.46.45,16.74,5.38,16.77,17.98.02,7.82-.21,15.65.1,23.45.16,4.1.94,8.24,2.02,12.2.43,1.57,2.42,3.81,3.77,3.86,9.1.34,18.22.18,27.56.18,0-1.26.16-1.95-.02-2.53-3.58-11.61-3.93-23.55-3.5-35.53.48-13.47-2.51-25.39-14.17-33.75,21.41-16.14,25.73-42.67,10.08-62.52ZM3117.45,1173.96c-3.59.13-5.08-.98-5-4.79.21-9.62.11-19.25.04-28.88-.02-2.72.54-4.49,3.81-4.4,13.93.37,27.89.29,41.79,1.07,9.19.52,15.01,6.88,15.47,15.26.6,10.89-4.4,18.59-13.87,20.59-4.01.85-8.21.88-12.33,1.05-3.98.17-7.98.04-11.96.04-5.98,0-11.97-.15-17.95.06ZM3988.41,1197.25c2.98,17.88,10.28,33.66,23.89,46.01,16.87,15.31,36.73,21.28,59.38,18.51,17.08-2.09,31.7-9.12,43.04-21.91,20.44-23.05,26.21-49.95,18.31-79.46-14.2-53.06-71.31-70.59-111.66-43.94-23.43,15.48-33.29,38.86-34.34,67.23.39,4,.59,8.83,1.38,13.56ZM4091.77,1219.06c-20.66,22.38-50.49,16.59-65.06-7.03-13.1-21.24-11.29-46.7,5.34-65.23,19.14-21.33,50.79-18.06,66.19,8.72,4.88,8.49,7.57,17.68,7.16,25.66.04,15.67-4.34,27.82-13.63,37.88ZM3370.1,1169.76c-6.1-37.52-36.12-69.43-81.7-64.79-18.04,1.84-33.39,9.17-45.28,22.66-19.46,22.05-25.05,47.96-18.44,76.27,12.12,51.92,66.13,72.5,107.58,49.47,26.89-14.94,37.65-39.99,39.27-70.21-.43-4.16-.68-8.82-1.42-13.4ZM3272.06,1142.01c19.98-15.83,46.85-10.24,60.1,11.84,12.5,20.83,11.26,45.78-4.54,64.14-20.16,23.44-50.97,18.81-66.91-7.2-5.3-8.66-7.31-17.57-7.38-28.11.25-16.3,5.85-30.47,18.72-40.67ZM3795.34,1207.91c-8.41,0-9.12.9-7.66,9.17,2.75,15.48,10.87,27.26,24.3,35.42,9.58,5.82,20.12,8.89,31.16,9.68,19.55,1.4,38.22-1.35,54.26-13.9,20.7-16.19,22.69-55.12-5.01-69.23-8.78-4.47-18.56-7.13-28.07-9.98-11.28-3.38-22.83-5.82-34.12-9.14-5.4-1.59-8.66-5.96-8.65-11.63,0-5.23,3.35-8.85,7.92-11.25,8.95-4.71,18.54-5.15,28.2-3.54,10.63,1.78,17.88,7.48,19.92,18.77.24,1.31,2.92,3,4.55,3.09,6.65.36,13.32.23,19.98.16,5.92-.07,6.85-1.08,5.93-6.82-2.4-15.07-9.49-27.49-22.73-35.31-21.68-12.81-44.46-12.17-67.18-3.01-17.76,7.16-27.79,21.98-27.4,39.61.43,19.1,11.21,31.09,28.09,37.98,7.34,3,15.24,4.6,22.9,6.79,10.2,2.92,20.47,5.62,30.61,8.75,5.95,1.83,9.79,6.19,9.75,12.49-.05,6.52-3.79,11.22-9.79,13.87-9.66,4.27-19.72,6.14-30.14,3.78-9.93-2.25-18.51-6.69-22.75-16.78-1.22-2.91-1.63-7.07-3.81-8.42-2.44-1.51-6.45-.48-9.78-.54-1-.02-2,0-3,0-2.5,0-5,0-7.5,0ZM3662.81,1207.91c-3,0-6-.02-8.99,0-6.12.05-7.07,1.02-6.25,7.07,2.11,15.52,9.3,28.15,22.79,36.32,22.91,13.88,47.23,14.58,71.94,5.61,17.53-6.37,28.56-18.67,30.49-37.7,1.53-15.01-2.76-27.92-15.46-37.2-9.92-7.24-21.52-10.17-33.15-13.09-11.1-2.79-22.2-5.61-33.2-8.74-5.63-1.61-9.18-5.74-9.25-11.67-.06-5.48,3.32-9.34,8.18-11.58,11.22-5.18,22.86-5.89,34.41-1.57,6.9,2.58,11.82,7.82,12.85,15.35.57,4.11,2.54,4.87,5.92,4.85,6.33-.04,12.66.03,18.99-.01,6.21-.05,7.03-.89,6.04-7.09-2.39-14.87-9.6-26.81-22.38-35.03-20.63-13.27-56.24-12.18-76.51,1.67-22.92,15.65-24.37,48.4-4.16,64.74,9.63,7.79,21.03,11.06,32.69,14.02,11.41,2.89,22.8,5.94,34.06,9.35,6.17,1.87,10.58,6.11,10.43,13.04-.15,7.12-4.61,11.5-10.91,14.12-9.42,3.92-19.2,5.67-29.24,3.27-12.22-2.92-21.86-8.84-24.06-22.67-.19-1.17-2.38-2.73-3.77-2.87-3.79-.4-7.65-.14-11.48-.14v-.04ZM3520.44,1253.66c-.02,4.01.89,6.11,5.53,6.09,34.31-.13,68.61-.12,102.92,0,4.07.01,5.27-1.76,5.22-5.38-.07-5.49.02-10.98-.01-16.47-.04-6.77-.28-7.02-7.05-7.02-23.32-.01-46.63-.13-69.94.1-4.74.05-6.01-1.51-5.83-6.01.32-7.97.41-15.98-.02-23.94-.29-5.26,1.67-6.38,6.57-6.32,19.15.26,38.3.01,57.45.18,3.89.04,5.36-1.05,5.14-5.04-.29-5.47-.06-10.97-.07-16.46,0-7.22-.06-7.31-7.18-7.32-18.65-.02-37.31-.12-55.96.08-4.44.05-6.38-1.04-6.05-5.83.39-5.63.08-11.3.09-16.96q.01-6.54,6.62-6.56c22.48,0,44.96,0,67.45-.01,6.63,0,6.91-.3,6.95-6.62.03-5.32-.21-10.66.07-15.96.25-4.78-1.58-6.3-6.37-6.28-32.97.17-65.95.08-98.92.1-6.26,0-6.53.26-6.54,6.42-.02,23.12,0,46.24,0,69.36,0,23.29.05,46.57-.05,69.86ZM4435.98,1259.71c4.43.19,5.09-1.65,3.71-5.5-4.99-13.91-9.81-27.88-14.7-41.82-11.58-33.07-23.23-66.11-34.66-99.23-1.37-3.97-3.32-5.39-7.51-5.23-8.65.32-17.33.35-25.97,0-4.52-.19-6.37,1.6-7.77,5.68-9.17,26.7-18.57,53.31-27.91,79.95-6.92,19.74-13.87,39.48-20.8,59.22-2.23,6.37-1.88,6.89,4.64,6.91,6.66.02,13.33-.22,19.98.09,3.99.18,6.03-1.09,7.18-5.02,2.04-7,4.75-13.81,6.93-20.78,1.01-3.24,2.77-4.37,6.16-4.32,12.49.18,24.98,0,37.47.1,5.29.04,11.89-1.44,15.48,1.13,3.6,2.58,4.33,9.3,6.06,14.3,5.02,14.5,4.97,14.52,20.24,14.52,3.83,0,7.67-.13,11.49.03ZM4388.78,1200.65h-38.32c6.28-18.51,12.46-36.72,19.13-56.39,6.65,19.56,12.82,37.68,19.18,56.39ZM2948.59,1253.48c-.04,4.81,1.61,6.53,6.38,6.28,5.98-.31,11.99-.06,17.98-.08,6.35-.03,6.56-.22,6.57-6.38.02-12.48-.03-24.95.02-37.43.05-10.09-1.39-9.24,9.33-9.43,11.8-.22,23.85.69,35.36-1.33,40.55-7.11,48.17-51.61,30.48-78-8.9-13.28-22.85-18.57-38.32-18.95-20.31-.5-40.64-.14-60.96-.13-6.59,0-6.75.15-6.76,6.71-.02,22.96,0,45.91,0,68.87,0,23.29.1,46.58-.08,69.87ZM2979.69,1139.96c.09-1.4,1.94-3.85,2.98-3.85,11.8.01,23.65-.13,35.39.87,9.25.79,14.28,7.26,14.62,16.64.11,2.99.15,6-.09,8.98-.69,8.58-7.91,15.05-17.44,15.27-10.49.24-20.99,0-31.49.11-2.97.03-4.22-1.03-4.15-4.07.14-5.82.04-11.65.04-17.47,0-5.49-.21-11,.14-16.46ZM3391.49,1253.73c-.03,4.26.8,6.41,5.75,6.1,6.8-.43,13.65-.3,20.47-.03,3.83.15,4.8-1.29,4.76-4.9-.15-16.63.15-33.26-.19-49.88-.1-5.22,1.63-6.4,6.56-6.33,18.64.27,37.29.02,55.94.17,4.15.03,5.69-1.51,5.56-5.54-.17-5.32-.02-10.64-.04-15.96-.02-7.24-.1-7.34-7.22-7.35-18.15-.02-36.3-.14-54.44.09-4.6.06-6.64-.95-6.34-6.02.42-6.96.44-13.98,0-20.94-.33-5.2,1.55-6.42,6.51-6.36,22.31.25,44.62.03,66.93.18,4.14.03,5.71-1.47,5.59-5.51-.17-5.48-.01-10.97-.04-16.46-.03-6.56-.29-6.86-6.71-6.86-32.13-.02-64.27-.02-96.4,0-6.34,0-6.62.32-6.63,6.92-.02,23.11,0,46.23,0,69.34,0,23.11.08,46.23-.07,69.34ZM4555.46,1231.81c-20.48,0-40.96-.17-61.44.11-5.18.07-6.45-1.65-6.42-6.58.18-35.75.1-71.51.09-107.27,0-1.83-.06-3.66-.05-5.49.02-3.25-1.3-4.75-4.82-4.63-6.82.22-13.66.31-20.47-.03-4.45-.22-5.86,1.55-5.86,5.72.06,46.73.07,93.46-.02,140.2,0,4.51,1.62,5.96,6.2,5.93,31.14-.18,62.28-.09,93.41-.1,1,0,2.21.32,2.95-.12,1.17-.72,2.85-1.93,2.89-2.98.24-7.96.13-15.92.13-24.77-2.66,0-4.62,0-6.58,0ZM3935.21,1254.18c-.04,4.48,1.36,5.81,5.69,5.58,6.14-.32,12.32-.07,18.48-.08,6.53-.02,6.77-.22,6.77-6.74.02-31.93.01-63.87.01-95.8,0-14.47-.1-28.94.05-43.41.04-4.28-1.45-5.97-5.84-5.78-6.48.28-13,.31-19.48-.01-4.31-.22-5.73,1.04-5.69,5.54.22,23.28.1,46.57.1,69.85s.11,47.24-.1,70.85Z"/>
      <path d="M2813.26,963.84c2.87-9.99,5.58-19.15,8.15-28.35,5.35-19.16,10.63-38.33,15.95-57.5,8.57-30.89,17.13-61.78,25.72-92.65,4.6-16.52,9.31-33.01,13.85-49.54.79-2.88,2-4.26,5.27-4.25,27.68.12,55.37.07,83.05.09,1,0,2,.19,3.75.37,0,2.14,0,4.13,0,6.12,0,101.15,0,202.3,0,303.45,0,6.9-.01,6.96-6.75,6.97-15.48.04-30.95.03-46.43,0-7.34-.01-7.55-.24-7.55-7.48,0-69.38,0-138.76,0-208.14v-5.66c-.22-.06-.45-.11-.67-.17-3.54,12.6-7.1,25.2-10.61,37.81-7.17,25.77-14.33,51.54-21.44,77.32-8.61,31.23-17.07,62.51-25.8,93.7-4.21,15.03-1.87,12.44-15.68,12.58-15.3.16-30.61-.12-45.91.12-5.2.08-7.88-1.27-9.39-6.81-13.04-47.98-26.41-95.87-39.72-143.77-6.51-23.46-13.09-46.89-19.65-70.34-.22-.78-.53-1.54-1.14-3.28,0,71.93.04,142.82-.04,213.7-.01,10.46,2.57,10.43-10.52,10.42-14.27,0-28.54.02-42.81-.01-7.15-.02-7.37-.25-7.37-7.11,0-100.98,0-201.95,0-302.93,0-6.88.03-6.9,6.69-6.9,26.14,0,52.27.12,78.41-.12,4.53-.04,6.22,1.56,7.36,5.7,11.65,42.31,23.49,84.58,35.27,126.86,8.92,32.04,17.83,64.08,26.75,96.12.27.97.65,1.9,1.27,3.66ZM2298.6,829.56c3.79,6.46,7.65,12.89,11.37,19.4,18.4,32.19,36.72,64.42,55.15,96.59,18.77,32.77,37.71,65.44,56.39,98.26,1.99,3.5,4.27,4.82,8.15,4.8,20.64-.11,41.27-.14,61.91,0,4.83.03,6.58-1.58,6.54-6.59-.22-24.39-.1-48.78-.1-73.16,0-75.91,0-151.83,0-227.74,0-11.24.7-9.43-9.76-9.5-15.13-.09-30.27-.03-45.4-.02q-7.49,0-7.51,7.71c0,68.7,0,137.4,0,206.1v5.25c-1.77-1.41-2.62-2.89-3.46-4.36-8.31-14.63-16.59-29.27-24.94-43.87-18.73-32.78-37.49-65.55-56.24-98.33-13.04-22.79-26.14-45.55-39.06-68.41-1.76-3.12-3.82-4.18-7.35-4.16-20.81.15-41.62.25-62.42-.05-5.33-.08-6.7,1.66-6.69,6.73.12,101.16.08,202.32.1,303.48,0,6.42.45,6.84,7.2,6.85,15.48.04,30.95.02,46.43.01q8.76,0,8.77-8.92c0-68.01,0-136.02,0-204.04v-5.91c.31-.05.62-.09.92-.14ZM3538.34,893.25c13.77-9.01,24.06-20.75,29.47-36.55,4.95-14.45,5.86-29.2,3.95-44.19-3.11-24.38-13.36-44.74-33.6-59.61-20.03-14.73-42.93-20.82-67.18-21.11-48.48-.59-96.96-.18-145.45-.18-7.16,0-7.2.01-7.2,7.01,0,100.97,0,201.93,0,302.9,0,6.62.37,7.01,7,7.03,15.82.04,31.63.03,47.45,0,7.24-.01,7.25-.05,7.25-7.52,0-36.06.03-72.12-.04-108.18,0-3.56.36-5.8,4.89-5.77,27.51.18,55.02-.1,82.52.28,10.73.15,21.56,2.62,27.17,12.79,3.51,6.35,5.67,14.13,6.01,21.39.85,17.99-.16,36.06.51,54.07.34,8.98,2.65,17.9,4.21,26.82.81,4.63,3.69,6.28,8.45,6.21,16.67-.22,33.35-.06,50.03-.13,1.94,0,3.87-.56,5.99-.88-.3-1.48-.4-2.32-.64-3.13-3.95-13.55-6.68-27.26-6.52-41.49.17-14.76.28-29.54-.05-44.3-.35-15.55-3.74-30.44-13.54-42.93-5.02-6.39-11.32-11.76-17.6-18.16,2.07-1.31,4.52-2.81,6.93-4.38ZM3466.33,789.43c7.45.36,15.24,1.41,22.13,4.09,12.24,4.75,20.12,13.53,21.47,27.58,1.65,17.08-1.29,31.93-16.88,41.74-8.46,5.33-17.91,7.89-27.89,7.93-26.65.12-53.3-.01-79.95.14-4.14.02-5.27-1.45-5.25-5.41.14-23.7.15-47.39,0-71.09-.03-4.15,1.43-5.3,5.41-5.24,13.75.19,27.51.07,41.26.07,13.24,0,26.5-.45,39.71.18ZM1549.69,1041.87c-.01,4.7,1.03,6.77,6.21,6.76,74.45-.12,148.89-.11,223.34-.02,4.67,0,6.4-1.68,6.35-6.33-.17-14.59-.04-29.19-.06-43.79-.01-7.9-.23-8.12-8.06-8.12-53.3,0-106.6-.06-159.9.1-4.79.01-6.14-1.41-6.09-6.14.23-21.98.27-43.96-.02-65.94-.07-5.28,1.5-6.64,6.69-6.61,44.01.2,88.03.12,132.04.11,6.71,0,6.74-.02,6.75-6.91.02-14.08.01-28.16,0-42.24q0-8.37-8.64-8.37c-43.5,0-87-.08-130.5.1-5.04.02-6.41-1.54-6.33-6.44.27-17.34.1-34.69.11-52.03q0-6.74,6.82-6.75c52.44,0,104.88-.05,157.32.09,4.66.01,6.29-1.25,6.2-6.07-.28-14.93-.09-29.88-.1-44.82q0-6.83-6.67-6.84c-72.9,0-145.8,0-218.7,0-6.65,0-6.67.02-6.67,6.84,0,50.48,0,100.97,0,151.45,0,50.66.05,101.31-.09,151.97ZM3901.25,1041.95c-.02,5.39,1.86,6.74,6.82,6.68,15.81-.2,31.63-.07,47.45-.08,8.24,0,8.3-.07,8.31-8.32,0-39.15,0-78.3,0-117.44,0-6.92.03-6.95,6.79-6.95,39.2,0,78.39,0,117.59,0q7.56,0,7.57,7.75c0,39.32,0,78.64.02,117.96,0,6.62.39,6.98,7.02,7,15.47.03,30.95.02,46.42,0q8.79,0,8.8-8.87c0-90.66,0-181.32,0-271.98,0-10.13-.17-20.26.07-30.39.11-4.54-1.54-5.87-6-5.81-16.16.23-32.32.09-48.48.09-7.8,0-7.83,0-7.83,7.95,0,37.09,0,74.18-.01,111.26,0,6.73-.13,6.85-6.99,6.85-38.85.01-77.71,0-116.56,0q-8.4,0-8.4-8.52c0-36.74,0-73.49,0-110.23,0-7.31-.04-7.31-7.44-7.32-15.99,0-31.98,0-47.97,0q-7.02,0-7.04,6.95c0,50.48,0,100.96,0,151.44s.08,101.3-.12,151.96ZM1508.85,733.31c-.27-.47-.55-.95-.82-1.42-1.8-.09-3.61-.27-5.41-.27-23.73-.02-47.46.09-71.19-.11-4.48-.04-7.6,1.21-10.69,4.54-35.02,37.77-70.2,75.4-105.34,113.07-2.01,2.15-4.05,4.29-6.88,7.28,0-3.31,0-5.19,0-7.06,0-37.1-.11-74.2.12-111.29.03-5.29-1.53-6.67-6.7-6.57-16.5.32-33.01.11-49.52.13-1.8,0-3.61.19-5.71.31,0,2.35,0,4.06,0,5.76,0,101.5.04,203-.11,304.51,0,5.05,1.6,6.5,6.43,6.44,16.33-.21,32.67-.24,49.01.01,5.31.08,6.62-1.9,6.59-6.96-.21-31.94-.13-63.89-.04-95.83,0-2.3.09-5.29,1.44-6.79,8.95-9.88,18.26-19.44,27.7-29.36,1.17,1.4,1.98,2.24,2.64,3.19,7.66,10.96,15.27,21.94,22.93,32.89,22.82,32.65,45.71,65.25,68.39,97.99,2.47,3.56,5.16,4.87,9.36,4.84,22.01-.14,44.02-.05,66.03-.1,2.14,0,4.28-.43,7.97-.83-44.8-61.65-88.84-122.25-133.31-183.45,42.68-43.96,84.91-87.45,127.13-130.93ZM3210.99,738.83c0,59.93.22,119.85-.18,179.78-.08,12.08-1.39,24.4-4.13,36.14-3.77,16.13-13.44,28.21-29.57,34.52-12.24,4.79-24.92,5.44-37.55,3.91-17.31-2.1-31.85-9.46-40.37-25.79-6.08-11.66-8.85-24.23-8.9-37.17-.22-64.05-.17-128.1,0-192.14.01-5.24-1.45-6.7-6.67-6.59-16.15.33-32.32.12-48.48.12-6.72,0-6.74.01-6.74,6.77,0,62.67-.11,125.35.05,188.02.06,23.55,3.95,46.42,14.48,67.81,12.62,25.63,32.52,43.4,59.57,52.14,32.08,10.37,64.71,10.24,96.77-.17,27.31-8.87,47.01-27.16,59.45-52.99,10.32-21.43,14.12-44.3,14.12-67.91,0-62.33,0-124.66,0-186.99,0-1.2.37-2.6-.12-3.56-.63-1.22-1.94-2.97-2.97-2.98-19.24-.18-38.49-.13-58.75-.13v7.2ZM3621.47,1040.3c0,8.15.1,8.25,8.42,8.25,15.47.01,30.95.02,46.43,0,7.27-.01,7.52-.28,7.52-7.56.01-33.14.09-66.29-.09-99.43-.03-4.81,1.5-6.11,6.2-6.07,24.07.21,48.14.21,72.21,0,6.33-.05,12.79-.44,18.94-1.8,40.11-8.82,66.02-32.75,76.22-72.83,3.77-14.83,3.87-30.01,1.77-45.03-3.55-25.32-13.69-47.36-34.53-63.39-18.1-13.91-39.1-20.3-61.47-20.64-44.35-.68-88.72-.21-133.08-.21q-8.52,0-8.53,8.35c0,49.97,0,99.95,0,149.92,0,50.14,0,100.29,0,150.43ZM3683.77,794.87c-.06-4.1,1.04-5.75,5.48-5.71,22.5.2,45.02-.36,67.5.25,15.33.42,29.86,4.58,36.69,20.13,6.97,15.86,6.85,32.74.33,48.61-6.61,16.12-21.5,20.38-37.31,20.73-22.49.49-45,.03-67.51.22-4.29.04-5.22-1.66-5.17-5.48.15-13.21.06-26.42.06-39.63,0-13.04.12-26.08-.07-39.12ZM2088.69,731.77c-20.11-.07-40.23-.18-60.33.02-1.38.01-3.46,2.05-3.99,3.58-2.18,6.31-3.87,12.8-5.76,19.21-11.34,38.47-22.71,76.93-34.03,115.41-6.97,23.69-13.82,47.41-20.79,71.09-2.86,9.73-5.9,19.42-9.19,30.19-.91-2.65-1.47-4.08-1.9-5.54-9.14-30.91-18.26-61.83-27.41-92.74-6.61-22.35-13.25-44.7-19.89-67.04-6.89-23.18-13.83-46.34-20.64-69.55-1.01-3.44-2.56-4.94-6.45-4.89-18.22.22-36.45.09-54.67.12-1.62,0-3.25.24-5.37.41.56,2.64.79,4.67,1.41,6.58,5.92,18.08,11.91,36.15,17.89,54.22,12.86,38.91,25.79,77.81,38.58,116.75,14.6,44.47,29.11,88.97,43.56,133.49,1.23,3.8,3.07,5.59,7.29,5.56,18.39-.17,36.79-.15,55.19-.01,3.95.03,5.93-1.59,7.08-5.2,2.9-9.16,6.03-18.24,9.02-27.37,8.73-26.73,17.4-53.47,26.14-80.19,8.8-26.89,17.67-53.75,26.48-80.64,11.05-33.72,22.08-67.46,33.08-101.19,2.32-7.11,4.49-14.28,6.72-21.4-1.09-.47-1.55-.84-2.01-.85ZM4186.88,747.52c16.44,30.13,32.93,60.24,49.36,90.37,13.48,24.71,26.71,49.55,40.45,74.1,5.14,9.2,8.04,18.32,7.84,29.15-.6,33.13-.22,66.28-.21,99.42,0,7.84.16,7.99,8.16,7.99,15.65.02,31.29.02,46.94,0,7.83,0,7.98-.16,7.98-8.17.01-36.06-.03-72.12.07-108.19,0-2.83.22-6.03,1.5-8.44,11.28-21.21,22.79-42.3,34.29-63.4,22.35-40.98,44.74-81.94,67.07-122.93.84-1.53,1.18-3.33,2.04-5.83-2.78,0-4.63,0-6.48,0-17.71,0-35.43.41-53.12-.2-7.1-.25-10.59,2.18-13.66,8.33-18.38,36.84-37.15,73.49-55.81,110.2-2.37,4.66-4.81,9.27-7.47,14.38-.85-1.18-1.32-1.68-1.61-2.25-10.54-20.82-21.06-41.64-31.59-62.47-10.76-21.29-21.58-42.56-32.23-63.9-1.62-3.24-3.76-4.19-7.27-4.16-19.43.16-38.86.07-58.29.09-1.66,0-3.32.15-6.18.28,3.04,5.78,5.56,10.73,8.23,15.62ZM2183.2,845.5c0-35.2,0-70.39,0-105.59q0-8.31-8.52-8.31c-15.47,0-30.94,0-46.41,0-7.4,0-7.43,0-7.43,7.24,0,100.61,0,201.21,0,301.82,0,7.85.02,7.87,8.19,7.88,15.3.02,30.6.01,45.9,0,8.2,0,8.27-.07,8.27-8.36,0-49.96,0-99.92,0-149.88,0-14.94,0-29.87,0-44.81ZM2549.41,982.27c-4.26-.08-6.19,1.18-6.14,5.85.2,18.19.17,36.38.01,54.56-.04,4.17,1.4,5.91,5.6,5.89,18.55-.09,37.11-.09,55.66,0,4.2.02,5.68-1.71,5.65-5.89-.15-18.19-.18-36.38.01-54.56.05-4.67-1.92-5.93-6.17-5.86-9.1.17-18.21.05-27.32.05-9.11,0-18.21.12-27.32-.05Z"/>
      <path d="M328.62,0v1507.51C117.65,1502.29,0,1415.12,0,1158.22V0h328.62ZM1073.85,1408.8l-423.65-478.79,423.65-478.58h-320.25l-424,478.6,424,478.77h320.25Z"/>
    </symbol>

    <symbol id="oribe" viewBox="0 0 445.8 600.4">
      <path d="M.6,237.8C-7.8,119.3,78.8,16.9,195.8,2c2-.2,5.9-.2,8.9-1,1.6-.4,2.9-.6,4.1-.6,10.4,0,22.9-1.1,33,.6,1.6.3,3.6.5,5.9.8,118.4,11.6,208.2,121.1,197.2,239-10,107.4-92.4,194.2-200.9,203.6C118.2,455.3,9.6,363.2.8,237.8h-.2ZM304.4,90.1c-6.8-25.7,13.2-47,38.3-45.9.3,0,.5-.2.5-.5h0c0-.6-.6-.7-.9-.9-27.5-18-57.6-29.3-90.2-34-.1,0-.3,0-.3.2h0c.7,10.8-.3,21.4-3.1,31.9-.2.7-.5.8-1.1.4-1.8-1.2-2.8-.5-3.9,1.1-3.2,4.8-6.7,9.6-10.3,14.3-.2.2-.5.3-.8,0h0c-4.6-3.8-7.3-8.6-8.2-14.5-.8-5.2.6-12.2,5.9-14.5,5.8-2.5,11.4-6.1,16.7-10.8.2-.2.2-.5,0-.7s-.4-.2-.6,0c-4.7,2.3-9.7,4.5-15,6.6-13.5,5.2-15,23.5-9.9,34.9,6.5,14.7,18.3,13,31.3,17.7,7.5,2.7,8.2,11,10.4,17.5,4,11.6,26,20.8,36.9,23,25.2,5.3,45-14.4,46.2-38.7.5-9.3-4.4-17-13.9-19-21.1-4.5-29,14.2-26.8,31.6,0,.2,0,.3-.2.3h-.3c-.3,0-.5,0-.5-.3h0l-.2.3h0ZM210.6,14.5c-8.6,6.1-16.4,15.1-18.8,25-10.2,41.8,55.2,30.9,49.5,70.5-1.8,12.3-9.4,22.5-11.9,34.3-1.5,7.1-1.5,14.2.2,21.3,6.7,28.1,37.5,41,62.8,46.1,29.2,5.9,65.4,13.1,62.9,52.5,0,.2.1.5.4.5s.5-.1.5-.4c8.6-34.3-21.5-47.6-47.9-54.6-22.7-6-58.5-12.2-65.6-39.8-6.2-24,14-45.3,5.7-69.7-5.9-17.5-24.7-25.2-39.7-34.2-12.9-7.7-15.3-20.6-8.8-33.7,4.5-9,11.3-14.6,19.8-20,.9-.6.9-1-.2-1.1-17.2-2.4-37.9-1-38.1,21.6,0,3.2-.3,9.3,1.2,12.1.5.8.7.7.7-.2.8-17.6,10.7-27.1,27-30.8.2,0,.4,0,.4.3s0,.3-.1.4h0q0,0,0-.1ZM131.2,182.4c-.6,4.6-2.5,8-5.9,10.2-9.7,6.3-21.6,5.7-32.2,1.2-12.3-5.2-20.8-14.5-25.6-27.9-10.2-28.4-1.8-63.3,30.8-71.8.2,0,.4-.3.3-.5,0-.2-.2-.3-.4-.3-11.5-.1-23.1,2.5-31.6,10.6-16.9,16-17.2,36.5-20.2,57.8-.8,5.6-2.9,13.4-9.6,14.5-2.9.5-5.2-.7-7-3.5-.4-.7-.3-.8.4-.4,2.1,1.2,4.4,1.7,6.9,1.4.8,0,1.5-.6,1.8-1.4,3.2-8.2,1.9-18,2-26.7,0-6.7.5-11.9,1.2-15.8,8.2-45.1,48.5-48.3,85.9-51.6,4.5-.4,8.8,0,13.2-.5,8.4-.8,16.5-.8,24.9-2.7,7.1-1.6,11.4-4.8,12.9-11.9.3-1.3-.4-2.3-1.1-3.4-.2-.3-.4-.4-.7-.5-8.6-.9-6.8,7.8-12.6,10.5-9.9,4.7-10.4-8.8-18-6.5-6,1.8-13.8,9.2-20.2,5.9-7.1-3.5-10.8-9-11.2-16.5-.3-6.1,2.7-10.5,8.4-12.2.4,0,.8,0,1.1.3l1.5,1.8c.4.5.3.7-.3.6-.7,0-1.3-.3-1.9-.6-.3,0-.5-.2-.8,0-4.7,2-4.1,5.5-3.9,9.8.3,7.4,6.1,9.1,12.4,7.7,6.7-1.5,9.1-9.3,15.6-10.5.3,0,.6,0,.9,0,5.9,2.8,13.5,7.6,14.8-3.2,1.7-13.3,2.4-22.5,10.7-33,.1,0,0-.4,0-.5h-.3C81,34.8,13.3,114,7.3,209c-.9,14.9-.4,26.8,1.5,44.1,0,1.2.4,2.5.9,4.1.2.5.4.5.6,0,1.2-3,2.1-4.8,2.6-5.5,4.5-6.7,15.5-7.6,21.8-3.5.8.5,1.8.3,2.3-.5,0,0,0-.2,0-.2,7-16.1,25.1-38.1,45.5-31.9,7.5,2.3,11.4,8.4,11.8,18.4,0,2.3-.3,2.4-1.2.3-1-2.3-1.3-5.4-2.9-7.6-11.2-15.2-30.2,1.6-22.8,15.8,8.2,15.7,38.7,17.2,53.4,14.4.3,0,.5-.4.4-.7,0-.2-.2-.4-.4-.4-7.9-3-11.5-8.8-10.9-17.6,1-14.6,20.8-20.5,27.1-5.5,0,.2,0,.3-.2.4h-.3c-3.6-4-14-8.1-14.9.9-.6,5.4,5.1,10.1,9.6,11.6,23.9,8.2,35.1-36.1,37.8-51.1,3.3-18.7,4-37.9.5-56.6,0-.3-.3-.5-.6-.4-.2,0-.4.2-.4.3-4.3,11.2-8.6,22.6-17.9,30.9-5.6,5-12.3-8.9-14.1-12.4-4.2-8.8-8.3-17.7-12.2-26.6-2.3-5.2-13.5-28.2-21.9-21.6-13.2,10.4-20.4,24-21.6,40.5-1.2,16.4,4.7,37.3,21.2,43.9,9.8,3.9,19,1.3,25.7-6.6,1-1.2,2-2.3,3-3.4.2-.2.3-.2.3.1h0v-.2q.1,0,0,0ZM361.6,69.9c2.4-13.7-11.1-20.5-22.7-18.5-.2,0-.4.2-.4.5s.2.3.3.4c10.3,2.4,17.8,8.3,22.4,17.8,0,0,.2,0,.2,0h0c0,0,.2-.2.2-.2ZM126.5,293.6c-18,13.4-44.8,37-31.9,61.3,5.7,10.8,20.3,17,30.4,23,16,9.4,27.2,26.5,41.3,39,1.8,1.6,4,2.4,6.8,2.6.5,0,.5-.1.2-.5-31.7-32.1-41.9-83.4-13.2-121,.1-.2,0-.4,0-.6-.1,0-.3-.1-.4,0-3.1,1.6-6.6,5.9-9.1,8.4-19.1,19-21.7,48.2-14.1,72.9,0,.2,0,.3-.2.4h-.3c-11.8-11.8-37.4-17-38.5-36.5-.4-8.1,4.7-17.3,10.1-23.2,29-31.5,74.2-52.9,109-82.5,29.4-25,5.7-41.2-7.9-63.2-12.5-20.3.9-34.2,13.3-49,9.9-11.8,11.6-26.7-1.9-36.5-11.1-8.1-29.9-11.4-34-25-.1-.3-.5-.5-.8-.4-.3,0-.4.4-.4.6,1.9,16.2,19.1,20.7,30.5,27.6,9.9,6,7.8,13.9,1.8,21.9-7.8,10.3-17.6,19.6-19.8,33.6-3.1,19.4,8.5,33.9,19.8,47.8,4.8,5.9,9.3,15.3,6.8,23-4.7,14.2-26.9,28.7-38.9,36.7-19.6,13-39.5,25.7-58.4,39.8h0l-.2-.2h0ZM356.5,97.7c-12.2-8.6,4.9-25.1,14.8-11.7,11.4,15.5-19,33.6-29.5,38.3-11.1,4.9-23.5,6.8-35.4,4.5-8.1-1.5-14.6-5.4-21.5-9-.4-.2-.6-.1-.4.3.9,3.4,11.8,8.4,16.1,10.3,17.5,7.7,46.5,18.8,49.2,41.1.2,2,.4,4,.4,6.2s.2.5.5.5.4-.2.5-.4c5.4-18.3-8.9-31.4-22.7-40.2-.2-.1-.3-.4-.2-.7,0-.1.2-.2.4-.2,20.9-.9,46.8-12,54.2-33.4,1.3-3.6,1-10.3-.4-13.8-3-8-8.8-12.1-17.3-12.2-6.6,0-12,2.3-14.9,8.3-3.3,6.9.2,12.2,6.9,14.5,1.6.5,2.8,0,4.2-.7.2,0,.3-.4.2-.6,0-.1-.2-.2-.4-.3l-4-.4c-.3,0-.6-.1-.9-.3h.2q0-.1,0-.1ZM138.8,84.6c13.2.3,25.9-.8,39,1.4,7.8,1.3,29.7,6.4,23.6,19.3-3.9,8.3-12.4,16-17,23.7-12.1,20.5-2.9,38,4.7,57.8,8,20.9-3.1,40.8-18.7,54.2-14.9,12.8-40.1,18.5-53.1-.2-.1-.2-.4-.3-.6-.1-.2.1-.3.3-.2.5,5.7,17,26.4,16.8,40.5,14.1,19.4-3.7,39.2-16.6,43.2-37.2,3-15.5-3.3-29.6-10.6-44.1-5.3-10.6-7.5-24.2-3.8-35.6,4.1-12.5,16.2-20.1,21.3-32.8,4-9.9-7.4-17.8-15.5-20.1-16.2-4.7-31.2-4.1-47.8-2.5-2.1.2-3.8.5-5.3.9-1.3.4-1.3.6,0,.6h.3q0,.1,0,.1ZM165.1,91.3c-8.8-1.4-14.3-.2-23.1,0-7.4.3-14.8,1.9-22.3,5.1-.3.1-.5.4-.6.7-1,4.3,2.2,9.9,4.6,13.4,8.8,12.4,17.5,24.2,24.6,37.8,0,.2.3.2.4.1,0,0,.1,0,.1-.1,8.3-15.8,13.6-33.5,17.8-50.8.5-2.1.7-4,.7-5.8s-.2-.6-.7-.5c-.7.2-.9.2-1.6,0h.1ZM365.4,142.1c13.2-7.1,32.2-23.8,31.1-40.8,0-.2-.2-.4-.4-.4s-.4.1-.4.3c-5.2,20.2-22.7,36.1-42.7,42.4-.3,0-.4.4-.4.7,0,0,0,.2.1.2,4.3,4.3,8.8,9.1,13.3,12.5,10.6,8.1,24.8,14.5,38.5,13.7,8.1-.5,16.4-4.6,19.7-12.3,0-.2,0-.4-.2-.4h-.3c-19.1,13.9-45.1.7-58.6-15.3-.1-.2-.1-.4,0-.6h.3ZM402.1,103.4c-1,11.6-5.1,18.9-12.2,27.9-14.1,18,6.2,25.2,19.9,19.9,7.4-2.9,9.7-10.9,4.9-17.3-2.5-3.4-6.2-5.2-11-5.6-.4,0-.6-.4-.6-.7s.2-.5.4-.6c4.8-1.6,10,.7,13.9,3.5.1.1.4,0,.5,0v-.3c-4.3-9.4-9.4-18.3-15.2-26.9,0-.2-.3-.2-.5-.1,0,0-.2.2-.2.3h.1q0-.1,0,0ZM78,172c-3-11.5-4.4-24.6-2-36.3,2.6-12.3,7.5-23,17.2-31.1.3-.2.3-.6,0-.8-.2-.2-.5-.3-.7-.2-26.9,13.6-24.5,45-15.4,68.6,0,.2.3.4.6.3.2,0,.4-.3.3-.6h0ZM307.6,142.8c-11.1-3.2-18.8-10.2-27.6-17.2-.9-.7-2.3-1.5-4-2.3-.3-.2-.5,0-.4.3,1.5,7.5,4,14.6,7.5,21.3.2.3.5.6.8.6,6.7,1.5,17.2-.9,24.1-1.9.2,0,.3-.2.3-.3h0c-.2-.3-.4-.5-.6-.6h-.1q0,.1,0,0ZM323.4,185.3c.6,1.6.8,3.4,1.6,4.8,4,7.1,12.9,4.8,14.3-2.9,2.9-16.2-6.1-41.3-27-36.3-12.7,3.1-24,10.2-34.1,11.8-2,.3-3.4-.2-4.3-2.2-5.1-10.8-8.5-22.8-12.2-34.2-.1-.4-.5-.6-.9-.5-.2,0-.3.2-.4.4-5,8.9-7.6,20.9-6.8,30.7,1.6,18,16.7,26.5,31.8,31.9,17.4,6.2,35.2,11.7,51.8,19.8,44.9,21.7,67.3,61.3,74.9,109.4,0,.2.2.3.5.3s.2-.1.3-.2c3.6-9.3,3.2-21,2.1-31.2-1.1-10-2.3-20-3.5-30-1.7-14.3-3.4-41.2,18.4-40.5,2.7,0,5.7,1.5,7.3,3.4,1.2,1.5,1.8,1.3,1.8-.7-.6-18.9-3.4-37.4-8.4-55.6,0-.3-.4-.4-.6-.4s-.3.2-.3.3c-8.3,22-38.4,17.2-53.8,7.8-2.8-1.7-5.5-3.3-8.4-5-.2,0-.4,0-.5.1v.3c3.7,13.9-7,33.9-21.9,35.9-9.6,1.3-24-5.1-23-16.9,0-.4.4-.7.8-.6.3,0,.5.2.6.4h-.1q0-.1,0,0ZM233.1,189.2c-2.1-2-4.8-4.6-7.6-6.6-.2-.1-.4,0-.5,0-.1.1,0,.3,0,.5,5.4,5.5,10,11.6,13.9,18.4,11.5,19.8-.8,33.5-15.4,45.1-9.5,7.6-20.2,14.8-28.9,22-35.5,29.6-47.6,75.5-29.7,118.7,8.6,20.6,24.9,39.6,46.3,47.3,12.5,4.5,37.7,7.4,37-12.6-.5-14.6-23.7-12.4-18.6,3.8,0,.3.3.4.6.3.2,0,.3-.3.3-.5,0-3,1-5.5,3.1-7.5,6.6-6.2,13.1,8.8,1.1,12.9-17.9,6-37.8-11.4-47.1-24.9-27.6-40.1-20.5-90.9,10.7-126.5,9.6-11,18.7-18.2,28.9-26.7,5.6-4.6,11-9.7,15.1-14.6,14.6-17.8,5.2-36-9.2-49.3h0v.2h0ZM372.7,256.1c0-.2.1-.4.4-.5.2,0,.3,0,.4.2,12,23,17.5,49.2,21,74.6,0,.1.1.2.3.2h.1c.2-.2.3-.3.3-.6,1.3-30.4-4.9-66.4-27.9-88.4-.4-.3-.9-.3-1.2,0-.2.2-.3.5-.2.8,1.6,7.6,2.6,14.3,2.7,22.3.5,21.2-8.4,44.9-26.9,56.6-13.9,8.9-33.1,9.6-46.7-.9-2.7-2.1-4.5-4.8-5.4-8.2,0-.2,0-.3.2-.4h.2c15.3,8.1,33.2,8.3,46.7-3.4,11.2-9.7,18.1-30.3,6.8-42.6-12.1-13.1-31.1-14.2-45.9-23-9.5-5.7-16.9-13.5-22.3-23.7,0-.2-.3-.2-.4-.1,0,0-.1,0-.2.2-.2.5-.2.9,0,1.4,4.7,12.1,12.3,21.4,23,28,15.5,9.6,50.3,11.6,44.5,38.7-4,18.5-20.8,29.6-39.3,25.4-6-1.3-11.7-3.4-17.3-6.2-.2,0-.4,0-.5.2v.2c0,18,12,30.7,29.4,32.9,20,2.5,37.2-4.9,49.8-20,11.8-14.2,15.5-31.2,11.3-50.9-1-4.6-1.9-8.8-2.6-12.8h-.3ZM432.7,235.9c6.5-3.9,6.5-13-1.4-14.5-10.5-2-8.8,13.1-7.8,18.7,1.7,9.6,3.3,19.3,4.7,29,.6,4.1.6,9.8,1.6,14.7.1.6.2.6.4,0,4.6-15.9,7.3-32.1,8.2-48.6,0-.4-.2-.5-.5-.3-1.2.6-3.9,2.4-5.2,1.8-.5-.2-.5-.5,0-.7h0q0-.1,0-.1ZM308,285.1c-5.7-4.8-13.6-8.8-18.4-.3-1.9,3.4-2.4,6.8-1.3,10,1.6,5,6.5,6.5,11.6,7.2,11.9,1.6,27.8-5.1,26-19.4-1.1-9.3-17.9-14.8-25.1-18.3-15.9-7.7-28.2-19.7-36.7-36-.3-.6-.7-.6-1.1-.2l-7.9,7.7c-.3.3-.4.6-.4,1,1,11.5-2.2,19.9-4.9,30.1-1,3.9-.8,7.7-1.2,11.7-1.2,12.7-.5,26-.5,38.8s.7,4.2.8,6.4c1.2,23.6,6.8,59,30,72.2.3.2.6.2,1,.2,7.9-.8,16.2-.5,23.5-1.5,4.3-.6,8.7-1.2,13-1.9.3,0,.5-.3.4-.6,0-.1,0-.2-.2-.3-3.2-2.9-8.2-10.2-7.3-14.9.8-3.9,2.8-8.5,5.9-11.1,8.2-6.8,21.9-4.2,26.6,5.8.4.8.2.9-.5.4-3.4-2.6-6.7-4-9.8-4.1-8.5-.3-10,9.9-4.5,14.5,13.9,11.4,34.6,7.1,44.2-8.1,9.9-15.6,12.2-32.1,7-49.6-.1-.4-.4-.5-.7-.2-1.7,1.3-3.2,3.6-4.3,4.7-2.4,2.4-4.9,4.8-7.3,7.2-12.1,11.7-28,18.5-44.9,17-25.9-2.2-49-23.7-46-51.7.9-7.9,4.4-16.6,10.5-21.8,8-6.7,18.3-4.4,22.5,4.7.3.6.2.7-.4.3h.4q0,.1,0,0ZM60.1,320.4c0,.3-.2.6-.5.6s-.5-.1-.6-.4c-6.3-20.9-8.8-41.9-1.4-63.5,0-.3.3-.3.5-.1,11.5,11,24.4,13.6,40.7,15,4.8.4,9.1.6,12.8.5,17.3-.5,34.9-4.2,51-10.7.2,0,.3-.3.2-.5,0-.1-.1-.2-.3-.2-.4,0-.9,0-1.4.1-17.2,5.1-34.8,7.2-52.7,6.5-15.8-.6-36.5-5.4-46.9-18.2-5.1-6.3-6.2-13.3-3.1-20.8,0-.2,0-.4-.2-.5-.2,0-.3,0-.4.1-28.5,43.4-21.2,91.8,11.9,130.4,11.8,13.7,25.5,20.2,40.9,28.5,8.6,4.6,15.8,11.7,22.5,18.5,5.1,5.2,9.7,9.1,15,13.3,3,2.4,12.5,8.2,16.4,6.8.4-.1.4-.3,0-.4-19.6-8-30.6-30.1-47.1-41.4-10.8-7.3-29.1-14.5-38.6-28.3-7.2-10.5-10.7-22-10.6-34.5,0-11.6,4.1-31.6,15.8-35.9,15.2-5.5,22,15,8.7,19.5-4.9,1.6-9.5-1.1-12.8-4.7,0-.1-.3-.1-.4,0,0,0,0,.2,0,.3,4.3,11.1,17.7,10.5,23.6,1.4,4-6.1,2.4-14.9-2.6-19.8-2.8-2.8-6.7-4.5-11.4-5.1-22.7-3.1-30.8,26.6-28.9,43.3h0v.2q0,0-.1,0ZM20,271.7c-3.2-.5-5.8-1.9-7.8-4.3-.2-.2-.4-.2-.6,0s-.2.3,0,.4c7.7,35.4,23.2,66.9,46.5,94.5,1,1.2,7.4,9.3,8.2,9.3s.4-.2.4-.5,0-.2,0-.3c-22-25.8-36.8-58.7-37.5-92.6,0-5.4-.7-19.1-6.7-21-3.8-1.2-7.6,1.6-7.5,5.6,0,3.5,2.9,6.2,5.6,8.1.2.1.2.4,0,.6,0,.1-.2.2-.4.2h0ZM235.7,375.8c4.3-12.8,5-25.7,2.1-38.7-2.8-12.7-9.8-23.5-11.8-36.6-2.1-14,5.2-26.2,6.3-39.6,0-.3-.2-.6-.5-.6s-.3,0-.4.2c-18.4,19.1-39.1,43-44.3,69.8-8,42.1,33.4,59.1,66.5,63.9.1,0,.2,0,.2-.2h0c-3.6-6.1-7.4-10.5-15.3-11.1-.4,0-.7-.2-.9-.4-1.9-1.8-2.8-3.8-1.9-6.6h0q0-.1,0,0ZM336.1,396.9c1.2.2,1.2.6.3,1.3-19,12.9-39.8,22.1-62.2,27.5-.4.1-.6,0-.6-.5,0-3.6,0-7.1-1-10.5-3.5-10.8-10.9-16.6-22.3-17.5-12.9-1-32.4,7.8-25.8,23.9.1.3.4.6.8.7s.5,0,.4-.4c-3.4-13.6,12.2-21.5,23.5-18.3,13.8,3.8,19.9,16.2,14.9,29.8-.1.3,0,.6.3.7h.3c30.7-4.7,61.1-19,85.6-37.5.2-.2.3-.4.1-.7,0-.1-.2-.2-.4-.2-13.1-.5-27.5-5.9-32.7-19-.6-1.4-.8-2.9-.7-4.5,0-.2,0-.3-.2-.4h-.2c-.2-.3-.4-.2-.5,0-4.9,12.4,10.1,24,20.5,25.6h-.1,0ZM125.5,600.4h-10.2c-24.7-2.2-43.1-24.1-42.4-48.3.6-24.4,19.9-43.7,44.3-46.2,41.1-4.2,68.9,43.4,42.4,76.3-8.7,10.9-19.9,16.6-34,18.2h-.1,0ZM81,561c1.2,19.2,13.5,34.2,33.5,34.7,25.2.5,43.7-19.5,46.9-43.5,3-21.7-12.6-41.7-35.2-41.5-25.9.3-46.8,25-45.3,50.3,0,0,0,0,0,0ZM291.1,547.8c-.1,0-.2.2-.2.4,0,0,.1.2.2.2,16.9,2.3,29.5,17.6,19.3,34.3-9.9,16.2-36.5,15.3-52.5,14.6-.3,0-.5-.3-.5-.6v-.2c1.1-1.9,1.7-3.6,1.7-5.9v-74.7c0-1.9-.9-3.2-1.3-5,0-.4,0-.5.4-.5,12.9,0,42.2-3.8,47.4,13.5.6,1.9.6,4.5.2,7.8-1.1,7.9-7.8,13.5-14.9,16.2h.2q0,0,0,0ZM268.5,546.2c10.4,2.3,24.1-1.3,27.9-12,2.1-5.8,1.4-10.6-2.1-14.3-6-6.4-17.5-6.3-25.7-4-.4,0-.5.3-.5.7v29c0,.3.1.5.5.6h-.1,0ZM268.3,588.3c1.6,2.2,4.9,4.1,7.5,4.4,13.6,1.3,26-4.2,28.3-18.8,2.3-14-5.6-19-17.4-22.2-4.9-1.3-9.4-.8-14.1-1.5-1.4-.2-2.7,0-4,.4-.4,0-.5.4-.5.8v36.1c0,.3,0,.6.3.9h-.1q0,0,0-.1ZM328.3,550.6v32.3c0,7.2,2.8,10.2,10,10.2h20.9c5.6,0,9.1-1.1,13.1-4.5.2-.2.5,0,.6,0,0,0,.1.3,0,.4l-2.5,7.8c0,.3-.3.5-.7.5h-51.4c-.5,0-.6-.2-.4-.7,1.5-3.5,2.2-6.1,2.2-7.8v-70.4c0-2.6-.7-4.8-1.5-7.2-.1-.4,0-.6.3-.8,1.5-.8,3.4,0,4.5,0,13,0,26,0,39,.2.4,0,.7.2.7.7v5.5c0,.3-.1.4-.4.3-8.8-2.7-23.9-4.7-33.5-1.2-.3,0-.5.4-.6.7-1.5,8.8-.6,19.8-.5,28.9,0,.4.2.5.6.5h22.6c2.1,0,3.1-.8,4.8-1.9.5-.3.7-.2.7.4v7c0,.6-.2.7-.7.4l-2.4-1.7c-.3-.2-.6-.3-1-.3h-24c-.3,0-.5.3-.5.6h.1q0,0,0,0ZM184.1,515c-.3,0-.5.3-.5.6v74.1c0,2.5-.1,4.3.8,6.8.1.3,0,.7-.4.8h-9.9c-.4,0-.5-.2-.4-.6l1.3-2.8c.2-.3.2-.7.2-1v-77.7c0-.3,0-.5-.2-.8l-1.2-3.3c-.2-.5,0-.7.5-.7,8.7-.2,17.4-.2,26.1,0,28.3.5,28.7,33.9,1.5,38.7-.3,0-.5.4-.5.7v.2l31.9,45.8c.3.4.2,1-.2,1.3-.2,0-.4.2-.6.2h-9.8c-.5,0-.9-.3-1-.8-.6-2.9-1.7-5.6-3.4-8.2-8-12.2-16.3-24.4-24.7-36.4-1-1.4-1.8-2.8-2.6-4.3-.2-.4,0-.6.3-.6,11.2-.6,25.4-6.4,21.7-20.6-3.1-12.3-19.4-13.6-29.3-11.5h.4q0,0,0,0ZM235.3,597.4c-.2,0-.4-.2-.4-.4v-.2l1.4-2.3c.2-.3.3-.6.3-.9v-77.4c0-1.9-.7-3.3-1.2-5.2,0-.4,0-.6.4-.6h9.8c.5,0,.6.2.5.7-.7,3-1.3,5.6-1.3,8.6-.1,24.1,0,48.2.1,72.3,0,1.9.8,3.1,1.6,4.7s0,.6-.4.6h-11,.2Z"/>
    </symbol>

    <symbol id="voce" viewBox="0 0 1192.3 409.2">
      <path d="M77.3,7.2c18.2,0,36.4,0,54.6,0,4,0,17.5-2.6,20.8.4,8.2,7.4-4.8,8.2-8.8,8.3-9,.3-18.1,0-27.2,0s-15.5-1.9-18,1.2c-3.4,4.1,10.1,32.3,11.7,37.1,19.7,60.1,42.2,119.2,62.7,179.1,4.9,14.4,10.1,28.6,15.4,42.8,2,5.5,10.2,40.5,17.2,35.6,3.9-2.7,5.6-18.1,6.9-22.7,2.3-7.8,4.5-15.6,7-23.4,5.7-17.5,11.3-34.9,17-52.4,10.7-32.7,19.8-65.9,31-98.4,5.6-16.2,9.6-32.9,14.9-49.2,2.6-8.1,5-16.4,7.7-24.5,1.5-4.5,9.8-19.5,7.2-23.6-3.4-5.4-33.2-1.8-39-1.7-3.6,0-15.3,2.3-17.8-1.2-4.2-6.1,1.4-6.4,5-7.6,7.4-2.4,19.4,0,27.4,0,9.1,0,18.2,0,27.4,0,9.1,0,18.2,0,27.4,0,3.2,0,19.6-2.7,22,1,8.3,12.4-28.8,6.7-33.4,7.9-12.4,3.2-13.8,26-17.3,36.4-10.7,31.5-19.8,63.5-30.1,95.2-21.1,64.8-41.4,129.8-62,194.7-4.5,14.3-8.1,28.8-13.2,42.9-2.3,6.5-7.1,33.5-19,20.5-4-4.5-5.8-15.5-7.8-21.4-3-8.3-5.8-16.8-8.5-25.2-6.1-18.6-13.2-36.9-19.5-55.4-25-73.8-51.5-147.1-77.6-220.5-6.7-18.9-12-38.9-20.5-57.1-5.4-11.5-11.5-10.1-23.6-10.2-4.5,0-16.9,3-17.4-3.9-.6-6.9,9.1-4.8,13.1-4.8,21.4,0,42.8,0,64.2,0h0ZM759.1,13.7c34.5-8.1,71.8.1,99.5,22,12.8,10.2,23.2,22.5,30.9,37,3,5.7,11.3,39.4,18.9,33.8,2.5-1.8.3-22.5.3-25.5,0-8.8,0-17.6,0-26.5s0-17.6,0-26.5c0-3.9,2.4-17.7-.2-20-9.7-8.6-18.7,23.2-25.3,25.3-5.5,1.8-14.8-7.2-18.9-9.8-6.7-4.3-13.6-8.4-20.8-11.8-28.7-13.4-56.7-14.9-87-7.3-32.8,8.2-59.7,21.9-83.4,46.6-86.9,91-78.7,274.6,39,338.2,14.5,7.8,30.4,13.3,46.6,16.1,16.5,2.8,28.8,3.2,45.3.5,15.7-2.6,29.6-6.3,44.1-13.3,6.9-3.3,13.6-7.2,20.1-11.3,3.3-2,9.4-8.2,14-7.4,6.1,1.1,19.5,37.6,26.5,24.8,2.9-5.3,0-20.1,0-26.2v-58.3c0-4,2.4-18.2-2.2-20.5-6-3-18.2,32-20.2,36-27.7,54.3-93,86.8-150.8,56.9-66.4-34.4-54-121.7-54-184.4-1.2-67.6-6.3-168.9,77.4-188.4h0ZM995.6,385c0,10.1-1.1,11.1-11.2,11.2-8.5,0-17,0-25.5,0-1.9,0-4,.2-3.8,2.8.1,2.2,2,2.3,3.7,2.4,1.3,0,2.7,0,4,0,72.3,0,144.6,0,216.9.2,2.7,0,4.2-.8,4.4-3.4.3-7.2,2.9-14.2,2.9-21.2.2-22,5.2-43.6,5.1-65.6,0-1.7.5-3.7-1.8-4-1.9-.3-3.1,1.4-3.4,3-1.6,8.2-5,16-7.3,24-3.6,12.2-9.1,23.2-15.4,34-6,10.4-13.8,19.4-25.1,22.9-10.2,3.1-21.2,4.2-32,4.6-21.1.7-42.3.1-63.5.3-4.4,0-6.6-1.6-6.7-6,0-2.2-.2-4.3-.2-6.5,0-41.2,0-82.3,0-123.5s0-12.5,12.8-13.1c12.1-.5,24.1.3,35.3,4.5,16.3,6.2,23,19.9,24.6,36.5.5,5.5.1,11,.2,16.5,0,1.7-.5,4.1,2.2,4.2,3.1.2,2.6-2.4,2.6-4.3,0-38.8,0-77.6,0-116.5,0-1.9.5-4.6-2.4-4.6s-2.3,2.7-2.4,4.6c-.4,9.7.6,19.4-3.6,28.9-4.7,10.6-11.9,18.4-22.7,21-12.3,3.1-25.1,4.8-38,4.3-6.4-.2-8.6-2.5-8.6-8.5,0-42.6,0-85.3,0-128,0-5.7,2.4-7.9,8.2-7.8,15.3.3,30.7-.4,46,.2,14.8.6,29.4,2,43.4,8.5,18.3,8.5,26.7,24.2,33.4,41.5,2.7,6.9,4.2,14.1,6.4,21.2.6,1.8.7,4.6,3.4,4.2,3.1-.4,2.2-3.3,2.1-5.3,0-10.1-3.1-20-3.1-30.1.1-14.1-.6-28.2-3.1-42.2-.6-3.6-1.8-4.8-5.4-4.8-69.3,0-138.6,0-207.9,0-2.5,0-5.5-.4-5.3,3.4.1,3.6,2.9,3.5,5.5,3.4,8,0,16,0,24,0,9.9,0,11.1,1.2,11.1,11.3v137.5c0,46,0,92,0,138h0ZM505.2,169.9c-51-10.1-102.2,12.3-126.9,58.6-23.4,44-17.6,99.8,13.8,138.3,30.8,37.8,88.6,53.1,132.7,31.3,40.9-20.2,72.1-61.8,68.5-109.2,2.9-53.6-34.2-108.4-88.2-119h0ZM533.3,367.6c-9.7,21.8-34.4,30.2-56.7,29.2-20.3-.9-39.4-7.2-50.3-25.4-12.5-20.8-8.9-55.5-8.9-78.9,0-25.8-3.1-55.8,4.9-80.7,6.6-20.4,27.5-31.5,47.8-34.2,22-2.9,49.9,5.5,61.3,25.8,13.4,23.9,8.8,56,9.2,82.2,0,26.3,3.6,57.1-7.4,81.9h0ZM1041.8,54.2c10.4-3.9,24.6-11,35.5-11.9,10.8-.9,27.2,7.8,37.7,11.4,8.6,2.9,27.3,14,36,9-12.9-9-25.9-18-38.6-27.2-6.2-4.5-12.4-9-18.6-13.5-3.8-2.8-11-10.4-15.9-10-4.6.4-12.8,8.6-16.7,11.4-7,5-14,10-21,15-11.6,8.3-23.1,16.6-34.6,25,11.1,1.4,25.9-5.3,36.2-9.2h0Z"/>
    </symbol>

    <symbol id="st-number" viewBox="0 0 350.1 350.1">
      <path d="M175.05,0C78.37,0,0,78.37,0,175.05s78.37,175.05,175.05,175.05,175.05-78.37,175.05-175.05S271.73,0,175.05,0ZM162.79,226.95c-12.09,12.46-27.71,17.48-55.05,17.48-19.16,0-33.1-2.98-42.4-8.93-8.74-5.76-13.02-12.46-13.02-20.27,0-10.6,8.37-18.23,19.9-18.23,10.79,0,18.22,6.7,18.22,16.18,0,8.93-6.88,14.69-17.67,14.69-3.35,0-5.58-.37-9.3-1.67,9.67,8.18,20.64,12.09,34.22,12.09,14.32,0,24.36-4.09,30.68-12.46,4.46-6.14,6.88-13.39,6.88-21.01,0-19.9-14.32-33.29-35.33-33.29-10.97,0-22.87,3.53-29.01,8.55-2.6,2.05-4.65,4.65-7.62,9.3l-6.32-1.3c3.72-11.16,6.14-31.06,6.14-50.77,0-8-.37-12.65-1.67-19.34l4.09-1.12c3.91,2.98,7.44,3.72,23.62,5.58q7.44.74,45.38,2.98c8.37.56,17.3-3.35,26.22-11.16h3.91c-1.12,8.55-4.65,15.25-11.34,21.01-9.86,8.18-24.55,11.72-49.47,11.72-11.34,0-22.69-.56-36.08-2.05-.19,1.49-.19,2.6-.19,2.79l-.93,12.27c.19.19-1.12,10.23-2.42,19.34,10.41-10.23,23.06-14.13,44.82-14.13,38.5,0,64.9,14.69,64.9,36.26,0,8.37-4.46,18.41-11.16,25.48ZM290.36,226.95c-12.09,12.46-27.71,17.48-55.05,17.48-19.15,0-33.1-2.98-42.4-8.93-8.74-5.76-13.02-12.46-13.02-20.27,0-10.6,8.37-18.23,19.9-18.23,10.79,0,18.23,6.7,18.23,16.18,0,8.93-6.88,14.69-17.67,14.69-3.35,0-5.58-.37-9.3-1.67,9.67,8.18,20.64,12.09,34.22,12.09,14.32,0,24.36-4.09,30.68-12.46,4.46-6.14,6.88-13.39,6.88-21.01,0-19.9-14.32-33.29-35.33-33.29-10.97,0-22.87,3.53-29.01,8.55-2.6,2.05-4.65,4.65-7.63,9.3l-6.32-1.3c3.72-11.16,6.14-31.06,6.14-50.77,0-8-.37-12.65-1.67-19.34l4.09-1.12c3.91,2.98,7.44,3.72,23.62,5.58q7.44.74,45.38,2.98c8.37.56,17.29-3.35,26.22-11.16h3.91c-1.12,8.55-4.65,15.25-11.34,21.01-9.86,8.18-24.55,11.72-49.47,11.72-11.34,0-22.69-.56-36.08-2.05-.19,1.49-.19,2.6-.19,2.79l-.93,12.27c.19.19-1.12,10.23-2.42,19.34,10.41-10.23,23.06-14.13,44.82-14.13,38.5,0,64.9,14.69,64.9,36.26,0,8.37-4.46,18.41-11.16,25.48Z"/>
    </symbol>
  </defs>
</svg>
