<?xml version="1.0" encoding="utf-8"?>
<!-- Generator: Adobe Illustrator 27.1.1, SVG Export Plug-In . SVG Version: 6.00 Build 0)  -->
<svg version="1.1" id="Layer_1" xmlns="http://www.w3.org/2000/svg" xmlns:xlink="http://www.w3.org/1999/xlink" x="0px" y="0px"
	 viewBox="0 0 308.17 578.94" style="enable-background:new 0 0 308.17 578.94;" xml:space="preserve">
<style type="text/css">
	.st0{fill:#100F12;}
</style>
<path class="st0" d="M0,0v578.94h308.17V0H0z M301.39,572.17H6.77V6.77h294.62V572.17z"/>
<path class="st0" d="M145.12,424.1h-2.14v-14.2h2.34c3.35,0,9.31,0.6,9.31,6.9C154.64,423.9,147,424.1,145.12,424.1z M92.66,431.07
	h13.53l-6.63-15.14L92.66,431.07z M64.79,363.7c3.08-2.34,6.1-6.63,6.1-12.73c0-5.9-2.81-10.52-6.03-12.86
	c-3.89-2.81-8.64-3.08-11.93-3.08h-2.95v31.83h2.95C56.28,366.85,60.91,366.58,64.79,363.7z M64.86,488.11
	c-3.89-2.81-8.64-3.08-11.93-3.08h-2.95v31.83h2.95c3.35,0,7.97-0.27,11.86-3.15c3.08-2.34,6.1-6.63,6.1-12.73
	C70.89,495.08,68.08,490.45,64.86,488.11z M251.25,341.79c0-6.3-5.96-6.9-9.31-6.9h-2.34v14.2h2.14
	C243.61,349.1,251.25,348.9,251.25,341.79z M289.12,301.88v257.77H19.05V301.88H289.12z M157.99,328.6l19.83,47.57l19.83-47.57
	h-7.37l-12.46,31.16l-12.46-31.16H157.99z M114.44,373.28h6.83v-31.22l32.43,33.97V328.6h-6.83v30.95l-32.43-33.97V373.28z
	 M123.95,403.6v44.69h6.83V403.6H123.95z M82.28,373.28h24.66v-6.43H89.11v-14.07h17.29v-6.43H89.11v-11.32h17.82v-6.43H82.28
	V373.28z M43.15,373.28h9.25c6.23,0,11.12-0.6,16.35-4.29c5.9-4.15,8.98-10.59,8.98-18.02s-3.15-13.94-8.58-18.02
	c-4.96-3.68-10.39-4.35-16.62-4.35h-9.38V373.28z M43.15,448.28h6.83v-20.57h19.16v20.57h6.83V403.6h-6.83v17.69H49.99V403.6h-6.83
	V448.28z M77.72,500.97c0-7.44-3.15-13.94-8.58-18.02c-4.96-3.68-10.39-4.35-16.62-4.35h-9.38v44.69h9.25
	c6.23,0,11.12-0.6,16.35-4.29C74.64,514.84,77.72,508.41,77.72,500.97z M106.94,478.6H82.28v44.69h24.66v-6.43H89.11v-14.07h17.29
	v-6.43H89.11v-11.32h17.82V478.6z M108.95,437.5l4.69,10.79h7.37l-21.17-47.3l-22.24,47.3h7.37l4.89-10.79H108.95z M139.1,509.82
	c0-5.09-2.28-9.78-10.52-13.13l-4.49-1.81c-4.35-1.74-4.82-4.09-4.82-5.43c0-2.88,2.14-5.36,6.3-5.36c1.94,0,3.42,0.47,4.82,1.61
	c1,0.87,1.61,1.81,2.01,2.81l5.49-3.22c-0.94-1.88-2.21-3.42-3.42-4.49c-1.41-1.21-4.15-3.02-8.98-3.02
	c-8.38,0-13.07,5.76-13.07,11.79c0,6.7,5.43,9.78,9.11,11.32l4.29,1.81c2.95,1.21,6.43,3.08,6.43,7.64c0,4.49-3.22,7.5-7.37,7.5
	c-2.68,0-4.56-1.07-5.83-2.68c-1.07-1.41-1.88-3.48-1.88-5.7l-6.77,1.47c0.27,3.08,1.34,6.03,3.75,8.71
	c2.28,2.55,5.36,4.49,10.52,4.49C133.07,524.16,139.1,518.33,139.1,509.82z M144.19,429.99l12.8,18.29h8.24l-13.94-19.1
	c5.96-1.34,9.92-6.03,9.92-12.46c0-1.94-0.4-7.24-5.29-10.52c-2.88-1.94-6.37-2.61-11.79-2.61h-7.97v44.69h6.83v-18.29H144.19z
	 M151.82,478.6h-6.83v44.69h6.83V478.6z M200.07,500.04h-18.43v6.3h11.12c-0.27,2.55-1.27,5.16-3.75,7.57
	c-2.88,2.81-6.1,3.95-9.98,3.95c-4.29,0-8.11-1.21-11.19-4.49c-2.95-3.15-4.62-7.64-4.62-12.13c0-4.82,1.81-9.58,4.76-12.53
	c2.21-2.21,5.96-4.62,11.79-4.62c2.75,0,5.43,0.47,7.91,1.94c2.14,1.21,4.15,3.22,5.49,5.09l5.43-3.82
	c-1.27-2.01-3.55-4.62-7.24-6.7c-3.48-1.94-7.64-2.81-11.66-2.81c-6.9,0-13,2.81-16.82,6.7c-3.68,3.69-6.5,9.72-6.5,16.68
	c0,6.43,2.28,12.4,6.63,16.88c4.09,4.22,8.71,6.1,15.21,6.1c5.09,0,10.59-1.21,15.21-5.7c4.36-4.22,6.63-10.45,6.63-18.09V500.04z
	 M201.94,373.28h24.66v-6.43h-17.82v-14.07h17.29v-6.43h-17.29v-11.32h17.82v-6.43h-24.66V373.28z M243.88,478.6h-6.83v30.95
	l-32.43-33.97v47.71h6.83v-31.22l32.43,33.97V478.6z M261.84,373.28l-13.94-19.1c5.96-1.34,9.92-6.03,9.92-12.46
	c0-1.94-0.4-7.24-5.29-10.52c-2.88-1.94-6.37-2.61-11.79-2.61h-7.97v44.69h6.83v-18.29h1.21l12.8,18.29H261.84z"/>
<path class="st0" d="M203.47,158.92v-39.67c46.98,0,85.06,38.08,85.06,85.06v0v69.41l-39.75,15.65V204.3
	c0-24.98-20.33-45.31-45.31-45.31V158.92z M19.05,204.3c0-46.98,38.08-85.06,85.06-85.06v-0.05h31v39.72h-31v0.08
	c-24.98,0-45.31,20.33-45.31,45.31c0,24.98,20.33,45.31,45.31,45.31c24.98,0,45.31-20.33,45.31-45.31v-71.99V34.99l39.75-15.65
	V204.3v0c0,46.98-38.08,85.06-85.06,85.06S19.05,251.28,19.05,204.3L19.05,204.3z"/>
</svg>
