<?xml version="1.0" encoding="utf-8"?>
<svg xmlns="http://www.w3.org/2000/svg">
  <defs>

    <symbol id="dhd-logo-header" viewBox="0 0 1327.21 268.73">
      <rect x="5" y="5" style="fill:transparent" width="1317.2" height="258.7"/>
      <path d="M0,268.7h1327.2V0H0V268.7z M147.4,127.9L147.4,127.9v-27.3c32.2,0,58.4,26.1,58.4,58.3v47.6l-27.3,10.7V159
			C178.5,141.9,164.6,127.9,147.4,127.9L147.4,127.9z M79.2,190.1c17.1,0,31.1-13.9,31.1-31.1v-49.4V42.9l27.3-10.7V159
			c0,32.2-26.1,58.3-58.3,58.3c-32.2,0-58.3-26.1-58.3-58.4s26.1-58.3,58.3-58.3v0h21.3v27.2H79.2v0.1c-17.1,0-31.1,13.9-31.1,31.1
			C48.2,176.2,62.1,190.1,79.2,190.1L79.2,190.1z M1305.8,20.9v227H227v-227H1305.8z"/>
      <path d="M301.2,102c10.2,0,19.1,1.1,27.3,7.2c8.9,6.7,14.1,17.4,14.1,29.6s-5.1,22.8-14.7,29.6c-8.6,6.1-16.6,7-26.8,7h-15.2V102
			C285.8,102,301.2,102,301.2,102z M297,164.8h4.8c5.5,0,13.1-0.4,19.5-5.2c5.1-3.9,10-10.9,10-20.9s-4.6-17.3-9.9-21.1
			c-6.4-4.6-14.2-5.1-19.6-5.1H297L297,164.8L297,164.8z M390.5,112.6h-29.3v18.6h28.4v10.6h-28.4v23.1h29.3v10.6h-40.5V102h40.5
			C390.5,102,390.5,112.6,390.5,112.6z M402.9,175.4V97.1l53.2,55.8V102h11.2v77.9l-53.2-55.8v51.3L402.9,175.4L402.9,175.4z
			 M486.5,102l20.5,51.2l20.5-51.2h12.1l-32.6,78.1L474.4,102H486.5L486.5,102z M587,112.6h-29.3v18.6h28.4v10.6h-28.4v23.1H587v10.6
			h-40.5V102H587V112.6z M610.2,102c8.9,0,14.6,1.1,19.4,4.3c8,5.4,8.7,14.1,8.7,17.3c0,10.6-6.5,18.3-16.3,20.5l22.9,31.4h-13.5
			l-21-30h-2v30h-11.2V102H610.2z M608.3,135.7h3.5c3.1,0,15.6-0.3,15.6-12c0-10.3-9.8-11.3-15.3-11.3h-3.8L608.3,135.7L608.3,135.7z
			 M692.7,131.1h31.5v-29h11.2v73.4h-11.2v-33.8h-31.5v33.8h-11.2V102h11.2V131.1z M789.5,157.7h-31.3l-8,17.7H738l36.5-77.7
			l34.8,77.7h-12.1L789.5,157.7L789.5,157.7z M785,147.1l-10.9-24.9l-11.3,24.9H785L785,147.1z M825.4,102v73.4h-11.2V102H825.4z
			 M847.3,102c8.9,0,14.6,1.1,19.4,4.3c8,5.4,8.7,14.1,8.7,17.3c0,10.6-6.5,18.3-16.3,20.5l22.9,31.4h-13.5l-21-30h-2v30h-11.2V102
			H847.3z M845.4,135.7h3.5c3.1,0,15.6-0.3,15.6-12c0-10.3-9.8-11.3-15.3-11.3h-3.8L845.4,135.7L845.4,135.7z M933.9,102
			c10.2,0,19.1,1.1,27.3,7.2c8.9,6.7,14.1,17.4,14.1,29.6s-5.1,22.8-14.7,29.6c-8.6,6.1-16.6,7-26.8,7h-15.2V102L933.9,102L933.9,102z
			 M929.8,164.8h4.8c5.5,0,13.1-0.4,19.5-5.2c5.1-3.9,10-10.9,10-20.9s-4.6-17.3-9.9-21.1c-6.4-4.6-14.2-5.1-19.6-5.1h-4.8
			L929.8,164.8L929.8,164.8z M1023.3,112.6H994v18.6h28.4v10.6H994v23.1h29.3v10.6h-40.5V102h40.5
			C1023.3,102,1023.3,112.6,1023.3,112.6z M1065.1,118.3c-0.7-1.7-1.7-3.2-3.3-4.6c-2.3-1.9-4.7-2.6-7.9-2.6c-6.8,0-10.3,4.1-10.3,8.8
			c0,2.2,0.8,6.1,7.9,8.9l7.4,3c13.5,5.5,17.3,13.2,17.3,21.6c0,14-9.9,23.5-23.7,23.5c-8.5,0-13.5-3.2-17.3-7.4
			c-4-4.4-5.7-9.2-6.2-14.3l11.1-2.4c0,3.6,1.3,7,3.1,9.4c2.1,2.6,5.2,4.4,9.6,4.4c6.8,0,12.1-4.9,12.1-12.3s-5.7-10.6-10.6-12.5l-7-3
			c-6.1-2.5-15-7.6-15-18.6c0-9.9,7.7-19.4,21.4-19.4c7.9,0,12.4,3,14.7,4.9c2,1.8,4.1,4.3,5.6,7.4L1065.1,118.3L1065.1,118.3z
			 M1097,102v73.4h-11.2V102C1085.7,102,1097,102,1097,102z M1145.9,137.2h30.2v0.6c0,12.5-3.7,22.8-10.9,29.7
			c-7.6,7.4-16.6,9.4-25,9.4c-10.7,0-18.3-3.1-25-10c-7.2-7.4-10.9-17.2-10.9-27.7c0-11.4,4.6-21.3,10.7-27.4c6.3-6.4,16.3-11,27.6-11
			c6.6,0,13.4,1.4,19.1,4.6c6.1,3.4,9.8,7.7,11.9,11l-8.9,6.3c-2.2-3.1-5.5-6.4-9-8.4c-4.1-2.4-8.5-3.2-13-3.2c-9.6,0-15.7,4-19.4,7.6
			c-4.8,4.8-7.8,12.6-7.8,20.6c0,7.4,2.8,14.7,7.6,19.9c5.1,5.4,11.3,7.4,18.4,7.4c6.4,0,11.7-1.9,16.4-6.5c4.1-4,5.7-8.2,6.2-12.4
			h-18.3V137.2z M1183.6,175.4V97.1l53.2,55.8V102h11.2v77.9l-53.2-55.8v51.3L1183.6,175.4L1183.6,175.4z"/>
    </symbol>

    <symbol id="dhd-logo-home-reverse" viewBox="0 0 700.44 1341.51">
      <path d="M0,1341.51h700.44V0H0v1341.51ZM467.75,360.94v-94.5c111.46,0,201.82,90.36,201.82,201.82v164.75s-94.97,37.4-94.97,37.4v-202.45c0-58.91-47.93-106.84-106.85-106.84v-.18ZM30.87,468.33c0-111.46,90.36-201.82,201.82-201.82v-.58h73.61v94.97h-73.61v.18c-60.57,0-109.52,51.01-106.73,112.6,2.44,53.78,44.84,98.2,98.52,102.26,62.6,4.73,115.05-45.22,115.05-107.27V65.71l94.97-37.4v437.35c0,111.36-89.07,203.73-200.43,204.49-112.1.76-203.22-89.89-203.22-201.82ZM671.94,1313.02H30.87v-612.58h641.08v612.58ZM110.28,762.17c14.9,0,27.87,1.6,39.73,10.41,12.98,9.77,20.5,25.31,20.5,43.09s-7.37,33.16-21.46,43.09c-12.49,8.81-24.19,10.25-39.09,10.25h-22.11v-106.85h22.43ZM104.47,854.77h7.04c8,0,19.03-.64,28.31-7.52,7.36-5.6,14.56-15.84,14.56-30.39s-6.72-25.11-14.4-30.71c-9.28-6.72-20.63-7.36-28.47-7.36h-7.04v75.98ZM239.81,778.79h-42.74v26.12h40.36v16.62h-40.36v33.24h42.74v14.25h-59.36v-104.47h59.36v14.25ZM256.43,869.02v-114.06l75.98,81.22v-74.01h16.62v113.41l-75.98-81.22v74.65h-16.62ZM377.22,764.54l29.59,73.97,29.59-73.97h17.5l-47.09,112.95-47.09-112.95h17.5ZM522.36,778.79h-42.74v26.12h40.36v16.62h-40.36v33.24h42.74v14.25h-59.36v-104.47h59.36v14.25ZM556,762.17c13.2,0,21.67,1.6,28.68,6.24,11.89,7.85,12.87,20.51,12.87,25.15,0,15.38-9.62,26.59-24.12,29.8l33.89,45.65h-21.38l-29.9-42.74h-2.82v42.74h-16.62v-106.85h19.39ZM553.23,812.03h5.02c4.39,0,22.27-.47,22.27-17.09,0-14.74-13.95-16.15-21.79-16.15h-5.49v33.24ZM104.47,982.98h45.11v-42.74h16.62v106.85h-16.62v-49.86h-45.11v49.86h-16.62v-106.85h16.62v42.74ZM243.73,1020.97h-46.23l-11.84,26.12h-17.84l53.86-114.53,51.26,114.53h-17.85l-11.36-26.12ZM236.76,1006.73l-15.75-35.95-16.39,35.95h32.13ZM294.42,1047.09h-16.62v-106.85h16.62v106.85ZM328.06,940.25c13.2,0,21.67,1.6,28.68,6.24,11.9,7.85,12.87,20.51,12.87,25.15,0,15.38-9.61,26.59-24.12,29.8l33.9,45.65h-21.38l-29.9-42.74h-2.82v42.74h-16.62v-106.85h19.39ZM322.91,990.11h5.02c4.39,0,22.27-.47,22.27-17.09,0-14.74-13.95-16.15-21.79-16.15h-5.49v33.24ZM110.28,1118.32c14.9,0,27.87,1.6,39.73,10.41,12.98,9.77,20.5,25.31,20.5,43.09s-7.37,33.16-21.46,43.09c-12.49,8.81-24.19,10.25-39.09,10.25h-22.11v-106.85h22.43ZM104.47,1210.92h7.04c8,0,19.03-.64,28.31-7.52,7.36-5.6,14.56-15.84,14.56-30.39s-6.72-25.11-14.4-30.71c-9.28-6.72-20.63-7.36-28.47-7.36h-7.04v75.98ZM239.81,1134.94h-42.74v26.12h40.36v16.62h-40.36v33.24h42.74v14.25h-59.36v-104.47h59.36v14.25ZM298.96,1143.15c-.95-2.39-2.39-4.61-4.77-6.68-3.34-2.7-6.84-3.82-11.45-3.82-9.86,0-14.95,5.89-14.95,12.72,0,3.18,1.11,8.75,11.45,12.89l10.66,4.3c19.57,7.95,24.98,19.09,24.98,31.18,0,20.2-14.32,34.04-34.21,34.04-12.25,0-19.57-4.62-24.98-10.66-5.73-6.36-8.27-13.36-8.91-20.68l16.07-3.5c0,5.25,1.91,10.18,4.45,13.52,3.02,3.82,7.47,6.37,13.84,6.37,9.86,0,17.5-7.16,17.5-17.82s-8.27-15.27-15.27-18.14l-10.18-4.3c-8.75-3.66-21.64-10.98-21.64-26.89,0-14.32,11.14-28,31.02-28,11.45,0,17.98,4.3,21.32,7.16,2.86,2.54,5.89,6.2,8.11,10.66l-13.04,7.64ZM344.28,1225.17h-16.62v-106.85h16.62v106.85ZM415.51,1170.56h42.74v.76c0,17.28-5.29,31.37-15.39,40.92-10.72,10.15-23.47,12.88-35.28,12.88-15.07,0-25.8-4.24-35.28-13.79-10.1-10.15-15.39-23.64-15.39-38.19,0-15.76,6.53-29.4,15.07-37.74,8.86-8.79,23-15.16,39.01-15.16,9.32,0,18.96,1.97,27.04,6.37,8.55,4.7,13.83,10.61,16.78,15.16l-12.59,8.64c-3.11-4.25-7.77-8.79-12.74-11.52-5.75-3.33-11.97-4.39-18.34-4.39-13.52,0-22.22,5.45-27.35,10.46-6.84,6.67-11.04,17.43-11.04,28.34,0,10.15,3.89,20.31,10.72,27.43,7.15,7.43,16.01,10.15,25.95,10.15,9.01,0,16.47-2.58,23.16-8.94,5.75-5.46,8.08-11.37,8.7-17.13h-25.8v-14.25ZM470.12,1225.17v-114.06l75.98,81.22v-74.01h16.62v113.41l-75.98-81.22v74.65h-16.62Z"/>
    </symbol>

    <symbol id="dhd-logo-home" viewBox="0 0 332.72 603.49">
      <rect width="332.72" height="603.49" style="fill: var(--color-primary-dark)"/>
      <path id="positive" d="M12.28,12.28v578.94h308.17V12.28H12.28ZM313.67,584.45H19.05V19.05h294.62v565.4ZM157.4,436.37h-2.14v-14.2h2.34c3.35,0,9.31.6,9.31,6.9,0,7.1-7.64,7.3-9.51,7.3ZM104.94,443.34h13.53l-6.63-15.14-6.9,15.14ZM77.07,375.98c3.08-2.34,6.1-6.63,6.1-12.73s-2.81-10.52-6.03-12.86c-3.89-2.81-8.64-3.08-11.93-3.08h-2.95v31.83h2.95c3.35,0,7.97-.27,11.86-3.15ZM77.14,500.38c-3.89-2.81-8.64-3.08-11.93-3.08h-2.95v31.83h2.95c3.35,0,7.97-.27,11.86-3.15,3.08-2.34,6.1-6.63,6.1-12.73s-2.81-10.52-6.03-12.86ZM263.53,354.07c0-6.3-5.96-6.9-9.31-6.9h-2.34v14.2h2.14c1.88,0,9.51-.2,9.51-7.3ZM301.39,314.15v257.77H31.32v-257.77h270.07ZM170.26,340.87l19.83,47.57,19.83-47.57h-7.37l-12.46,31.16-12.46-31.16h-7.37ZM126.71,385.56h6.83v-31.22l32.43,33.97v-47.44h-6.83v30.95l-32.43-33.97v47.71ZM136.23,415.87v44.69h6.83v-44.69h-6.83ZM94.56,385.56h24.66v-6.43h-17.82v-14.07h17.29v-6.43h-17.29v-11.32h17.82v-6.43h-24.66v44.69ZM55.43,385.56h9.25c6.23,0,11.12-.6,16.35-4.29,5.9-4.15,8.98-10.59,8.98-18.02s-3.15-13.94-8.58-18.02c-4.96-3.68-10.39-4.35-16.62-4.35h-9.38v44.69ZM55.43,460.56h6.83v-20.57h19.16v20.57h6.83v-44.69h-6.83v17.69h-19.16v-17.69h-6.83v44.69ZM90,513.25c0-7.44-3.15-13.94-8.58-18.02-4.96-3.68-10.39-4.35-16.62-4.35h-9.38v44.69h9.25c6.23,0,11.12-.6,16.35-4.29,5.9-4.15,8.98-10.59,8.98-18.02ZM119.21,490.87h-24.66v44.69h24.66v-6.43h-17.82v-14.07h17.29v-6.43h-17.29v-11.32h17.82v-6.43ZM121.22,449.77l4.69,10.79h7.37l-21.17-47.3-22.24,47.3h7.37l4.89-10.79h19.1ZM151.37,522.09c0-5.09-2.28-9.78-10.52-13.13l-4.49-1.81c-4.35-1.74-4.82-4.09-4.82-5.43,0-2.88,2.14-5.36,6.3-5.36,1.94,0,3.42.47,4.82,1.61,1,.87,1.61,1.81,2.01,2.81l5.49-3.22c-.94-1.88-2.21-3.42-3.42-4.49-1.41-1.21-4.15-3.02-8.98-3.02-8.38,0-13.07,5.76-13.07,11.79,0,6.7,5.43,9.78,9.11,11.32l4.29,1.81c2.95,1.21,6.43,3.08,6.43,7.64s-3.22,7.5-7.37,7.5c-2.68,0-4.56-1.07-5.83-2.68-1.07-1.41-1.88-3.48-1.88-5.7l-6.77,1.47c.27,3.08,1.34,6.03,3.75,8.71,2.28,2.55,5.36,4.49,10.52,4.49,8.38,0,14.41-5.83,14.41-14.34ZM156.46,442.27l12.8,18.29h8.24l-13.94-19.1c5.96-1.34,9.92-6.03,9.92-12.46,0-1.94-.4-7.24-5.29-10.52-2.88-1.94-6.37-2.61-11.79-2.61h-7.97v44.69h6.83v-18.29h1.21ZM164.1,490.87h-6.83v44.69h6.83v-44.69ZM212.34,512.31h-18.43v6.3h11.12c-.27,2.55-1.27,5.16-3.75,7.57-2.88,2.81-6.1,3.95-9.98,3.95-4.29,0-8.11-1.21-11.19-4.49-2.95-3.15-4.62-7.64-4.62-12.13,0-4.82,1.81-9.58,4.76-12.53,2.21-2.21,5.96-4.62,11.79-4.62,2.75,0,5.43.47,7.91,1.94,2.14,1.21,4.15,3.22,5.49,5.09l5.43-3.82c-1.27-2.01-3.55-4.62-7.24-6.7-3.48-1.94-7.64-2.81-11.66-2.81-6.9,0-13,2.81-16.82,6.7-3.68,3.69-6.5,9.72-6.5,16.68,0,6.43,2.28,12.4,6.63,16.88,4.09,4.22,8.71,6.1,15.21,6.1,5.09,0,10.59-1.21,15.21-5.7,4.36-4.22,6.63-10.45,6.63-18.09v-.33ZM214.22,385.56h24.66v-6.43h-17.82v-14.07h17.29v-6.43h-17.29v-11.32h17.82v-6.43h-24.66v44.69ZM256.16,490.87h-6.83v30.95l-32.43-33.97v47.71h6.83v-31.22l32.43,33.97v-47.44ZM274.11,385.56l-13.94-19.1c5.96-1.34,9.92-6.03,9.92-12.46,0-1.94-.4-7.24-5.29-10.52-2.88-1.94-6.37-2.61-11.79-2.61h-7.97v44.69h6.83v-18.29h1.21l12.8,18.29h8.24ZM215.75,171.19v-39.67c46.98,0,85.06,38.08,85.06,85.06h0v69.41l-39.75,15.65v-85.06c0-24.98-20.33-45.31-45.31-45.31v-.08ZM31.32,216.58c0-46.98,38.08-85.06,85.06-85.06v-.05h31v39.72h-31v.08c-24.98,0-45.31,20.33-45.31,45.31s20.33,45.31,45.31,45.31,45.31-20.33,45.31-45.31V47.27l39.75-15.65v184.96h0c0,46.98-38.08,85.06-85.06,85.06s-85.06-38.08-85.06-85.06h0Z" style="fill: var(--color-white)"/>
    </symbol>

    <symbol id="dhd-logo-square-reverse" viewBox="0 0 957 957">
      <rect x="23.93" y="23.93" width="909.15" height="909.15"/>
      <path d="M607.32,490.3v-102.95h0c121.88,0,220.69,98.81,220.69,220.69v.05s0,180.14,0,180.14l-103.15,40.62v-220.76c0-64.94-52.65-117.59-117.59-117.59h.05v-.2ZM128.63,607.98c0,121.92,98.83,220.75,220.75,220.75h0c121.91,0,220.74-98.83,220.74-220.74h0V127.94l-103.15,40.62v438.73c0,66.39-54.66,120.15-121.02,118.21-63.21-1.84-114.07-53.84-114.07-117.49s52.73-117.54,117.54-117.54v-.21h80.36v-103.15h-80.42c-121.92,0-220.75,98.83-220.75,220.75v.12Z"/>
    </symbol>

    <symbol id="dhd-st-number" viewBox="0 0 400 400">
      <path d="M175.05,0C78.37,0,0,78.37,0,175.05s78.37,175.05,175.05,175.05,175.05-78.37,175.05-175.05S271.73,0,175.05,0ZM162.79,226.95c-12.09,12.46-27.71,17.48-55.05,17.48-19.16,0-33.1-2.98-42.4-8.93-8.74-5.76-13.02-12.46-13.02-20.27,0-10.6,8.37-18.23,19.9-18.23,10.79,0,18.22,6.7,18.22,16.18,0,8.93-6.88,14.69-17.67,14.69-3.35,0-5.58-.37-9.3-1.67,9.67,8.18,20.64,12.09,34.22,12.09,14.32,0,24.36-4.09,30.68-12.46,4.46-6.14,6.88-13.39,6.88-21.01,0-19.9-14.32-33.29-35.33-33.29-10.97,0-22.87,3.53-29.01,8.55-2.6,2.05-4.65,4.65-7.62,9.3l-6.32-1.3c3.72-11.16,6.14-31.06,6.14-50.77,0-8-.37-12.65-1.67-19.34l4.09-1.12c3.91,2.98,7.44,3.72,23.62,5.58q7.44.74,45.38,2.98c8.37.56,17.3-3.35,26.22-11.16h3.91c-1.12,8.55-4.65,15.25-11.34,21.01-9.86,8.18-24.55,11.72-49.47,11.72-11.34,0-22.69-.56-36.08-2.05-.19,1.49-.19,2.6-.19,2.79l-.93,12.27c.19.19-1.12,10.23-2.42,19.34,10.41-10.23,23.06-14.13,44.82-14.13,38.5,0,64.9,14.69,64.9,36.26,0,8.37-4.46,18.41-11.16,25.48ZM290.36,226.95c-12.09,12.46-27.71,17.48-55.05,17.48-19.15,0-33.1-2.98-42.4-8.93-8.74-5.76-13.02-12.46-13.02-20.27,0-10.6,8.37-18.23,19.9-18.23,10.79,0,18.23,6.7,18.23,16.18,0,8.93-6.88,14.69-17.67,14.69-3.35,0-5.58-.37-9.3-1.67,9.67,8.18,20.64,12.09,34.22,12.09,14.32,0,24.36-4.09,30.68-12.46,4.46-6.14,6.88-13.39,6.88-21.01,0-19.9-14.32-33.29-35.33-33.29-10.97,0-22.87,3.53-29.01,8.55-2.6,2.05-4.65,4.65-7.63,9.3l-6.32-1.3c3.72-11.16,6.14-31.06,6.14-50.77,0-8-.37-12.65-1.67-19.34l4.09-1.12c3.91,2.98,7.44,3.72,23.62,5.58q7.44.74,45.38,2.98c8.37.56,17.29-3.35,26.22-11.16h3.91c-1.12,8.55-4.65,15.25-11.34,21.01-9.86,8.18-24.55,11.72-49.47,11.72-11.34,0-22.69-.56-36.08-2.05-.19,1.49-.19,2.6-.19,2.79l-.93,12.27c.19.19-1.12,10.23-2.42,19.34,10.41-10.23,23.06-14.13,44.82-14.13,38.5,0,64.9,14.69,64.9,36.26,0,8.37-4.46,18.41-11.16,25.48Z"/>
    </symbol>
  </defs>
</svg>
