<?xml version="1.0" encoding="utf-8"?>
<!-- Generator: Adobe Illustrator 27.1.1, SVG Export Plug-In . SVG Version: 6.00 Build 0)  -->
<svg version="1.1" id="Layer_1" xmlns="http://www.w3.org/2000/svg" xmlns:xlink="http://www.w3.org/1999/xlink" x="0px" y="0px"
	 viewBox="0 0 1327.21 268.73" style="enable-background:new 0 0 1327.21 268.73;" xml:space="preserve">
<path d="M0,268.73h1327.21V0H0V268.73z M147.41,127.93v-0.05v-27.22c32.23,0,58.35,26.13,58.35,58.35v47.62l-27.27,10.74v-58.35
	C178.49,141.88,164.55,127.93,147.41,127.93L147.41,127.93z M79.24,190.1c17.14,0,31.09-13.95,31.09-31.09v-49.39V42.85l27.27-10.74
	V159c0,32.23-26.13,58.35-58.35,58.35c-32.23,0-58.35-26.13-58.35-58.35s26.13-58.35,58.35-58.35v-0.03h21.27v27.25H79.25v0.05
	c-17.14,0-31.09,13.94-31.09,31.09C48.16,176.15,62.11,190.1,79.24,190.1L79.24,190.1z M1305.82,20.89v226.96H226.97V20.89H1305.82z
	"/>
<path d="M301.22,102.03c10.23,0,19.14,1.1,27.28,7.15c8.91,6.71,14.08,17.38,14.08,29.59s-5.06,22.77-14.74,29.59
	c-8.58,6.05-16.61,7.04-26.84,7.04h-15.18v-73.37C285.82,102.03,301.22,102.03,301.22,102.03z M297.04,164.84h4.84
	c5.5,0,13.09-0.44,19.47-5.17c5.06-3.85,10.01-10.89,10.01-20.9s-4.62-17.27-9.9-21.12c-6.38-4.62-14.19-5.06-19.58-5.06h-4.84
	L297.04,164.84L297.04,164.84z M390.54,112.59h-29.26v18.59h28.38v10.56h-28.38v23.1h29.26v10.56h-40.48v-73.37h40.48
	C390.54,102.03,390.54,112.59,390.54,112.59z M402.86,175.4V97.08l53.24,55.77v-50.82h11.22v77.88l-53.24-55.77v51.26L402.86,175.4
	L402.86,175.4z M486.46,102.03l20.46,51.15l20.46-51.15h12.1l-32.56,78.1l-32.56-78.1H486.46L486.46,102.03z M587,112.59h-29.26
	v18.59h28.38v10.56h-28.38v23.1H587v10.56h-40.48v-73.37H587V112.59z M610.21,102.03c8.91,0,14.63,1.1,19.36,4.29
	c8.03,5.39,8.69,14.08,8.69,17.27c0,10.56-6.49,18.26-16.28,20.46l22.88,31.35h-13.53l-21.01-30.03h-1.98v30.03h-11.22v-73.37
	H610.21z M608.34,135.69h3.52c3.08,0,15.62-0.33,15.62-11.99c0-10.34-9.79-11.33-15.29-11.33h-3.85L608.34,135.69L608.34,135.69z
	 M692.71,131.07h31.46v-29.04h11.22v73.37h-11.22v-33.77h-31.46v33.77h-11.22v-73.37h11.22V131.07z M789.51,157.69h-31.35
	l-8.03,17.71h-12.1l36.52-77.66l34.76,77.66h-12.1L789.51,157.69L789.51,157.69z M785,147.13l-10.89-24.86l-11.33,24.86H785
	L785,147.13z M825.37,102.03v73.37h-11.22v-73.37H825.37z M847.26,102.03c8.91,0,14.63,1.1,19.36,4.29
	c8.03,5.39,8.69,14.08,8.69,17.27c0,10.56-6.49,18.26-16.28,20.46l22.88,31.35h-13.53l-21.01-30.03h-1.98v30.03h-11.22v-73.37
	H847.26z M845.39,135.69h3.52c3.08,0,15.62-0.33,15.62-11.99c0-10.34-9.79-11.33-15.29-11.33h-3.85L845.39,135.69L845.39,135.69z
	 M933.94,102.03c10.23,0,19.14,1.1,27.28,7.15c8.91,6.71,14.08,17.38,14.08,29.59s-5.06,22.77-14.74,29.59
	c-8.58,6.05-16.61,7.04-26.84,7.04h-15.18v-73.37L933.94,102.03L933.94,102.03z M929.76,164.84h4.84c5.5,0,13.09-0.44,19.47-5.17
	c5.06-3.85,10.01-10.89,10.01-20.9s-4.62-17.27-9.9-21.12c-6.38-4.62-14.19-5.06-19.58-5.06h-4.84L929.76,164.84L929.76,164.84z
	 M1023.26,112.59H994v18.59h28.38v10.56H994v23.1h29.26v10.56h-40.48v-73.37h40.48C1023.26,102.03,1023.26,112.59,1023.26,112.59z
	 M1065.06,118.31c-0.66-1.65-1.65-3.19-3.3-4.62c-2.31-1.87-4.73-2.64-7.92-2.64c-6.82,0-10.34,4.07-10.34,8.8
	c0,2.2,0.77,6.05,7.92,8.91l7.37,2.97c13.53,5.5,17.27,13.2,17.27,21.56c0,13.97-9.9,23.54-23.65,23.54
	c-8.47,0-13.53-3.19-17.27-7.37c-3.96-4.4-5.72-9.24-6.16-14.3l11.11-2.42c0,3.63,1.32,7.04,3.08,9.35c2.09,2.64,5.17,4.4,9.57,4.4
	c6.82,0,12.1-4.95,12.1-12.32s-5.72-10.56-10.56-12.54l-7.04-2.97c-6.05-2.53-14.96-7.59-14.96-18.59c0-9.9,7.7-19.36,21.45-19.36
	c7.92,0,12.43,2.97,14.74,4.95c1.98,1.76,4.07,4.29,5.61,7.37L1065.06,118.31L1065.06,118.31z M1096.96,102.03v73.37h-11.22v-73.37
	C1085.74,102.03,1096.96,102.03,1096.96,102.03z M1145.91,137.23h30.25v0.55c0,12.54-3.74,22.77-10.89,29.7
	c-7.59,7.37-16.61,9.35-24.97,9.35c-10.67,0-18.26-3.08-24.97-10.01c-7.15-7.37-10.89-17.16-10.89-27.72
	c0-11.44,4.62-21.34,10.67-27.39c6.27-6.38,16.28-11,27.61-11c6.6,0,13.42,1.43,19.14,4.62c6.05,3.41,9.79,7.7,11.88,11l-8.91,6.27
	c-2.2-3.08-5.5-6.38-9.02-8.36c-4.07-2.42-8.47-3.19-12.98-3.19c-9.57,0-15.73,3.96-19.36,7.59c-4.84,4.84-7.81,12.65-7.81,20.57
	c0,7.37,2.75,14.74,7.59,19.91c5.06,5.39,11.33,7.37,18.37,7.37c6.38,0,11.66-1.87,16.39-6.49c4.07-3.96,5.72-8.25,6.16-12.43
	h-18.26V137.23z M1183.64,175.4V97.08l53.24,55.77v-50.82h11.22v77.88l-53.24-55.77v51.26L1183.64,175.4L1183.64,175.4z"/>
</svg>
