<?xml version="1.0" encoding="utf-8"?>
<svg xmlns="http://www.w3.org/2000/svg">
  <defs>
    <symbol id="oribe" viewBox="0 0 445.8 600.4">
      <path d="M.6,237.8C-7.8,119.3,78.8,16.9,195.8,2c2-.2,5.9-.2,8.9-1,1.6-.4,2.9-.6,4.1-.6,10.4,0,22.9-1.1,33,.6,1.6.3,3.6.5,5.9.8,118.4,11.6,208.2,121.1,197.2,239-10,107.4-92.4,194.2-200.9,203.6C118.2,455.3,9.6,363.2.8,237.8h-.2ZM304.4,90.1c-6.8-25.7,13.2-47,38.3-45.9.3,0,.5-.2.5-.5h0c0-.6-.6-.7-.9-.9-27.5-18-57.6-29.3-90.2-34-.1,0-.3,0-.3.2h0c.7,10.8-.3,21.4-3.1,31.9-.2.7-.5.8-1.1.4-1.8-1.2-2.8-.5-3.9,1.1-3.2,4.8-6.7,9.6-10.3,14.3-.2.2-.5.3-.8,0h0c-4.6-3.8-7.3-8.6-8.2-14.5-.8-5.2.6-12.2,5.9-14.5,5.8-2.5,11.4-6.1,16.7-10.8.2-.2.2-.5,0-.7s-.4-.2-.6,0c-4.7,2.3-9.7,4.5-15,6.6-13.5,5.2-15,23.5-9.9,34.9,6.5,14.7,18.3,13,31.3,17.7,7.5,2.7,8.2,11,10.4,17.5,4,11.6,26,20.8,36.9,23,25.2,5.3,45-14.4,46.2-38.7.5-9.3-4.4-17-13.9-19-21.1-4.5-29,14.2-26.8,31.6,0,.2,0,.3-.2.3h-.3c-.3,0-.5,0-.5-.3h0l-.2.3h0ZM210.6,14.5c-8.6,6.1-16.4,15.1-18.8,25-10.2,41.8,55.2,30.9,49.5,70.5-1.8,12.3-9.4,22.5-11.9,34.3-1.5,7.1-1.5,14.2.2,21.3,6.7,28.1,37.5,41,62.8,46.1,29.2,5.9,65.4,13.1,62.9,52.5,0,.2.1.5.4.5s.5-.1.5-.4c8.6-34.3-21.5-47.6-47.9-54.6-22.7-6-58.5-12.2-65.6-39.8-6.2-24,14-45.3,5.7-69.7-5.9-17.5-24.7-25.2-39.7-34.2-12.9-7.7-15.3-20.6-8.8-33.7,4.5-9,11.3-14.6,19.8-20,.9-.6.9-1-.2-1.1-17.2-2.4-37.9-1-38.1,21.6,0,3.2-.3,9.3,1.2,12.1.5.8.7.7.7-.2.8-17.6,10.7-27.1,27-30.8.2,0,.4,0,.4.3s0,.3-.1.4h0q0,0,0-.1ZM131.2,182.4c-.6,4.6-2.5,8-5.9,10.2-9.7,6.3-21.6,5.7-32.2,1.2-12.3-5.2-20.8-14.5-25.6-27.9-10.2-28.4-1.8-63.3,30.8-71.8.2,0,.4-.3.3-.5,0-.2-.2-.3-.4-.3-11.5-.1-23.1,2.5-31.6,10.6-16.9,16-17.2,36.5-20.2,57.8-.8,5.6-2.9,13.4-9.6,14.5-2.9.5-5.2-.7-7-3.5-.4-.7-.3-.8.4-.4,2.1,1.2,4.4,1.7,6.9,1.4.8,0,1.5-.6,1.8-1.4,3.2-8.2,1.9-18,2-26.7,0-6.7.5-11.9,1.2-15.8,8.2-45.1,48.5-48.3,85.9-51.6,4.5-.4,8.8,0,13.2-.5,8.4-.8,16.5-.8,24.9-2.7,7.1-1.6,11.4-4.8,12.9-11.9.3-1.3-.4-2.3-1.1-3.4-.2-.3-.4-.4-.7-.5-8.6-.9-6.8,7.8-12.6,10.5-9.9,4.7-10.4-8.8-18-6.5-6,1.8-13.8,9.2-20.2,5.9-7.1-3.5-10.8-9-11.2-16.5-.3-6.1,2.7-10.5,8.4-12.2.4,0,.8,0,1.1.3l1.5,1.8c.4.5.3.7-.3.6-.7,0-1.3-.3-1.9-.6-.3,0-.5-.2-.8,0-4.7,2-4.1,5.5-3.9,9.8.3,7.4,6.1,9.1,12.4,7.7,6.7-1.5,9.1-9.3,15.6-10.5.3,0,.6,0,.9,0,5.9,2.8,13.5,7.6,14.8-3.2,1.7-13.3,2.4-22.5,10.7-33,.1,0,0-.4,0-.5h-.3C81,34.8,13.3,114,7.3,209c-.9,14.9-.4,26.8,1.5,44.1,0,1.2.4,2.5.9,4.1.2.5.4.5.6,0,1.2-3,2.1-4.8,2.6-5.5,4.5-6.7,15.5-7.6,21.8-3.5.8.5,1.8.3,2.3-.5,0,0,0-.2,0-.2,7-16.1,25.1-38.1,45.5-31.9,7.5,2.3,11.4,8.4,11.8,18.4,0,2.3-.3,2.4-1.2.3-1-2.3-1.3-5.4-2.9-7.6-11.2-15.2-30.2,1.6-22.8,15.8,8.2,15.7,38.7,17.2,53.4,14.4.3,0,.5-.4.4-.7,0-.2-.2-.4-.4-.4-7.9-3-11.5-8.8-10.9-17.6,1-14.6,20.8-20.5,27.1-5.5,0,.2,0,.3-.2.4h-.3c-3.6-4-14-8.1-14.9.9-.6,5.4,5.1,10.1,9.6,11.6,23.9,8.2,35.1-36.1,37.8-51.1,3.3-18.7,4-37.9.5-56.6,0-.3-.3-.5-.6-.4-.2,0-.4.2-.4.3-4.3,11.2-8.6,22.6-17.9,30.9-5.6,5-12.3-8.9-14.1-12.4-4.2-8.8-8.3-17.7-12.2-26.6-2.3-5.2-13.5-28.2-21.9-21.6-13.2,10.4-20.4,24-21.6,40.5-1.2,16.4,4.7,37.3,21.2,43.9,9.8,3.9,19,1.3,25.7-6.6,1-1.2,2-2.3,3-3.4.2-.2.3-.2.3.1h0v-.2q.1,0,0,0ZM361.6,69.9c2.4-13.7-11.1-20.5-22.7-18.5-.2,0-.4.2-.4.5s.2.3.3.4c10.3,2.4,17.8,8.3,22.4,17.8,0,0,.2,0,.2,0h0c0,0,.2-.2.2-.2ZM126.5,293.6c-18,13.4-44.8,37-31.9,61.3,5.7,10.8,20.3,17,30.4,23,16,9.4,27.2,26.5,41.3,39,1.8,1.6,4,2.4,6.8,2.6.5,0,.5-.1.2-.5-31.7-32.1-41.9-83.4-13.2-121,.1-.2,0-.4,0-.6-.1,0-.3-.1-.4,0-3.1,1.6-6.6,5.9-9.1,8.4-19.1,19-21.7,48.2-14.1,72.9,0,.2,0,.3-.2.4h-.3c-11.8-11.8-37.4-17-38.5-36.5-.4-8.1,4.7-17.3,10.1-23.2,29-31.5,74.2-52.9,109-82.5,29.4-25,5.7-41.2-7.9-63.2-12.5-20.3.9-34.2,13.3-49,9.9-11.8,11.6-26.7-1.9-36.5-11.1-8.1-29.9-11.4-34-25-.1-.3-.5-.5-.8-.4-.3,0-.4.4-.4.6,1.9,16.2,19.1,20.7,30.5,27.6,9.9,6,7.8,13.9,1.8,21.9-7.8,10.3-17.6,19.6-19.8,33.6-3.1,19.4,8.5,33.9,19.8,47.8,4.8,5.9,9.3,15.3,6.8,23-4.7,14.2-26.9,28.7-38.9,36.7-19.6,13-39.5,25.7-58.4,39.8h0l-.2-.2h0ZM356.5,97.7c-12.2-8.6,4.9-25.1,14.8-11.7,11.4,15.5-19,33.6-29.5,38.3-11.1,4.9-23.5,6.8-35.4,4.5-8.1-1.5-14.6-5.4-21.5-9-.4-.2-.6-.1-.4.3.9,3.4,11.8,8.4,16.1,10.3,17.5,7.7,46.5,18.8,49.2,41.1.2,2,.4,4,.4,6.2s.2.5.5.5.4-.2.5-.4c5.4-18.3-8.9-31.4-22.7-40.2-.2-.1-.3-.4-.2-.7,0-.1.2-.2.4-.2,20.9-.9,46.8-12,54.2-33.4,1.3-3.6,1-10.3-.4-13.8-3-8-8.8-12.1-17.3-12.2-6.6,0-12,2.3-14.9,8.3-3.3,6.9.2,12.2,6.9,14.5,1.6.5,2.8,0,4.2-.7.2,0,.3-.4.2-.6,0-.1-.2-.2-.4-.3l-4-.4c-.3,0-.6-.1-.9-.3h.2q0-.1,0-.1ZM138.8,84.6c13.2.3,25.9-.8,39,1.4,7.8,1.3,29.7,6.4,23.6,19.3-3.9,8.3-12.4,16-17,23.7-12.1,20.5-2.9,38,4.7,57.8,8,20.9-3.1,40.8-18.7,54.2-14.9,12.8-40.1,18.5-53.1-.2-.1-.2-.4-.3-.6-.1-.2.1-.3.3-.2.5,5.7,17,26.4,16.8,40.5,14.1,19.4-3.7,39.2-16.6,43.2-37.2,3-15.5-3.3-29.6-10.6-44.1-5.3-10.6-7.5-24.2-3.8-35.6,4.1-12.5,16.2-20.1,21.3-32.8,4-9.9-7.4-17.8-15.5-20.1-16.2-4.7-31.2-4.1-47.8-2.5-2.1.2-3.8.5-5.3.9-1.3.4-1.3.6,0,.6h.3q0,.1,0,.1ZM165.1,91.3c-8.8-1.4-14.3-.2-23.1,0-7.4.3-14.8,1.9-22.3,5.1-.3.1-.5.4-.6.7-1,4.3,2.2,9.9,4.6,13.4,8.8,12.4,17.5,24.2,24.6,37.8,0,.2.3.2.4.1,0,0,.1,0,.1-.1,8.3-15.8,13.6-33.5,17.8-50.8.5-2.1.7-4,.7-5.8s-.2-.6-.7-.5c-.7.2-.9.2-1.6,0h.1ZM365.4,142.1c13.2-7.1,32.2-23.8,31.1-40.8,0-.2-.2-.4-.4-.4s-.4.1-.4.3c-5.2,20.2-22.7,36.1-42.7,42.4-.3,0-.4.4-.4.7,0,0,0,.2.1.2,4.3,4.3,8.8,9.1,13.3,12.5,10.6,8.1,24.8,14.5,38.5,13.7,8.1-.5,16.4-4.6,19.7-12.3,0-.2,0-.4-.2-.4h-.3c-19.1,13.9-45.1.7-58.6-15.3-.1-.2-.1-.4,0-.6h.3ZM402.1,103.4c-1,11.6-5.1,18.9-12.2,27.9-14.1,18,6.2,25.2,19.9,19.9,7.4-2.9,9.7-10.9,4.9-17.3-2.5-3.4-6.2-5.2-11-5.6-.4,0-.6-.4-.6-.7s.2-.5.4-.6c4.8-1.6,10,.7,13.9,3.5.1.1.4,0,.5,0v-.3c-4.3-9.4-9.4-18.3-15.2-26.9,0-.2-.3-.2-.5-.1,0,0-.2.2-.2.3h.1q0-.1,0,0ZM78,172c-3-11.5-4.4-24.6-2-36.3,2.6-12.3,7.5-23,17.2-31.1.3-.2.3-.6,0-.8-.2-.2-.5-.3-.7-.2-26.9,13.6-24.5,45-15.4,68.6,0,.2.3.4.6.3.2,0,.4-.3.3-.6h0ZM307.6,142.8c-11.1-3.2-18.8-10.2-27.6-17.2-.9-.7-2.3-1.5-4-2.3-.3-.2-.5,0-.4.3,1.5,7.5,4,14.6,7.5,21.3.2.3.5.6.8.6,6.7,1.5,17.2-.9,24.1-1.9.2,0,.3-.2.3-.3h0c-.2-.3-.4-.5-.6-.6h-.1q0,.1,0,0ZM323.4,185.3c.6,1.6.8,3.4,1.6,4.8,4,7.1,12.9,4.8,14.3-2.9,2.9-16.2-6.1-41.3-27-36.3-12.7,3.1-24,10.2-34.1,11.8-2,.3-3.4-.2-4.3-2.2-5.1-10.8-8.5-22.8-12.2-34.2-.1-.4-.5-.6-.9-.5-.2,0-.3.2-.4.4-5,8.9-7.6,20.9-6.8,30.7,1.6,18,16.7,26.5,31.8,31.9,17.4,6.2,35.2,11.7,51.8,19.8,44.9,21.7,67.3,61.3,74.9,109.4,0,.2.2.3.5.3s.2-.1.3-.2c3.6-9.3,3.2-21,2.1-31.2-1.1-10-2.3-20-3.5-30-1.7-14.3-3.4-41.2,18.4-40.5,2.7,0,5.7,1.5,7.3,3.4,1.2,1.5,1.8,1.3,1.8-.7-.6-18.9-3.4-37.4-8.4-55.6,0-.3-.4-.4-.6-.4s-.3.2-.3.3c-8.3,22-38.4,17.2-53.8,7.8-2.8-1.7-5.5-3.3-8.4-5-.2,0-.4,0-.5.1v.3c3.7,13.9-7,33.9-21.9,35.9-9.6,1.3-24-5.1-23-16.9,0-.4.4-.7.8-.6.3,0,.5.2.6.4h-.1q0-.1,0,0ZM233.1,189.2c-2.1-2-4.8-4.6-7.6-6.6-.2-.1-.4,0-.5,0-.1.1,0,.3,0,.5,5.4,5.5,10,11.6,13.9,18.4,11.5,19.8-.8,33.5-15.4,45.1-9.5,7.6-20.2,14.8-28.9,22-35.5,29.6-47.6,75.5-29.7,118.7,8.6,20.6,24.9,39.6,46.3,47.3,12.5,4.5,37.7,7.4,37-12.6-.5-14.6-23.7-12.4-18.6,3.8,0,.3.3.4.6.3.2,0,.3-.3.3-.5,0-3,1-5.5,3.1-7.5,6.6-6.2,13.1,8.8,1.1,12.9-17.9,6-37.8-11.4-47.1-24.9-27.6-40.1-20.5-90.9,10.7-126.5,9.6-11,18.7-18.2,28.9-26.7,5.6-4.6,11-9.7,15.1-14.6,14.6-17.8,5.2-36-9.2-49.3h0v.2h0ZM372.7,256.1c0-.2.1-.4.4-.5.2,0,.3,0,.4.2,12,23,17.5,49.2,21,74.6,0,.1.1.2.3.2h.1c.2-.2.3-.3.3-.6,1.3-30.4-4.9-66.4-27.9-88.4-.4-.3-.9-.3-1.2,0-.2.2-.3.5-.2.8,1.6,7.6,2.6,14.3,2.7,22.3.5,21.2-8.4,44.9-26.9,56.6-13.9,8.9-33.1,9.6-46.7-.9-2.7-2.1-4.5-4.8-5.4-8.2,0-.2,0-.3.2-.4h.2c15.3,8.1,33.2,8.3,46.7-3.4,11.2-9.7,18.1-30.3,6.8-42.6-12.1-13.1-31.1-14.2-45.9-23-9.5-5.7-16.9-13.5-22.3-23.7,0-.2-.3-.2-.4-.1,0,0-.1,0-.2.2-.2.5-.2.9,0,1.4,4.7,12.1,12.3,21.4,23,28,15.5,9.6,50.3,11.6,44.5,38.7-4,18.5-20.8,29.6-39.3,25.4-6-1.3-11.7-3.4-17.3-6.2-.2,0-.4,0-.5.2v.2c0,18,12,30.7,29.4,32.9,20,2.5,37.2-4.9,49.8-20,11.8-14.2,15.5-31.2,11.3-50.9-1-4.6-1.9-8.8-2.6-12.8h-.3ZM432.7,235.9c6.5-3.9,6.5-13-1.4-14.5-10.5-2-8.8,13.1-7.8,18.7,1.7,9.6,3.3,19.3,4.7,29,.6,4.1.6,9.8,1.6,14.7.1.6.2.6.4,0,4.6-15.9,7.3-32.1,8.2-48.6,0-.4-.2-.5-.5-.3-1.2.6-3.9,2.4-5.2,1.8-.5-.2-.5-.5,0-.7h0q0-.1,0-.1ZM308,285.1c-5.7-4.8-13.6-8.8-18.4-.3-1.9,3.4-2.4,6.8-1.3,10,1.6,5,6.5,6.5,11.6,7.2,11.9,1.6,27.8-5.1,26-19.4-1.1-9.3-17.9-14.8-25.1-18.3-15.9-7.7-28.2-19.7-36.7-36-.3-.6-.7-.6-1.1-.2l-7.9,7.7c-.3.3-.4.6-.4,1,1,11.5-2.2,19.9-4.9,30.1-1,3.9-.8,7.7-1.2,11.7-1.2,12.7-.5,26-.5,38.8s.7,4.2.8,6.4c1.2,23.6,6.8,59,30,72.2.3.2.6.2,1,.2,7.9-.8,16.2-.5,23.5-1.5,4.3-.6,8.7-1.2,13-1.9.3,0,.5-.3.4-.6,0-.1,0-.2-.2-.3-3.2-2.9-8.2-10.2-7.3-14.9.8-3.9,2.8-8.5,5.9-11.1,8.2-6.8,21.9-4.2,26.6,5.8.4.8.2.9-.5.4-3.4-2.6-6.7-4-9.8-4.1-8.5-.3-10,9.9-4.5,14.5,13.9,11.4,34.6,7.1,44.2-8.1,9.9-15.6,12.2-32.1,7-49.6-.1-.4-.4-.5-.7-.2-1.7,1.3-3.2,3.6-4.3,4.7-2.4,2.4-4.9,4.8-7.3,7.2-12.1,11.7-28,18.5-44.9,17-25.9-2.2-49-23.7-46-51.7.9-7.9,4.4-16.6,10.5-21.8,8-6.7,18.3-4.4,22.5,4.7.3.6.2.7-.4.3h.4q0,.1,0,0ZM60.1,320.4c0,.3-.2.6-.5.6s-.5-.1-.6-.4c-6.3-20.9-8.8-41.9-1.4-63.5,0-.3.3-.3.5-.1,11.5,11,24.4,13.6,40.7,15,4.8.4,9.1.6,12.8.5,17.3-.5,34.9-4.2,51-10.7.2,0,.3-.3.2-.5,0-.1-.1-.2-.3-.2-.4,0-.9,0-1.4.1-17.2,5.1-34.8,7.2-52.7,6.5-15.8-.6-36.5-5.4-46.9-18.2-5.1-6.3-6.2-13.3-3.1-20.8,0-.2,0-.4-.2-.5-.2,0-.3,0-.4.1-28.5,43.4-21.2,91.8,11.9,130.4,11.8,13.7,25.5,20.2,40.9,28.5,8.6,4.6,15.8,11.7,22.5,18.5,5.1,5.2,9.7,9.1,15,13.3,3,2.4,12.5,8.2,16.4,6.8.4-.1.4-.3,0-.4-19.6-8-30.6-30.1-47.1-41.4-10.8-7.3-29.1-14.5-38.6-28.3-7.2-10.5-10.7-22-10.6-34.5,0-11.6,4.1-31.6,15.8-35.9,15.2-5.5,22,15,8.7,19.5-4.9,1.6-9.5-1.1-12.8-4.7,0-.1-.3-.1-.4,0,0,0,0,.2,0,.3,4.3,11.1,17.7,10.5,23.6,1.4,4-6.1,2.4-14.9-2.6-19.8-2.8-2.8-6.7-4.5-11.4-5.1-22.7-3.1-30.8,26.6-28.9,43.3h0v.2q0,0-.1,0ZM20,271.7c-3.2-.5-5.8-1.9-7.8-4.3-.2-.2-.4-.2-.6,0s-.2.3,0,.4c7.7,35.4,23.2,66.9,46.5,94.5,1,1.2,7.4,9.3,8.2,9.3s.4-.2.4-.5,0-.2,0-.3c-22-25.8-36.8-58.7-37.5-92.6,0-5.4-.7-19.1-6.7-21-3.8-1.2-7.6,1.6-7.5,5.6,0,3.5,2.9,6.2,5.6,8.1.2.1.2.4,0,.6,0,.1-.2.2-.4.2h0ZM235.7,375.8c4.3-12.8,5-25.7,2.1-38.7-2.8-12.7-9.8-23.5-11.8-36.6-2.1-14,5.2-26.2,6.3-39.6,0-.3-.2-.6-.5-.6s-.3,0-.4.2c-18.4,19.1-39.1,43-44.3,69.8-8,42.1,33.4,59.1,66.5,63.9.1,0,.2,0,.2-.2h0c-3.6-6.1-7.4-10.5-15.3-11.1-.4,0-.7-.2-.9-.4-1.9-1.8-2.8-3.8-1.9-6.6h0q0-.1,0,0ZM336.1,396.9c1.2.2,1.2.6.3,1.3-19,12.9-39.8,22.1-62.2,27.5-.4.1-.6,0-.6-.5,0-3.6,0-7.1-1-10.5-3.5-10.8-10.9-16.6-22.3-17.5-12.9-1-32.4,7.8-25.8,23.9.1.3.4.6.8.7s.5,0,.4-.4c-3.4-13.6,12.2-21.5,23.5-18.3,13.8,3.8,19.9,16.2,14.9,29.8-.1.3,0,.6.3.7h.3c30.7-4.7,61.1-19,85.6-37.5.2-.2.3-.4.1-.7,0-.1-.2-.2-.4-.2-13.1-.5-27.5-5.9-32.7-19-.6-1.4-.8-2.9-.7-4.5,0-.2,0-.3-.2-.4h-.2c-.2-.3-.4-.2-.5,0-4.9,12.4,10.1,24,20.5,25.6h-.1,0ZM125.5,600.4h-10.2c-24.7-2.2-43.1-24.1-42.4-48.3.6-24.4,19.9-43.7,44.3-46.2,41.1-4.2,68.9,43.4,42.4,76.3-8.7,10.9-19.9,16.6-34,18.2h-.1,0ZM81,561c1.2,19.2,13.5,34.2,33.5,34.7,25.2.5,43.7-19.5,46.9-43.5,3-21.7-12.6-41.7-35.2-41.5-25.9.3-46.8,25-45.3,50.3,0,0,0,0,0,0ZM291.1,547.8c-.1,0-.2.2-.2.4,0,0,.1.2.2.2,16.9,2.3,29.5,17.6,19.3,34.3-9.9,16.2-36.5,15.3-52.5,14.6-.3,0-.5-.3-.5-.6v-.2c1.1-1.9,1.7-3.6,1.7-5.9v-74.7c0-1.9-.9-3.2-1.3-5,0-.4,0-.5.4-.5,12.9,0,42.2-3.8,47.4,13.5.6,1.9.6,4.5.2,7.8-1.1,7.9-7.8,13.5-14.9,16.2h.2q0,0,0,0ZM268.5,546.2c10.4,2.3,24.1-1.3,27.9-12,2.1-5.8,1.4-10.6-2.1-14.3-6-6.4-17.5-6.3-25.7-4-.4,0-.5.3-.5.7v29c0,.3.1.5.5.6h-.1,0ZM268.3,588.3c1.6,2.2,4.9,4.1,7.5,4.4,13.6,1.3,26-4.2,28.3-18.8,2.3-14-5.6-19-17.4-22.2-4.9-1.3-9.4-.8-14.1-1.5-1.4-.2-2.7,0-4,.4-.4,0-.5.4-.5.8v36.1c0,.3,0,.6.3.9h-.1q0,0,0-.1ZM328.3,550.6v32.3c0,7.2,2.8,10.2,10,10.2h20.9c5.6,0,9.1-1.1,13.1-4.5.2-.2.5,0,.6,0,0,0,.1.3,0,.4l-2.5,7.8c0,.3-.3.5-.7.5h-51.4c-.5,0-.6-.2-.4-.7,1.5-3.5,2.2-6.1,2.2-7.8v-70.4c0-2.6-.7-4.8-1.5-7.2-.1-.4,0-.6.3-.8,1.5-.8,3.4,0,4.5,0,13,0,26,0,39,.2.4,0,.7.2.7.7v5.5c0,.3-.1.4-.4.3-8.8-2.7-23.9-4.7-33.5-1.2-.3,0-.5.4-.6.7-1.5,8.8-.6,19.8-.5,28.9,0,.4.2.5.6.5h22.6c2.1,0,3.1-.8,4.8-1.9.5-.3.7-.2.7.4v7c0,.6-.2.7-.7.4l-2.4-1.7c-.3-.2-.6-.3-1-.3h-24c-.3,0-.5.3-.5.6h.1q0,0,0,0ZM184.1,515c-.3,0-.5.3-.5.6v74.1c0,2.5-.1,4.3.8,6.8.1.3,0,.7-.4.8h-9.9c-.4,0-.5-.2-.4-.6l1.3-2.8c.2-.3.2-.7.2-1v-77.7c0-.3,0-.5-.2-.8l-1.2-3.3c-.2-.5,0-.7.5-.7,8.7-.2,17.4-.2,26.1,0,28.3.5,28.7,33.9,1.5,38.7-.3,0-.5.4-.5.7v.2l31.9,45.8c.3.4.2,1-.2,1.3-.2,0-.4.2-.6.2h-9.8c-.5,0-.9-.3-1-.8-.6-2.9-1.7-5.6-3.4-8.2-8-12.2-16.3-24.4-24.7-36.4-1-1.4-1.8-2.8-2.6-4.3-.2-.4,0-.6.3-.6,11.2-.6,25.4-6.4,21.7-20.6-3.1-12.3-19.4-13.6-29.3-11.5h.4q0,0,0,0ZM235.3,597.4c-.2,0-.4-.2-.4-.4v-.2l1.4-2.3c.2-.3.3-.6.3-.9v-77.4c0-1.9-.7-3.3-1.2-5.2,0-.4,0-.6.4-.6h9.8c.5,0,.6.2.5.7-.7,3-1.3,5.6-1.3,8.6-.1,24.1,0,48.2.1,72.3,0,1.9.8,3.1,1.6,4.7s0,.6-.4.6h-11,.2Z"/>
    </symbol>

    <symbol id="kevin-murphy" viewBox="0 0 1803.36 1803.36">
      <path d="M866.28,1645.62c7.48,27.45,14.96,54.93,22.57,82.87.34-.93.58-1.45.73-1.99,7.09-25.99,14.22-51.98,21.2-78,.64-2.4,1.55-3.13,4.02-3.08,9.11.17,18.23.07,27.54.07v110.66h-20.14v-78.82s-.12-.05-.28-.07c-.78,2.78-1.57,5.56-2.33,8.34-6.23,22.87-12.47,45.75-18.64,68.64-.44,1.64-1.13,2.16-2.82,2.13-5.8-.11-11.6-.15-17.4.01-2.06.06-2.72-.71-3.22-2.58-6.84-25.35-13.76-50.67-20.67-76-.07-.27-.19-.53-.96-.76v79.6h-20.14v-111.03h30.55ZM783.66,1646.11h-20.63v77.37c-1.03-.65-1.42-1.32-1.8-1.99-13.79-24.59-27.6-49.18-41.34-73.8-.82-1.47-1.68-2.07-3.4-2.02-4.48.13-8.97.05-13.45-.05h-9.27v110.53h20.63v-77.2c.86.62,1.33,1.37,1.76,2.14,13.81,24.43,27.65,48.85,41.39,73.32.98,1.74,2.03,2.31,3.98,2.27,6.59-.13,13.19-.05,19.78-.06.75,0,1.51-.07,2.35-.11v-110.41ZM1132.84,1704.13c2.78-2.24,5.7-4.11,8.01-6.55,6.07-6.38,7.26-14.35,6.5-22.7-1.08-11.92-7.01-20.6-18.07-25.59-5.91-2.66-12.18-3.66-18.62-3.67-16.1-.03-32.2,0-48.3,0h-2.13v110.53h20.63v-42.23c.47-.16.68-.3.9-.3,10.11.04,20.23-.14,30.32.23,6.9.25,10.66,3.98,11.1,10.77.42,6.4.06,12.84.34,19.25.16,3.6.88,7.18,1.51,10.74.11.63.98,1.62,1.51,1.63,6.59.11,13.19.07,19.86.07-.64-3.29-1.61-6.36-1.78-9.47-.36-6.56-.35-13.14-.41-19.71-.08-9.61-2.91-17.82-11.38-22.99M1080.87,1665.61c10.87,0,21.46-.37,32.02.11,9.01.41,13.33,5.25,13.47,13.59.14,8.29-4.75,13.94-13.18,15.15-1.37.2-2.77.27-4.16.27-8.58.02-17.15.01-25.73.01h-2.42v-28.98M484.97,1688.85v-23.58h58.46v-19.65h-79.09v110.53h80.08v-19.65h-59.44v-28h50.11v-19.65h-50.11ZM1255.76,1756.15h20.63v-46.18h46.18v46.18h20.63v-110.04h-20.63v43.72h-46.67v-44.21h-20.14v110.53ZM408.61,1692.34c14.69-15.37,29.24-30.6,44.18-46.23h-2.56s-15.77-.34-23.66-.43c-1.71-.02-2.83.52-3.96,1.76-12.54,13.78-25.13,27.51-37.72,41.24-.37.4-.8.74-1.61,1.44v-44.49h-20.63v110.53h20.63v-2.83c0-10.9-.02-21.8.02-32.7,0-.88.07-2.01.59-2.59,3.23-3.61,6.61-7.09,10.02-10.72.71,1.02,1.29,1.84,1.85,2.66,10.15,14.78,20.31,29.55,30.41,44.36.97,1.42,1.94,2.07,3.73,2.04,7.34-.11,14.69-.04,22.03-.05.71,0,1.43-.09,2.5-.16-15.43-21.57-30.61-42.79-45.93-64.21M1022.41,1648.73c.1,16.31.11,32.62.1,48.93,0,6.26.13,12.53-.11,18.78-.53,13.5-7.2,20.63-19.74,21.41-11.99.74-19.75-5.26-21.79-17.05-.48-2.8-.6-5.69-.61-8.54-.05-21.26-.02-42.52-.1-63.77v-2.39h-20.52s-.12,1.21-.12,1.89c-.01,21.49-.08,42.98.04,64.47.03,4.46.43,8.98,1.27,13.35,2.78,14.42,10.27,25.19,24.71,30.08,7.14,2.42,14.52,2.72,21.99,2.08,16.19-1.4,28.22-10.99,33.14-26.49,1.91-6.02,2.68-12.21,2.69-18.5,0-21.64,0-43.29.17-64.93v-2.44h-21.12v3.12ZM1183.06,1716.77c1.22,0,2.05,0,2.89,0,8.37-.02,16.75.11,25.11-.08,14.57-.34,26.74-9.09,31.09-22.37,3.06-9.34,2.87-18.74-.51-27.96-3.31-9.03-9.62-15.35-18.8-18.23-4.51-1.42-9.39-2.23-14.12-2.32-14.72-.29-29.45-.11-44.18-.1-.67,0-1.35.08-2.11.13v110.31h20.63v-39.3M1183.06,1665.31c2.84,0,5.53-.02,8.22,0,6.49.07,12.99-.12,19.45.31,6.51.43,10.69,4.12,11.7,10.54.6,3.8.5,7.89-.24,11.66-1.03,5.25-4.8,8.89-10.09,9.17-9.6.5-19.25.14-29.04.14v-31.88M553.94,1645.52c.09.57.1.8.17,1.02,11.62,36,23.26,71.99,34.85,108,.42,1.31,1.07,1.62,2.33,1.61,6.03-.05,12.06-.11,18.09.03,1.94.05,2.61-.66,3.17-2.4,9.95-31.11,19.96-62.19,29.96-93.28,1.58-4.91,3.15-9.82,4.77-14.89h-21.94c-8.17,28.14-16.34,56.29-24.66,84.96-.39-1.1-.61-1.64-.77-2.19-4.37-14.97-8.73-29.94-13.1-44.91-3.5-12.01-7-24.02-10.58-36-.23-.75-1.12-1.85-1.72-1.86-6.79-.13-13.59-.08-20.57-.08M1408.05,1753.3c0-12.29-.04-24.58.05-36.87.01-1.54.43-3.22,1.14-4.58,11.19-21.28,22.47-42.51,33.72-63.76.38-.71.71-1.45,1.18-2.42-7.26,0-14.14.05-21.02-.04-1.53-.02-2.27.46-2.95,1.84-6.32,12.95-12.73,25.85-19.12,38.76-1.05,2.12-2.12,4.23-3.35,6.69-.58-1.16-.99-1.95-1.38-2.76-6.98-14.18-13.97-28.34-20.89-42.54-.7-1.44-1.45-2.03-3.09-2-6.35.11-12.7.04-19.06.05-.56,0-1.11.1-1.84.17.46.91.79,1.6,1.14,2.27,11.29,21.31,22.59,42.62,33.83,63.96.61,1.16.95,2.61.96,3.93.07,12.52.04,25.04.04,37.57v2.57h20.63v-2.85ZM678.04,1645.62h-20.14v110.53h20.14v-110.53ZM798.89,1756.15h22.11v-22.11h-22.11v22.11ZM359.21,45.08v1152.11c0,255.54,116.96,342.25,326.69,347.45V45.08h-326.69ZM1108.56,1446.66l-421.87-476.36,421.87-476.2h318.64l-421.52,476.18,421.52,476.38h-318.64Z"/>
    </symbol>

    <symbol id="kevin-murphy-wide" viewBox="0 0 1803.36 1803.36">
      <path d="M1618.22,1053.35c.26.42.53.83.79,1.25,6.8,11.83,13.61,23.62,20.37,35.46.68,1.17,1.44,1.7,2.83,1.66,3.1-.08,6.16,0,9.26,0,2.31,0,2.42-.11,2.42-2.49v-52.26c0-1.73-.45-2.52-2.34-2.41-2.37.15-4.79.15-7.16,0-1.77-.11-2.19.57-2.19,2.22.08,11.61,0,23.17,0,34.78,0,.49-.04,1.02-.11,1.88-2.98-5.2-5.73-10.02-8.52-14.85-4.22-7.39-8.44-14.81-12.7-22.16-.45-.75-1.36-1.73-2.07-1.77-3.69-.19-7.39-.11-11.12,0-.49,0-1.17.72-1.39,1.28-.26.6-.11,1.36-.11,2.03v51.54c-.07,1.46.45,2.16,2.05,2.05,1.72-.11,3.47,0,5.23,0,4.52-.11,4.37,1.01,4.37-4.4v-33.63c.11-.04.23-.08.34-.11l.04-.08ZM1245.28,1040.94c-3.47-4.39-8.4-6.2-13.72-6.35-9.04-.3-18.09-.08-27.09-.11-1.21,0-1.7.53-1.7,1.69v52.7c0,2.55,0,2.59,2.68,2.59h6.41c2.49,0,2.56-.08,2.56-2.52v-17.43c0-1.05.08-1.84,1.47-1.8,4.45.04,8.93-.11,13.38.04,4.71.19,6.29,2.03,6.33,6.76,0,2.93-.08,5.86.04,8.83.08,1.54.34,3.08.75,4.58.15.6.9,1.43,1.43,1.46,3.43.11,6.86.08,10.4.08,0-.49.08-.71,0-.94-1.36-4.36-1.47-8.83-1.32-13.33.19-5.07-.94-9.54-5.35-12.66,8.06-6.05,9.68-16.04,3.81-23.48l-.08-.11ZM1216,1059.37c-1.35.04-1.92-.38-1.88-1.8.08-3.61.04-7.25,0-10.86,0-1.01.19-1.69,1.43-1.65,5.22.15,10.48.11,15.7.41,3.46.19,5.63,2.59,5.82,5.75.23,4.09-1.65,6.99-5.22,7.74-1.5.3-3.08.34-4.62.41-1.5.08-3.01,0-4.51,0-2.25,0-4.51-.08-6.72,0h0ZM1543.18,1068.12c1.13,6.72,3.87,12.66,8.98,17.28,6.35,5.75,13.79,8,22.31,6.95,6.42-.79,11.91-3.42,16.15-8.23,7.66-8.64,9.84-18.74,6.87-29.86-5.33-19.95-26.78-26.52-41.96-16.49-8.79,5.82-12.51,14.61-12.88,25.24.15,1.5.23,3.31.53,5.11h0ZM1582.16,1076.31c-7.78,8.41-18.97,6.24-24.45-2.63-4.92-7.96-4.24-17.54,1.99-24.49,7.17-8,19.08-6.8,24.87,3.27,1.84,3.19,2.85,6.65,2.7,9.65,0,5.9-1.62,10.44-5.11,14.24v-.04ZM1310.92,1057.79c-2.29-14.09-13.56-26.07-30.69-24.34-6.76.68-12.55,3.46-17.02,8.53-7.32,8.3-9.43,18.03-6.91,28.66,4.55,19.5,24.83,27.23,40.42,18.59,10.1-5.6,14.16-15.03,14.76-26.37-.15-1.58-.26-3.31-.53-5.03l-.04-.04ZM1274.14,1047.35c7.51-5.93,17.62-3.83,22.58,4.43,4.7,7.81,4.24,17.2-1.69,24.08-7.59,8.79-19.16,7.06-25.13-2.7-1.99-3.27-2.74-6.61-2.78-10.56.08-6.12,2.22-11.46,7.02-15.29v.04ZM1470.6,1072.16c-3.16,0-3.42.34-2.89,3.46,1.01,5.82,4.09,10.25,9.13,13.3,3.61,2.18,7.55,3.34,11.72,3.64,7.36.53,14.35-.53,20.4-5.22,7.78-6.09,8.53-20.7-1.88-25.99-3.31-1.69-6.99-2.67-10.56-3.76-4.24-1.28-8.56-2.18-12.81-3.42-2.03-.6-3.27-2.25-3.27-4.36,0-1.95,1.28-3.31,2.97-4.24,3.38-1.77,6.95-1.95,10.59-1.31,3.98.68,6.72,2.82,7.47,7.06.08.49,1.09,1.13,1.73,1.16,2.48.15,5,.08,7.51.08,2.22,0,2.55-.41,2.22-2.55-.9-5.67-3.57-10.33-8.53-13.26-8.15-4.81-16.72-4.58-25.24-1.13-6.69,2.7-10.44,8.26-10.29,14.87.15,7.17,4.21,11.68,10.56,14.27,2.74,1.13,5.71,1.73,8.6,2.55,3.83,1.09,7.7,2.1,11.49,3.31,2.22.68,3.68,2.33,3.64,4.7,0,2.44-1.43,4.21-3.68,5.22-3.64,1.62-7.4,2.29-11.31,1.43-3.72-.83-6.95-2.52-8.53-6.31-.45-1.09-.6-2.67-1.43-3.16-.9-.56-2.44-.19-3.68-.19h-3.94v-.15ZM1421.01,1071.93h-3.35c-2.27,0-2.64.37-2.31,2.64.78,5.77,3.46,10.49,8.48,13.51,8.52,5.17,17.56,5.43,26.75,2.08,6.51-2.38,10.64-6.96,11.35-14.03.56-5.58-1.04-10.38-5.77-13.84-3.68-2.68-8-3.79-12.32-4.87-4.13-1.04-8.26-2.08-12.35-3.24-2.08-.6-3.42-2.12-3.42-4.35,0-2.05,1.23-3.46,3.05-4.32,4.17-1.93,8.52-2.2,12.8-.6,2.57.97,4.39,2.9,4.8,5.69.22,1.53.93,1.82,2.2,1.79h7.07c2.31,0,2.6-.33,2.23-2.64-.89-5.54-3.57-9.97-8.33-13.02-7.66-4.95-20.91-4.54-28.46.63-8.52,5.84-9.08,18.01-1.56,24.07,3.57,2.9,7.81,4.13,12.17,5.21,4.24,1.08,8.48,2.2,12.69,3.5,2.31.71,3.94,2.27,3.87,4.84-.04,2.64-1.71,4.28-4.06,5.25-3.5,1.45-7.14,2.12-10.86,1.23-4.54-1.08-8.15-3.27-8.97-8.45-.07-.45-.89-1-1.41-1.08-1.41-.15-2.83-.04-4.28-.04h0v.04ZM1367.3,1089.21c0,1.5.34,2.29,2.07,2.29,12.93-.04,25.86-.04,38.79,0,1.55,0,2-.68,1.96-2.03v-6.2c0-2.55-.11-2.63-2.64-2.63-8.78,0-17.57-.04-26.35,0-1.77,0-2.26-.56-2.19-2.25.11-3.01.15-6.01,0-8.98-.11-1.99.64-2.4,2.49-2.37,7.2.11,14.44,0,21.67.08,1.47,0,2.04-.41,1.92-1.88-.11-2.07,0-4.13,0-6.2,0-1.52-1.24-2.74-2.75-2.74-7.04,0-14.03-.04-21.07,0-1.66,0-2.41-.38-2.26-2.18.15-2.1,0-4.24,0-6.39,0-1.63.83-2.45,2.49-2.48h25.41c2.49,0,2.6-.11,2.6-2.48,0-1.99-.08-4.02,0-6.01.11-1.8-.6-2.37-2.41-2.37-12.44.08-24.84,0-37.28,0-2.37,0-2.45.11-2.45,2.4v52.4ZM1711.37,1091.56c1.65.08,1.92-.64,1.39-2.07-1.88-5.22-3.68-10.48-5.52-15.7-4.36-12.43-8.71-24.83-13.03-37.26-.53-1.5-1.24-2.03-2.82-1.95-3.23.11-6.5.11-9.77,0-1.69-.08-2.4.6-2.93,2.14-3.46,10.03-6.99,20.02-10.48,30.05-2.59,7.4-5.22,14.84-7.81,22.24-.83,2.4-.71,2.59,1.73,2.59s5-.08,7.51,0c1.5.08,2.25-.41,2.7-1.88.75-2.63,1.77-5.18,2.59-7.81.38-1.2,1.05-1.65,2.33-1.62,4.7.08,9.39,0,14.09,0,1.99,0,4.47-.53,5.82.41,1.35.98,1.62,3.49,2.29,5.37q1.88,5.45,7.59,5.45c1.43,0,2.89-.04,4.32,0v.04ZM1693.58,1069.3h-14.39c2.37-6.95,4.7-13.79,7.17-21.19,2.52,7.36,4.81,14.16,7.21,21.19h0ZM1152.4,1089.32c0,1.81.6,2.45,2.41,2.37,2.26-.11,4.52,0,6.78,0,2.37,0,2.49-.08,2.49-2.41v-14.09c0-3.81-.53-3.47,3.5-3.54,4.45-.08,8.97.26,13.34-.49,15.26-2.68,18.16-19.45,11.49-29.39-3.35-5.01-8.63-7.01-14.43-7.12-7.66-.19-15.33-.04-23.03-.04-1.39,0-2.52,1.12-2.52,2.52v25.97c0,8.78,0,17.56,0,26.34l-.04-.11ZM1164.46,1046.6c0-.53.71-1.46,1.13-1.46,4.43,0,8.86-.04,13.3.34,3.49.3,5.37,2.74,5.48,6.24.04,1.13.04,2.25,0,3.38-.26,3.23-2.97,5.63-6.54,5.75-3.94.08-7.89,0-11.83.04-1.13,0-1.58-.38-1.58-1.54.04-2.18,0-4.36,0-6.57s-.08-4.13.04-6.2v.04ZM1319.07,1089.44c0,1.62.3,2.4,2.18,2.29,2.55-.15,5.15-.11,7.7,0,1.43.08,1.8-.49,1.8-1.84-.08-6.24.04-12.51-.08-18.74-.04-1.95.6-2.4,2.48-2.37,6.99.11,14.01,0,21,.08,1.58,0,2.14-.56,2.1-2.07-.08-1.99,0-3.98,0-6.01,0-1.52-1.24-2.74-2.75-2.74-6.78,0-13.6-.04-20.38,0-1.73,0-2.48-.34-2.37-2.25.15-2.63.15-5.26,0-7.85-.11-1.95.56-2.4,2.44-2.4,8.38.11,16.75,0,25.13.08,1.54,0,2.14-.56,2.1-2.07-.08-2.07,0-4.13,0-6.2,0-2.48-.11-2.59-2.52-2.59h-36.21c-2.37,0-2.48.11-2.48,2.59v52.06l-.15.04ZM1755.84,1080.95c-7.65,0-15.3-.08-22.92.04-1.94,0-2.39-.6-2.39-2.48.07-13.45,0-26.86,0-40.31v-2.07c0-1.24-.49-1.77-1.79-1.73-2.54.08-5.11.11-7.65,0-1.64-.08-2.2.56-2.2,2.14v52.66c0,1.69.6,2.25,2.31,2.22,11.61-.08,23.25,0,34.86,0,.37,0,.82.11,1.08-.04.45-.26,1.08-.71,1.08-1.13.07-3.01.04-5.97.04-9.32h-2.46.04ZM1523.18,1089.5c0,1.69.53,2.18,2.14,2.1,2.31-.11,4.65,0,6.99,0,1.39,0,2.51-1.13,2.51-2.52v-35.99s0-16.3,0-16.3c0-1.26-1.03-2.23-2.28-2.17-2.41.11-4.81.11-7.22,0-1.62-.08-2.14.38-2.14,2.07.08,8.75.04,17.5.04,26.26s.04,17.73-.04,26.63v-.08ZM1101.74,980.45c1.09-3.76,2.1-7.21,3.04-10.67,2.03-7.21,3.98-14.39,5.97-21.6,3.23-11.61,6.42-23.21,9.65-34.82,1.73-6.2,3.49-12.4,5.22-18.59.3-1.09.75-1.62,1.99-1.58,10.4.04,20.81,0,31.18,0,.38,0,.75.08,1.53.15v116.26c-.11,2.59-2.62,2.61-2.62,2.61h-17.43s-2.82-.05-2.86-2.79v-80.31s-.11-.04-.22-.08c-1.31,4.73-2.67,9.47-3.98,14.2-2.7,9.69-5.37,19.34-8.04,29.04-3.23,11.72-6.42,23.48-9.69,35.2-1.58,5.63-.71,4.66-5.9,4.73-5.75.08-11.49-.04-17.24.04-1.95,0-2.97-.49-3.53-2.55-4.88-18.03-9.92-36.02-14.91-54.02-2.44-8.83-4.92-17.62-7.4-26.41-.08-.3-.19-.56-.46-1.24v80.27c.04,3.94-3.9,4.3-3.9,4.3h-16.08s-2.78-.47-2.56-3.06v-113.78q-.22-2.59,2.3-2.59c9.8,0,19.65.04,29.45-.04,1.69,0,2.33.6,2.78,2.14,4.39,15.89,8.83,31.78,13.26,47.67,3.34,12.02,6.69,24.08,10.07,36.1.11.38.26.71.49,1.39l-.11.04ZM908.65,929.91c1.42,2.44,2.89,4.85,4.27,7.29,6.9,12.1,13.76,24.19,20.66,36.29,7.05,12.32,14.13,24.57,21.14,36.92.75,1.31,1.61,1.8,3.04,1.8,7.72-.04,15.48-.04,23.21,0,1.8,0,2.47-.6,2.44-2.48-.07-9.17,0-18.33,0-27.5v-85.53c0-4.21.26-3.53-3.7-3.57h-17.14c-1.89,0-2.83.96-2.83,2.89v79.41c-.68-.53-.98-1.09-1.32-1.65-3.13-5.48-6.27-11.01-9.4-16.49-7.06-12.32-14.15-24.64-21.21-36.92-4.91-8.56-9.85-17.13-14.76-25.69-.68-1.16-1.43-1.58-2.76-1.58-7.85.08-15.7.11-23.55,0-2,0-2.53.64-2.53,2.52.04,38.01,0,75.99,0,114,0,2.4.15,2.55,2.72,2.59h18.05c2.2,0,3.3-1.11,3.3-3.34v-78.84c.11,0,.22,0,.34-.04l.04-.08ZM1374.46,953.91c5.21-3.38,9.1-7.81,11.13-13.75,1.89-5.41,2.23-10.97,1.47-16.6-1.17-9.17-5.06-16.79-12.68-22.39-7.55-5.52-16.19-7.81-25.37-7.93-18.31-.23-36.61-.08-54.88-.08q-2.72,0-2.72,2.63v113.78c0,1.45,1.18,2.63,2.63,2.63h17.94q2.72,0,2.72-2.82v-40.64c0-1.35.15-2.18,1.85-2.18,10.38.08,20.76-.04,31.14.11,4.04.04,8.15.98,10.27,4.81,1.32,2.37,2.15,5.3,2.26,8.04.3,6.76-.08,13.56.19,20.32.11,3.38,1.02,6.72,1.59,10.07.3,1.73,1.4,2.37,3.21,2.33,6.3-.08,12.61,0,18.87-.04.72,0,1.47-.23,2.26-.34-.11-.56-.15-.86-.23-1.16-1.51-5.11-2.53-10.25-2.45-15.59.08-5.56.11-11.08,0-16.64-.11-5.82-1.4-11.42-5.1-16.11-1.89-2.4-4.27-4.43-6.64-6.84.79-.49,1.7-1.05,2.6-1.65l-.08.04ZM1347.06,914.94c2.82.15,5.71.53,8.3,1.54,4.58,1.8,7.55,5.07,8.08,10.37.6,6.42-.49,11.98-6.35,15.66-3.19,1.99-6.72,2.97-10.48,2.97-9.99.04-20.02,0-30.01.04-1.54,0-1.99-.56-1.95-2.03.04-8.9.08-17.8,0-26.71,0-1.54.53-1.99,2.03-1.95,5.18.08,10.33,0,15.51,0s9.95-.19,14.91.08l-.04.04ZM627.35,1009.74c0,1.77.38,2.56,2.33,2.56,27.92-.04,55.88-.04,83.8,0,1.76,0,2.4-.64,2.36-2.37-.08-5.49,0-10.98,0-16.46,0-1.68-1.36-3.05-3.04-3.05h-60c-1.8,0-2.29-.53-2.29-2.29.08-8.27.11-16.54,0-24.77,0-1.99.56-2.48,2.51-2.48,16.51.08,33.02.04,49.54.04q2.51,0,2.51-2.59v-15.65c0-2.11-1.08-3.17-3.25-3.17-16.42,0-32.85,0-49.27.04-1.89,0-2.42-.57-2.38-2.42.11-6.53.04-13.1.04-19.63,0-1.69.86-2.54,2.57-2.57h59.39c1.77,0,2.38-.45,2.34-2.3-.11-5.63,0-11.29-.04-16.92,0-1.71-.84-2.57-2.53-2.57h-82.11c-2.48,0-2.51,0-2.51,2.56v114.09l.04-.04ZM1510.41,1009.69c0,2.03.72,2.52,2.57,2.52,5.98-.08,11.96,0,17.95,0,3.1,0,3.14,0,3.14-3.12v-43.87q0-2.6,2.55-2.6h44.17c1.9,0,2.85.97,2.85,2.9v44.43c0,1.45,1.18,2.63,2.63,2.63h17.37c2.19,0,3.29-1.11,3.29-3.34v-102.17c0-3.79-.07-7.63,0-11.42.04-1.69-.56-2.22-2.24-2.18-6.06.08-12.07,0-18.13,0q-2.92,0-2.92,2.97v41.47c0,2.52-.04,2.55-2.65,2.55h-44.13c-2.12,0-3.18-1.06-3.18-3.19v-41.39q0-2.74-2.8-2.74h-17.86c-1.45,0-2.63,1.18-2.63,2.63v56.87c0,18.93,0,38.05-.04,57.1l.04-.04ZM611.89,893.64c-.11-.19-.19-.34-.3-.53-.68,0-1.36-.11-2.03-.11-8.93,0-17.9,0-26.83-.04-1.7,0-2.86.45-4.03,1.7-13.19,14.24-26.45,28.41-39.68,42.62-.75.83-1.51,1.62-2.6,2.75v-2.68c0-13.98-.04-27.96.04-41.94,0-2-.57-2.52-2.52-2.49-6.22.11-12.44.04-18.65.04-.68,0-1.36.08-2.15.11v2.19c0,38.25,0,76.5-.04,114.75,0,1.88.6,2.45,2.41,2.41,6.14-.08,12.32-.08,18.47,0,2,0,2.49-.72,2.49-2.64-.08-12.02-.04-24.08,0-36.1,0-.87,0-2,.53-2.56,3.39-3.73,6.9-7.31,10.44-11.08.45.53.75.83.98,1.21,2.9,4.15,5.77,8.25,8.63,12.4,8.59,12.29,17.22,24.61,25.78,36.93.94,1.36,1.96,1.85,3.54,1.81,8.29-.04,16.58,0,24.87,0,.79,0,1.62-.15,3.01-.3-16.88-23.21-33.46-46.05-50.23-69.11,16.09-16.58,31.99-32.94,47.9-49.33h0ZM1251.23,895.84c0,22.54.08,45.11-.08,67.65,0,4.55-.53,9.18-1.54,13.58-1.43,6.06-5.04,10.61-11.14,12.98-4.59,1.81-9.37,2.03-14.11,1.47-6.51-.79-11.96-3.57-15.2-9.71-2.3-4.4-3.35-9.1-3.35-14-.08-24.08-.08-48.2,0-72.27,0-1.96-.56-2.52-2.52-2.48-6.09.11-12.15.04-18.25.04q-2.52,0-2.52,2.56c0,23.59-.04,47.14,0,70.73,0,8.88,1.47,17.46,5.46,25.51,4.74,9.63,12.23,16.33,22.42,19.6,12.08,3.91,24.34,3.84,36.42-.08,10.27-3.35,17.68-10.23,22.39-19.94,3.88-8.05,5.3-16.67,5.3-25.55v-70.36c0-.45.15-.98-.04-1.35-.23-.45-.71-1.13-1.13-1.13-7.22-.08-14.49-.04-22.12-.04v2.78ZM1405.24,1009.09c0,3.04.04,3.08,3.14,3.12h17.33c1.56,0,2.82-1.26,2.82-2.82v-37.38c0-1.8.56-2.29,2.32-2.29,9.01.08,17.98.08,26.99,0,2.36,0,4.78-.15,7.07-.68,14.99-3.31,24.67-12.28,28.49-27.35,1.42-5.56,1.46-11.27.67-16.9-1.31-9.5-5.12-17.8-12.9-23.81-6.77-5.22-14.62-7.63-22.99-7.74-16.6-.26-33.16-.08-49.76-.08-2.12,0-3.18,1.04-3.18,3.12v112.8h0ZM1428.72,916.97c0-1.54.38-2.14,2.07-2.14,8.45.08,16.9-.15,25.35.11,5.75.15,11.23,1.73,13.79,7.55,2.63,5.97,2.55,12.28.11,18.26-2.48,6.05-8.08,7.66-14.01,7.78-8.45.19-16.9,0-25.35.08-1.62,0-1.95-.64-1.95-2.07.08-4.96,0-9.92,0-14.87s.04-9.8,0-14.69ZM829.77,893.27c-7.55,0-15.1-.08-22.65,0-.53,0-1.31.79-1.5,1.35-.83,2.37-1.46,4.81-2.18,7.21-4.24,14.46-8.53,28.89-12.77,43.35-2.63,8.9-5.18,17.8-7.81,26.71-1.09,3.64-2.22,7.29-3.46,11.34-.34-.98-.56-1.54-.71-2.07-3.42-11.61-6.87-23.21-10.29-34.82-2.48-8.41-4.96-16.79-7.47-25.17-2.59-8.71-5.18-17.39-7.74-26.11-.38-1.28-.98-1.84-2.44-1.84-6.84.08-13.67,0-20.55.04-.6,0-1.2.08-2.03.15.23.98.3,1.77.53,2.48,2.22,6.8,4.47,13.56,6.72,20.36,4.85,14.61,9.69,29.22,14.5,43.84,5.48,16.72,10.93,33.43,16.38,50.15.45,1.43,1.16,2.1,2.74,2.1,6.91-.08,13.82-.08,20.73,0,1.46,0,2.22-.6,2.67-1.95,1.09-3.46,2.25-6.84,3.38-10.29,3.27-10.03,6.54-20.1,9.8-30.13,3.31-10.1,6.65-20.21,9.95-30.28,4.13-12.66,8.3-25.35,12.43-38.01.86-2.67,1.69-5.37,2.52-8.04-.41-.19-.56-.3-.75-.3v-.08ZM1617.64,899.11c6.16,11.31,12.36,22.62,18.56,33.97,5.07,9.28,10.03,18.6,15.18,27.84,1.92,3.46,3.01,6.88,2.93,10.93-.23,12.44-.08,24.91-.08,37.35,0,2.93.08,3.01,3.08,3.01h17.62c2.93,0,3.01-.08,3.01-3.08v-40.66c0-1.05.08-2.25.56-3.16,4.25-7.97,8.57-15.89,12.89-23.82,8.38-15.41,16.8-30.77,25.21-46.18.3-.56.45-1.24.75-2.18h-2.44c-6.65,0-13.3.15-19.95-.08-2.67-.08-3.98.83-5.15,3.12-6.91,13.83-13.98,27.62-20.97,41.41-.9,1.77-1.8,3.49-2.82,5.41-.34-.45-.49-.64-.6-.86-3.95-7.82-7.93-15.63-11.87-23.48-4.06-8-8.12-16.01-12.1-24.01-.6-1.2-1.43-1.58-2.74-1.58-7.29.08-14.62,0-21.91,0-.64,0-1.24.04-2.33.11,1.13,2.18,2.1,4.02,3.08,5.86l.08.08ZM865.46,935.98v-39.73c0-2.08-1.08-3.12-3.23-3.12h-17.63q-2.81,0-2.81,2.71v113.4q0,2.97,3.11,2.97h17.1s3.12.02,3.07-3.13v-73.14l.38.04ZM1002.64,987.27c-1.62,0-2.33.45-2.29,2.22.08,6.84.08,13.67,0,20.51,0,1.62.56,2.25,2.25,2.21,6.89,0,13.78,0,20.67,0,1.66.03,2.25-.6,2.21-2.22-.08-6.84-.08-13.67,0-20.51,0-1.77-.71-2.22-2.33-2.22-3.42.08-6.84,0-10.25,0s-6.84.04-10.25,0ZM168.67,618.55v566.26c-79.35-1.95-123.58-34.71-123.58-131.21v-435.05h123.58ZM448.31,1147.43l-159.09-179.78,159.09-179.7h-120.26l-159.2,179.7,159.2,179.78h120.26Z"/>
    </symbol>

    <symbol id="voce" viewBox="0 0 1803.36 1803.36">
      <path id="QS4Mg4" d="M301.85,672.17c20.84,0,41.69-.01,62.53,0,4.53,0,20.04-2.98,23.86.47,9.38,8.46-5.48,9.35-10.1,9.51-10.34.36-20.78,0-31.13,0-3.08,0-17.71-2.19-20.62,1.36-3.84,4.68,11.61,37.01,13.42,42.5,22.59,68.79,48.35,136.51,71.78,205.02,5.64,16.5,11.55,32.73,17.64,49.06,2.35,6.3,11.68,46.33,19.71,40.71,4.45-3.11,6.37-20.75,7.87-25.95,2.59-8.95,5.19-17.89,8.07-26.75,6.49-19.98,12.94-39.98,19.48-59.94,12.26-37.42,22.68-75.45,35.52-112.65,6.4-18.54,10.99-37.67,17.08-56.31,3.04-9.29,5.68-18.74,8.78-28.01,1.73-5.16,11.23-22.34,8.25-27.08-3.87-6.14-37.98-2-44.59-1.99-4.17.01-17.55,2.62-20.33-1.41-4.82-7,1.64-7.3,5.71-8.64,8.49-2.8,22.21.04,31.33.05,10.44,0,20.88.01,31.33.02,10.44,0,20.88.01,31.33.03,3.67,0,22.43-3.05,25.24,1.12,9.52,14.16-32.95,7.69-38.23,9.05-14.21,3.68-15.79,29.77-19.81,41.63-12.23,36.09-22.67,72.75-34.46,108.97-24.15,74.18-47.45,148.58-70.96,222.97-5.16,16.33-9.28,33.03-15.11,49.14-2.68,7.39-8.17,38.3-21.7,23.41-4.63-5.09-6.58-17.76-8.98-24.48-3.41-9.56-6.58-19.19-9.76-28.83-7.01-21.29-15.09-42.2-22.29-63.43-28.65-84.45-58.99-168.42-88.85-252.45-7.71-21.69-13.73-44.52-23.48-65.42-6.13-13.14-13.17-11.62-27.06-11.67-5.12-.02-19.31,3.38-19.93-4.52-.62-7.88,10.46-5.5,15.02-5.48,24.48.1,48.97-.02,73.45-.03ZM1082.51,679.68c39.47-9.21,82.18.11,113.88,25.25,14.71,11.66,26.6,25.81,35.41,42.38,3.48,6.55,12.97,45.09,21.6,38.66,2.83-2.11.4-25.76.4-29.16.01-10.1.02-20.2.01-30.3,0-10.1,0-20.2-.02-30.3,0-4.45,2.75-20.27-.25-22.93-11.08-9.8-21.36,26.53-28.93,28.97-6.3,2.03-16.96-8.3-21.63-11.27-7.7-4.88-15.57-9.62-23.84-13.48-32.84-15.32-64.91-17.03-99.58-8.36-37.57,9.39-68.4,25.06-95.47,53.39-99.48,104.14-90.09,314.48,44.59,387.19,16.6,8.96,34.77,15.2,53.34,18.39,18.94,3.25,32.99,3.7,51.86.53,18-3.03,33.93-7.23,50.48-15.22,7.93-3.83,15.56-8.23,23.02-12.9,3.75-2.34,10.77-9.43,16.02-8.46,6.93,1.28,22.32,43.1,30.31,28.42,3.3-6.06.08-22.98.09-30.05,0-9.54,0-19.08,0-28.61,0-12.72,0-25.43,0-38.15,0-4.57,2.73-20.89-2.46-23.5-6.87-3.46-20.78,36.7-23.07,41.18-31.76,62.12-106.46,99.43-172.61,65.14-76.03-39.41-61.81-139.31-61.81-211.09-1.44-77.35-7.24-193.35,88.65-215.73ZM1353.31,1104.75c0,11.61-1.25,12.76-12.78,12.77-9.73.01-19.46-.02-29.19.02-2.16,0-4.53.2-4.37,3.19.14,2.57,2.32,2.66,4.27,2.73,1.52.06,3.05.01,4.58.01,82.8.06,165.6.1,248.41.24,3.11,0,4.85-.89,5-3.94.39-8.21,3.28-16.26,3.37-24.22.29-25.19,5.95-49.9,5.89-75.07,0-1.92.54-4.21-2.04-4.59-2.23-.33-3.5,1.55-3.88,3.48-1.86,9.45-5.7,18.27-8.39,27.42-4.09,13.92-10.45,26.54-17.61,38.98-6.85,11.91-15.78,22.24-28.78,26.25-11.65,3.6-24.32,4.86-36.6,5.25-24.21.77-48.45.14-72.68.31-5.05.04-7.51-1.88-7.64-6.87-.06-2.48-.21-4.96-.21-7.43-.01-47.12,0-94.24,0-141.37,0-14.83.02-14.37,14.68-14.96,13.87-.57,27.64.36,40.45,5.21,18.7,7.08,26.35,22.81,28.11,41.77.58,6.25.16,12.58.27,18.88.04,1.99-.55,4.69,2.53,4.86,3.57.19,2.99-2.74,2.99-4.93.02-44.45.02-88.9-.01-133.35,0-2.18.61-5.24-2.75-5.25-3.36,0-2.68,3.07-2.77,5.24-.42,11.12.68,22.16-4.17,33.05-5.4,12.13-13.68,21.01-26.01,24.07-14.12,3.51-28.69,5.46-43.54,4.9-7.34-.28-9.8-2.84-9.79-9.69.08-48.84.07-97.68,0-146.52-.01-6.57,2.74-9.03,9.39-8.9,17.55.33,35.13-.47,52.65.28,16.95.73,33.66,2.29,49.7,9.74,21.01,9.77,30.55,27.76,38.24,47.54,3.05,7.84,4.82,16.17,7.33,24.24.63,2.03.76,5.24,3.85,4.83,3.55-.48,2.46-3.82,2.45-6.08-.04-11.61-3.59-22.86-3.49-34.52.14-16.2-.74-32.33-3.5-48.35-.71-4.09-2.1-5.46-6.15-5.45-79.37.08-158.74.06-238.11.07-2.85,0-6.25-.45-6.12,3.91.13,4.1,3.33,3.94,6.28,3.94,9.16-.02,18.32-.04,27.47-.02,11.36.02,12.71,1.38,12.71,12.97,0,52.46,0,104.93,0,157.39,0,52.65.02,105.31-.02,157.96ZM791.87,858.49c-58.44-11.56-117.02,14.09-145.26,67.15-26.83,50.41-20.15,114.25,15.81,158.35,35.32,43.31,101.48,60.77,151.98,35.8,46.85-23.17,82.56-70.74,78.46-124.99,3.3-61.37-39.19-124.08-100.99-136.31ZM823.95,1084.87c-11.07,24.92-39.37,34.61-64.92,33.5-23.2-1.02-45.06-8.27-57.59-29.1-14.29-23.77-10.15-63.57-10.16-90.37,0-29.5-3.57-63.9,5.65-92.36,7.55-23.3,31.48-36.11,54.7-39.12,25.16-3.27,57.16,6.31,70.24,29.58,15.37,27.35,10.1,64.15,10.54,94.14,0,30.13,4.13,65.4-8.46,93.75ZM1406.24,726.05c11.89-4.47,28.13-12.58,40.65-13.62,12.41-1.03,31.17,8.98,43.2,13.01,9.82,3.29,31.26,16.04,41.24,10.32-14.83-10.29-29.62-20.6-44.24-31.18-7.09-5.13-14.17-10.28-21.24-15.44-4.39-3.2-12.63-11.88-18.25-11.41-5.25.44-14.64,9.89-19.11,13.08-8,5.71-16.01,11.42-24.01,17.14-13.25,9.48-26.44,19.05-39.65,28.6,12.65,1.61,29.71-6.1,41.42-10.5Z"/>
      <path d="M1728.19,75.36v1652.64H75.36V75.36h1652.83M1753.19,50.36H50.36v1702.64h1702.83V50.36h0Z"/>
    </symbol>

    <symbol id="amika" viewBox="0 0 1803.36 1803.36">
      <path d="M768.87,779.11c-25.07,0-47.45,9.84-64.01,25.93,0,0-6.71,6.26-13.88,17.44-16.11-25.93-44.76-43.37-77.88-43.37s-47.45,9.84-64.01,25.93v-25.93h-62.39v271.86h62.39v-174.74c0-21.62,14.46-41.15,35.55-45.93,30.81-6.98,58.05,15.63,58.05,44.63v176.04h62.39v-176.04c0-25.4,21-45.9,46.57-45.9s47.02,20.5,47.02,45.9v176.04h62.39v-180.5c0-50.46-40.91-91.36-91.36-91.36h-.84ZM379.74,801.95c-30.24-22.75-70.08-33.22-112.95-25.91-56.29,9.6-102.34,52.1-114.74,107.84-20.52,92.24,50.85,173.81,141.61,173.81,80.13,0,62.27-10.75,86.08-28.22v21.5h66.85v-271.86h-66.85v22.84ZM307.12,1002.69c-47.24,0-83.79-38.33-83.79-85.57s36.55-85.57,83.79-85.57,82,38.33,82,85.57-34.32,85.57-82,85.57ZM901.18,1050.97h62.39v-271.86h-62.39s0,271.86,0,271.86ZM1243.42,779.11h-84.64l-88.24,87.64v-87.64h-62.39v271.86h62.39v-104.36l9.85-10.3,90.02,114.66h81.51l-126.75-157.65,118.24-114.21h0ZM1449.37,801.88c-27.49-20.62-62.93-31.12-102.07-27.38-62.73,6-115.62,51.78-127.45,113.68-17.33,90.74,53.15,169.49,142.97,169.49,80.59,0,62.73-10.71,86.54-28.12v21.43h66.85v-271.86h-66.85v22.77ZM1374.96,1003.58c-47.69,0-84.23-38.33-84.23-86.02s36.55-86.02,84.23-86.02,82,38.33,82,86.02-34.76,86.02-82,86.02ZM1609.39,866.31c24.96,0,45.46-20.5,45.46-45.46s-20.5-45.46-45.46-45.46-45.46,20.5-45.46,45.46,20.5,45.46,45.46,45.46ZM1609.39,967.92c-24.96,0-45.46,20.5-45.46,45.46s20.5,45.46,45.46,45.46,45.46-20.5,45.46-45.46-20.5-45.46-45.46-45.46Z"/>
    </symbol>
  </defs>
</svg>
