<svg xmlns="http://www.w3.org/2000/svg" version="1.1" xmlns:xlink="http://www.w3.org/1999/xlink" xmlns:svgjs="http://svgjs.com/svgjs" width="3204.33" height="3210.13"><svg id="SvgjsSvg1001" data-name="Layer 1" xmlns="http://www.w3.org/2000/svg" viewBox="0 0 3204.33 3210.13">
  <defs>
    <style>
      .cls-1 {
        fill: #100f12;
      }
    </style>
  </defs>
  <path id="SvgjsPath1000" class="cls-1" d="m3204.33,0v3210.13H0V0h3204.33Zm-1064.63,1655.27h0c270.31,0,490.23,219.92,490.23,490.23v920.26l430.03-169.32v-750.93h0c0-508.24-412.01-920.26-920.25-920.26h0v430.03Zm-1995.32,490.23c0,508.24,412.01,920.26,920.25,920.26h0c508.24,0,920.25-412.01,920.25-920.26h0V144.38l-430.02,169.32v1831.79h0c0,270.31-219.92,490.23-490.23,490.23s-490.23-219.92-490.23-490.23,219.92-490.23,490.23-490.23v-.82h335.42v-429.75h-335.42v.54h0c-508.24,0-920.25,412.01-920.25,920.25h0Z"></path>
</svg><style>@media (prefers-color-scheme: light) { :root { filter: none; } }
@media (prefers-color-scheme: dark) { :root { filter: contrast(0.3846153846153846) brightness(4.5); } }
</style></svg>