<?xml version="1.0" standalone="no"?>
<!DOCTYPE svg PUBLIC "-//W3C//DTD SVG 20010904//EN"
 "http://www.w3.org/TR/2001/REC-SVG-20010904/DTD/svg10.dtd">
<svg version="1.0" xmlns="http://www.w3.org/2000/svg"
 width="3210.000000pt" height="3210.000000pt" viewBox="0 0 3210.000000 3210.000000"
 preserveAspectRatio="xMidYMid meet">
<metadata>
Created by potrace 1.14, written by Peter Selinger 2001-2017
</metadata>
<g transform="translate(0.000000,3210.000000) scale(0.100000,-0.100000)"
fill="#000000" stroke="none">
<path d="M30 16050 l0 -16050 16020 0 16020 0 0 16050 0 16050 -16020 0
-16020 0 0 -16050z m19845 4469 c0 -5568 -4 -10200 -9 -10294 -12 -249 -13
-253 -20 -335 -4 -41 -9 -97 -12 -125 -4 -45 -9 -94 -19 -180 -2 -16 -6 -57
-10 -90 -3 -33 -10 -85 -15 -115 -9 -55 -18 -114 -24 -168 -2 -15 -11 -66 -19
-112 -9 -47 -18 -101 -21 -120 -3 -19 -8 -46 -11 -60 -2 -14 -10 -50 -16 -80
-134 -674 -373 -1418 -640 -1988 -21 -46 -39 -86 -39 -88 0 -13 -217 -439
-293 -574 -223 -400 -497 -817 -747 -1139 -36 -46 -74 -95 -85 -110 -21 -28
-96 -122 -105 -131 -3 -3 -41 -48 -85 -100 -250 -299 -575 -633 -899 -925 -21
-20 -191 -168 -216 -189 -235 -200 -610 -478 -875 -648 -66 -43 -124 -81 -130
-86 -12 -10 -292 -179 -360 -217 -27 -15 -72 -40 -100 -55 -27 -15 -72 -40
-100 -55 -64 -35 -483 -245 -489 -245 -3 0 -38 -15 -78 -34 -93 -43 -149 -68
-218 -96 -30 -12 -73 -30 -95 -40 -88 -38 -554 -209 -610 -224 -5 -1 -55 -17
-110 -34 -248 -77 -631 -178 -830 -218 -11 -2 -31 -6 -45 -9 -14 -3 -36 -7
-50 -10 -56 -11 -126 -25 -145 -29 -42 -9 -403 -65 -455 -71 -30 -4 -66 -8
-80 -10 -24 -4 -64 -9 -155 -19 -94 -11 -188 -19 -370 -32 -382 -27 -1046 -22
-1370 10 -27 3 -81 8 -120 11 -38 3 -83 8 -100 10 -16 2 -57 7 -90 10 -61 6
-107 12 -160 20 -44 7 -127 18 -150 20 -11 1 -33 5 -50 8 -16 4 -43 9 -60 11
-71 11 -130 20 -135 21 -3 1 -25 5 -50 9 -25 5 -52 10 -60 11 -8 2 -60 12
-115 24 -55 11 -109 22 -120 24 -11 2 -31 7 -45 10 -14 4 -74 18 -135 32 -114
27 -439 112 -465 122 -19 8 -16 7 -70 22 -25 7 -112 35 -195 62 -897 297
-1737 723 -2485 1262 -106 76 -159 116 -300 224 -48 37 -332 270 -369 303 -16
14 -64 57 -107 95 -241 215 -556 531 -760 765 -21 24 -47 54 -58 65 -10 11
-50 58 -90 105 -39 47 -73 87 -76 90 -3 3 -17 21 -31 40 -15 19 -35 45 -45 57
-154 179 -482 647 -671 958 -60 99 -113 187 -117 195 -4 8 -12 24 -19 35 -89
146 -289 540 -402 790 -100 222 -295 717 -295 750 0 4 -6 21 -14 38 -8 18 -33
93 -56 167 -23 74 -46 146 -50 160 -8 21 -41 135 -55 190 -2 8 -20 78 -40 155
-21 77 -38 147 -40 155 -2 8 -18 78 -35 155 -17 77 -38 174 -45 215 -8 41 -16
84 -19 95 -5 23 -53 321 -61 380 -3 23 -7 50 -9 60 -2 11 -7 51 -11 88 -3 37
-8 78 -11 90 -2 12 -6 51 -9 87 -4 36 -8 81 -10 100 -2 19 -6 73 -10 120 -4
47 -8 105 -10 130 -29 372 -24 1010 10 1388 3 28 7 77 10 107 12 132 16 172
21 200 2 17 6 50 9 75 4 46 8 74 26 195 6 39 13 84 15 100 3 17 9 55 14 85 5
30 11 69 14 85 2 17 11 64 20 105 8 41 18 95 21 120 4 24 9 48 11 51 2 4 13
52 25 106 26 124 21 103 64 273 20 80 52 199 72 265 19 66 43 149 54 185 43
154 223 654 289 805 10 22 38 87 63 145 89 205 258 555 347 716 281 509 549
912 906 1365 54 68 101 126 105 129 3 3 48 55 99 115 52 61 99 115 105 121 5
6 50 56 100 110 94 104 428 440 530 534 92 84 223 200 290 255 33 28 65 55 70
61 6 6 44 38 85 70 41 32 77 62 80 65 3 3 84 65 180 137 96 72 186 139 200
150 24 18 374 253 416 279 407 253 682 402 1094 596 364 170 891 365 1305 481
72 20 153 43 180 51 41 12 268 68 325 80 119 25 179 37 198 41 33 6 61 11 122
24 30 6 70 13 89 16 18 3 41 7 50 9 9 1 36 6 61 10 25 4 54 9 64 11 11 2 56 9
100 15 110 15 114 15 176 23 134 16 156 19 171 21 8 2 55 6 105 10 49 4 100 9
114 11 14 1 70 5 125 9 55 3 129 8 164 11 179 13 650 17 2174 18 l1667 1 -2
-2150 -3 -2150 -1700 -1 c-935 -1 -1749 -5 -1810 -8 -173 -9 -353 -22 -405
-31 -14 -2 -50 -6 -80 -10 -30 -3 -80 -10 -110 -15 -30 -5 -73 -12 -95 -16
-22 -3 -42 -7 -45 -9 -3 -2 -26 -6 -50 -10 -25 -3 -61 -10 -80 -15 -19 -5 -46
-11 -60 -13 -14 -3 -45 -10 -70 -17 -25 -7 -49 -13 -55 -15 -36 -8 -81 -20
-155 -42 -46 -14 -91 -26 -100 -28 -30 -6 -227 -78 -345 -125 -925 -369 -1714
-1010 -2274 -1848 -85 -127 -111 -170 -215 -357 -57 -101 -141 -270 -178 -355
-9 -19 -22 -51 -31 -70 -94 -216 -177 -464 -241 -715 -40 -157 -75 -322 -81
-379 -2 -13 -5 -32 -8 -43 -3 -10 -9 -43 -12 -73 -3 -30 -8 -62 -10 -70 -2 -8
-7 -49 -10 -90 -4 -41 -9 -83 -11 -93 -23 -121 -22 -742 1 -927 2 -14 6 -52
10 -85 3 -33 13 -107 22 -165 8 -58 17 -114 18 -125 13 -97 87 -407 131 -555
56 -185 144 -427 200 -548 19 -41 34 -76 34 -78 0 -3 35 -76 79 -162 315 -628
748 -1169 1296 -1618 50 -41 286 -218 321 -241 11 -7 42 -28 70 -47 178 -120
667 -386 709 -386 8 0 15 -4 15 -10 0 -5 6 -10 13 -10 8 0 54 -17 103 -39 135
-58 440 -162 569 -194 11 -2 54 -14 95 -25 64 -17 117 -30 255 -58 77 -16 234
-39 355 -54 52 -6 109 -13 125 -15 175 -23 780 -24 900 -1 11 2 54 7 95 10 41
4 116 13 165 21 50 7 110 17 135 20 25 3 52 8 60 10 8 2 31 7 50 10 31 5 109
23 250 56 135 33 413 121 555 176 362 142 630 281 948 491 142 94 406 288 448
331 9 9 25 23 35 31 116 95 371 346 494 486 210 240 411 517 558 771 220 381
376 749 487 1148 33 118 70 266 78 315 3 14 8 43 12 65 9 45 11 57 25 135 14
75 37 259 45 350 4 41 9 91 12 110 3 19 7 4220 8 9335 2 5115 4 9307 4 9315 1
9 18 22 39 29 20 7 51 19 67 26 17 8 113 46 215 85 102 39 194 75 205 80 18 8
59 24 230 91 28 11 59 24 70 29 11 5 144 57 295 115 151 59 294 116 317 126
24 10 45 19 47 19 3 0 17 5 33 12 15 6 30 12 33 12 6 1 159 62 205 81 17 7 91
36 165 65 74 28 149 58 165 65 17 8 91 37 165 66 164 63 653 255 695 273 17 7
46 19 65 26 19 6 44 16 55 20 93 39 70 30 760 300 171 66 319 125 330 130 51
24 121 49 130 46 7 -2 10 -3386 10 -10127z m2034 -684 c242 -15 242 -15 401
-30 141 -13 169 -16 320 -35 125 -16 401 -60 466 -74 12 -2 37 -7 55 -10 59
-9 319 -66 449 -97 69 -17 136 -33 149 -35 13 -3 31 -9 40 -13 9 -5 32 -11 51
-15 77 -14 412 -118 685 -213 55 -19 114 -41 130 -48 17 -7 46 -18 65 -25 45
-15 64 -23 122 -49 26 -12 50 -21 52 -21 9 0 217 -90 366 -158 137 -62 478
-232 565 -282 22 -12 92 -52 155 -88 247 -140 716 -442 845 -544 6 -4 71 -54
145 -110 119 -90 315 -244 346 -273 16 -14 58 -50 134 -114 36 -30 72 -61 81
-70 9 -9 56 -52 105 -96 101 -91 445 -432 549 -546 98 -106 193 -214 224 -253
14 -18 33 -39 41 -48 34 -35 223 -271 314 -393 54 -71 103 -137 110 -145 91
-117 486 -723 486 -746 0 -3 8 -18 19 -32 57 -82 301 -549 406 -777 63 -136
155 -355 202 -475 24 -63 48 -124 53 -135 9 -22 21 -55 26 -70 2 -5 31 -89 64
-185 122 -349 266 -879 314 -1155 3 -16 14 -75 25 -130 11 -55 27 -145 35
-200 9 -55 18 -109 20 -121 2 -12 7 -45 11 -75 3 -30 8 -65 10 -79 7 -36 43
-370 50 -466 9 -109 12 -164 21 -324 5 -74 8 -1892 9 -4039 l0 -3903 -95 -38
c-52 -21 -153 -61 -225 -90 -71 -28 -144 -58 -162 -66 -17 -8 -36 -14 -42 -14
-6 0 -19 -4 -29 -10 -9 -5 -127 -53 -262 -106 -135 -53 -297 -116 -360 -141
-63 -25 -207 -81 -319 -125 -112 -44 -218 -86 -235 -93 -17 -8 -166 -66 -331
-130 -165 -64 -319 -126 -342 -136 -24 -10 -46 -19 -49 -19 -3 0 -20 -6 -37
-14 -18 -8 -93 -38 -167 -66 -232 -90 -364 -142 -395 -155 -39 -16 -77 -31
-280 -110 -93 -37 -179 -70 -190 -75 -11 -5 -105 -43 -210 -84 -104 -40 -271
-106 -370 -145 -99 -39 -184 -71 -190 -71 -7 0 -10 1573 -11 4698 0 2583 -3
4747 -7 4807 -7 110 -8 125 -27 285 -12 97 -15 121 -36 240 -22 131 -25 148
-50 255 -3 11 -7 31 -10 45 -14 73 -73 275 -121 420 -208 618 -530 1178 -963
1674 -107 123 -334 351 -450 451 -30 26 -68 60 -85 74 -119 105 -505 382 -620
445 -16 9 -37 21 -45 26 -69 46 -485 260 -505 260 -3 0 -24 9 -48 19 -186 84
-540 207 -712 246 -49 11 -112 26 -135 31 -14 3 -41 9 -60 14 -42 11 -251 48
-312 55 -23 3 -54 7 -68 10 -41 8 -131 17 -300 31 -61 4 -209 11 -325 14 -20
0 -20 6 -19 2148 1 1181 2 2148 3 2150 1 4 366 -6 480 -13z"/>
</g>
</svg>
