<?xml version="1.0" encoding="UTF-8"?>
<svg id="Layer_1" xmlns="http://www.w3.org/2000/svg" viewBox="0 0 350.1 350.1">
  <defs>
    <style>
      .cls-1 {
        fill: #100f12;
      }
    </style>
  </defs>
  <path class="cls-1" d="M175.05,0C78.37,0,0,78.37,0,175.05s78.37,175.05,175.05,175.05,175.05-78.37,175.05-175.05S271.73,0,175.05,0ZM162.79,226.95c-12.09,12.46-27.71,17.48-55.05,17.48-19.16,0-33.1-2.98-42.4-8.93-8.74-5.76-13.02-12.46-13.02-20.27,0-10.6,8.37-18.23,19.9-18.23,10.79,0,18.22,6.7,18.22,16.18,0,8.93-6.88,14.69-17.67,14.69-3.35,0-5.58-.37-9.3-1.67,9.67,8.18,20.64,12.09,34.22,12.09,14.32,0,24.36-4.09,30.68-12.46,4.46-6.14,6.88-13.39,6.88-21.01,0-19.9-14.32-33.29-35.33-33.29-10.97,0-22.87,3.53-29.01,8.55-2.6,2.05-4.65,4.65-7.62,9.3l-6.32-1.3c3.72-11.16,6.14-31.06,6.14-50.77,0-8-.37-12.65-1.67-19.34l4.09-1.12c3.91,2.98,7.44,3.72,23.62,5.58q7.44.74,45.38,2.98c8.37.56,17.3-3.35,26.22-11.16h3.91c-1.12,8.55-4.65,15.25-11.34,21.01-9.86,8.18-24.55,11.72-49.47,11.72-11.34,0-22.69-.56-36.08-2.05-.19,1.49-.19,2.6-.19,2.79l-.93,12.27c.19.19-1.12,10.23-2.42,19.34,10.41-10.23,23.06-14.13,44.82-14.13,38.5,0,64.9,14.69,64.9,36.26,0,8.37-4.46,18.41-11.16,25.48ZM290.36,226.95c-12.09,12.46-27.71,17.48-55.05,17.48-19.15,0-33.1-2.98-42.4-8.93-8.74-5.76-13.02-12.46-13.02-20.27,0-10.6,8.37-18.23,19.9-18.23,10.79,0,18.23,6.7,18.23,16.18,0,8.93-6.88,14.69-17.67,14.69-3.35,0-5.58-.37-9.3-1.67,9.67,8.18,20.64,12.09,34.22,12.09,14.32,0,24.36-4.09,30.68-12.46,4.46-6.14,6.88-13.39,6.88-21.01,0-19.9-14.32-33.29-35.33-33.29-10.97,0-22.87,3.53-29.01,8.55-2.6,2.05-4.65,4.65-7.63,9.3l-6.32-1.3c3.72-11.16,6.14-31.06,6.14-50.77,0-8-.37-12.65-1.67-19.34l4.09-1.12c3.91,2.98,7.44,3.72,23.62,5.58q7.44.74,45.38,2.98c8.37.56,17.29-3.35,26.22-11.16h3.91c-1.12,8.55-4.65,15.25-11.34,21.01-9.86,8.18-24.55,11.72-49.47,11.72-11.34,0-22.69-.56-36.08-2.05-.19,1.49-.19,2.6-.19,2.79l-.93,12.27c.19.19-1.12,10.23-2.42,19.34,10.41-10.23,23.06-14.13,44.82-14.13,38.5,0,64.9,14.69,64.9,36.26,0,8.37-4.46,18.41-11.16,25.48Z"/>
</svg>