<?xml version="1.0" encoding="UTF-8"?>
<svg id="Layer_1" xmlns="http://www.w3.org/2000/svg" viewBox="0 0 4562.07 1507.51">
  <defs>
    <style>
      .cls-1 {
        fill-rule: evenodd;
      }
    </style>
  </defs>
  <path d="M4188.68,1158.27c.69,1.1,1.41,2.18,2.05,3.31,18,31.26,36.03,62.49,53.92,93.81,1.79,3.14,3.83,4.48,7.49,4.37,8.15-.24,16.32-.05,24.48-.08,6.07-.02,6.41-.34,6.42-6.59.02-26.95.01-53.9.01-80.84,0-19.3-.09-38.59.06-57.89.04-4.58-1.22-6.72-6.24-6.42-6.31.37-12.67.38-18.98,0-4.75-.29-5.81,1.5-5.78,5.95.17,30.77.09,61.55.08,92.32,0,1.34-.15,2.68-.28,4.98-7.89-13.77-15.25-26.59-22.59-39.42-11.22-19.62-22.37-39.29-33.74-58.82-1.17-2.02-3.58-4.59-5.52-4.68-9.8-.48-19.65-.35-29.46-.07-1.31.04-3.07,1.94-3.68,3.37-.67,1.57-.28,3.6-.28,5.42,0,44.58,0,89.16,0,133.74,0,1.16.06,2.33.01,3.49-.17,3.86,1.23,5.82,5.51,5.53,4.64-.31,9.32.02,13.99-.09,12.06-.28,11.66,2.67,11.66-11.8,0-29.77,0-59.53,0-89.3.29-.1.58-.2.87-.31ZM3195.43,1125.26c-9.19-11.66-22.33-16.47-36.43-16.95-23.96-.81-47.96-.24-71.95-.31-3.21,0-4.54,1.41-4.45,4.52.08,2.66,0,5.32,0,7.98,0,44.08,0,88.17,0,132.25,0,6.84.08,6.89,7.06,6.91,5.66.01,11.33.02,16.99,0,6.65-.02,6.8-.15,6.81-6.67.02-15.47.04-30.94-.02-46.41,0-2.79.21-4.87,3.9-4.83,11.82.13,23.66-.28,35.47.15,12.46.45,16.74,5.38,16.77,17.98.02,7.82-.21,15.65.1,23.45.16,4.1.94,8.24,2.02,12.2.43,1.57,2.42,3.81,3.77,3.86,9.1.34,18.22.18,27.56.18,0-1.26.16-1.95-.02-2.53-3.58-11.61-3.93-23.55-3.5-35.53.48-13.47-2.51-25.39-14.17-33.75,21.41-16.14,25.73-42.67,10.08-62.52ZM3117.45,1173.96c-3.59.13-5.08-.98-5-4.79.21-9.62.11-19.25.04-28.88-.02-2.72.54-4.49,3.81-4.4,13.93.37,27.89.29,41.79,1.07,9.19.52,15.01,6.88,15.47,15.26.6,10.89-4.4,18.59-13.87,20.59-4.01.85-8.21.88-12.33,1.05-3.98.17-7.98.04-11.96.04-5.98,0-11.97-.15-17.95.06ZM3988.41,1197.25c2.98,17.88,10.28,33.66,23.89,46.01,16.87,15.31,36.73,21.28,59.38,18.51,17.08-2.09,31.7-9.12,43.04-21.91,20.44-23.05,26.21-49.95,18.31-79.46-14.2-53.06-71.31-70.59-111.66-43.94-23.43,15.48-33.29,38.86-34.34,67.23.39,4,.59,8.83,1.38,13.56ZM4091.77,1219.06c-20.66,22.38-50.49,16.59-65.06-7.03-13.1-21.24-11.29-46.7,5.34-65.23,19.14-21.33,50.79-18.06,66.19,8.72,4.88,8.49,7.57,17.68,7.16,25.66.04,15.67-4.34,27.82-13.63,37.88ZM3370.1,1169.76c-6.1-37.52-36.12-69.43-81.7-64.79-18.04,1.84-33.39,9.17-45.28,22.66-19.46,22.05-25.05,47.96-18.44,76.27,12.12,51.92,66.13,72.5,107.58,49.47,26.89-14.94,37.65-39.99,39.27-70.21-.43-4.16-.68-8.82-1.42-13.4ZM3272.06,1142.01c19.98-15.83,46.85-10.24,60.1,11.84,12.5,20.83,11.26,45.78-4.54,64.14-20.16,23.44-50.97,18.81-66.91-7.2-5.3-8.66-7.31-17.57-7.38-28.11.25-16.3,5.85-30.47,18.72-40.67ZM3795.34,1207.91c-8.41,0-9.12.9-7.66,9.17,2.75,15.48,10.87,27.26,24.3,35.42,9.58,5.82,20.12,8.89,31.16,9.68,19.55,1.4,38.22-1.35,54.26-13.9,20.7-16.19,22.69-55.12-5.01-69.23-8.78-4.47-18.56-7.13-28.07-9.98-11.28-3.38-22.83-5.82-34.12-9.14-5.4-1.59-8.66-5.96-8.65-11.63,0-5.23,3.35-8.85,7.92-11.25,8.95-4.71,18.54-5.15,28.2-3.54,10.63,1.78,17.88,7.48,19.92,18.77.24,1.31,2.92,3,4.55,3.09,6.65.36,13.32.23,19.98.16,5.92-.07,6.85-1.08,5.93-6.82-2.4-15.07-9.49-27.49-22.73-35.31-21.68-12.81-44.46-12.17-67.18-3.01-17.76,7.16-27.79,21.98-27.4,39.61.43,19.1,11.21,31.09,28.09,37.98,7.34,3,15.24,4.6,22.9,6.79,10.2,2.92,20.47,5.62,30.61,8.75,5.95,1.83,9.79,6.19,9.75,12.49-.05,6.52-3.79,11.22-9.79,13.87-9.66,4.27-19.72,6.14-30.14,3.78-9.93-2.25-18.51-6.69-22.75-16.78-1.22-2.91-1.63-7.07-3.81-8.42-2.44-1.51-6.45-.48-9.78-.54-1-.02-2,0-3,0-2.5,0-5,0-7.5,0ZM3662.81,1207.91c-3,0-6-.02-8.99,0-6.12.05-7.07,1.02-6.25,7.07,2.11,15.52,9.3,28.15,22.79,36.32,22.91,13.88,47.23,14.58,71.94,5.61,17.53-6.37,28.56-18.67,30.49-37.7,1.53-15.01-2.76-27.92-15.46-37.2-9.92-7.24-21.52-10.17-33.15-13.09-11.1-2.79-22.2-5.61-33.2-8.74-5.63-1.61-9.18-5.74-9.25-11.67-.06-5.48,3.32-9.34,8.18-11.58,11.22-5.18,22.86-5.89,34.41-1.57,6.9,2.58,11.82,7.82,12.85,15.35.57,4.11,2.54,4.87,5.92,4.85,6.33-.04,12.66.03,18.99-.01,6.21-.05,7.03-.89,6.04-7.09-2.39-14.87-9.6-26.81-22.38-35.03-20.63-13.27-56.24-12.18-76.51,1.67-22.92,15.65-24.37,48.4-4.16,64.74,9.63,7.79,21.03,11.06,32.69,14.02,11.41,2.89,22.8,5.94,34.06,9.35,6.17,1.87,10.58,6.11,10.43,13.04-.15,7.12-4.61,11.5-10.91,14.12-9.42,3.92-19.2,5.67-29.24,3.27-12.22-2.92-21.86-8.84-24.06-22.67-.19-1.17-2.38-2.73-3.77-2.87-3.79-.4-7.65-.14-11.48-.14v-.04ZM3520.44,1253.66c-.02,4.01.89,6.11,5.53,6.09,34.31-.13,68.61-.12,102.92,0,4.07.01,5.27-1.76,5.22-5.38-.07-5.49.02-10.98-.01-16.47-.04-6.77-.28-7.02-7.05-7.02-23.32-.01-46.63-.13-69.94.1-4.74.05-6.01-1.51-5.83-6.01.32-7.97.41-15.98-.02-23.94-.29-5.26,1.67-6.38,6.57-6.32,19.15.26,38.3.01,57.45.18,3.89.04,5.36-1.05,5.14-5.04-.29-5.47-.06-10.97-.07-16.46,0-7.22-.06-7.31-7.18-7.32-18.65-.02-37.31-.12-55.96.08-4.44.05-6.38-1.04-6.05-5.83.39-5.63.08-11.3.09-16.96q.01-6.54,6.62-6.56c22.48,0,44.96,0,67.45-.01,6.63,0,6.91-.3,6.95-6.62.03-5.32-.21-10.66.07-15.96.25-4.78-1.58-6.3-6.37-6.28-32.97.17-65.95.08-98.92.1-6.26,0-6.53.26-6.54,6.42-.02,23.12,0,46.24,0,69.36,0,23.29.05,46.57-.05,69.86ZM4435.98,1259.71c4.43.19,5.09-1.65,3.71-5.5-4.99-13.91-9.81-27.88-14.7-41.82-11.58-33.07-23.23-66.11-34.66-99.23-1.37-3.97-3.32-5.39-7.51-5.23-8.65.32-17.33.35-25.97,0-4.52-.19-6.37,1.6-7.77,5.68-9.17,26.7-18.57,53.31-27.91,79.95-6.92,19.74-13.87,39.48-20.8,59.22-2.23,6.37-1.88,6.89,4.64,6.91,6.66.02,13.33-.22,19.98.09,3.99.18,6.03-1.09,7.18-5.02,2.04-7,4.75-13.81,6.93-20.78,1.01-3.24,2.77-4.37,6.16-4.32,12.49.18,24.98,0,37.47.1,5.29.04,11.89-1.44,15.48,1.13,3.6,2.58,4.33,9.3,6.06,14.3,5.02,14.5,4.97,14.52,20.24,14.52,3.83,0,7.67-.13,11.49.03ZM4388.78,1200.65h-38.32c6.28-18.51,12.46-36.72,19.13-56.39,6.65,19.56,12.82,37.68,19.18,56.39ZM2948.59,1253.48c-.04,4.81,1.61,6.53,6.38,6.28,5.98-.31,11.99-.06,17.98-.08,6.35-.03,6.56-.22,6.57-6.38.02-12.48-.03-24.95.02-37.43.05-10.09-1.39-9.24,9.33-9.43,11.8-.22,23.85.69,35.36-1.33,40.55-7.11,48.17-51.61,30.48-78-8.9-13.28-22.85-18.57-38.32-18.95-20.31-.5-40.64-.14-60.96-.13-6.59,0-6.75.15-6.76,6.71-.02,22.96,0,45.91,0,68.87,0,23.29.1,46.58-.08,69.87ZM2979.69,1139.96c.09-1.4,1.94-3.85,2.98-3.85,11.8.01,23.65-.13,35.39.87,9.25.79,14.28,7.26,14.62,16.64.11,2.99.15,6-.09,8.98-.69,8.58-7.91,15.05-17.44,15.27-10.49.24-20.99,0-31.49.11-2.97.03-4.22-1.03-4.15-4.07.14-5.82.04-11.65.04-17.47,0-5.49-.21-11,.14-16.46ZM3391.49,1253.73c-.03,4.26.8,6.41,5.75,6.1,6.8-.43,13.65-.3,20.47-.03,3.83.15,4.8-1.29,4.76-4.9-.15-16.63.15-33.26-.19-49.88-.1-5.22,1.63-6.4,6.56-6.33,18.64.27,37.29.02,55.94.17,4.15.03,5.69-1.51,5.56-5.54-.17-5.32-.02-10.64-.04-15.96-.02-7.24-.1-7.34-7.22-7.35-18.15-.02-36.3-.14-54.44.09-4.6.06-6.64-.95-6.34-6.02.42-6.96.44-13.98,0-20.94-.33-5.2,1.55-6.42,6.51-6.36,22.31.25,44.62.03,66.93.18,4.14.03,5.71-1.47,5.59-5.51-.17-5.48-.01-10.97-.04-16.46-.03-6.56-.29-6.86-6.71-6.86-32.13-.02-64.27-.02-96.4,0-6.34,0-6.62.32-6.63,6.92-.02,23.11,0,46.23,0,69.34,0,23.11.08,46.23-.07,69.34ZM4555.46,1231.81c-20.48,0-40.96-.17-61.44.11-5.18.07-6.45-1.65-6.42-6.58.18-35.75.1-71.51.09-107.27,0-1.83-.06-3.66-.05-5.49.02-3.25-1.3-4.75-4.82-4.63-6.82.22-13.66.31-20.47-.03-4.45-.22-5.86,1.55-5.86,5.72.06,46.73.07,93.46-.02,140.2,0,4.51,1.62,5.96,6.2,5.93,31.14-.18,62.28-.09,93.41-.1,1,0,2.21.32,2.95-.12,1.17-.72,2.85-1.93,2.89-2.98.24-7.96.13-15.92.13-24.77-2.66,0-4.62,0-6.58,0ZM3935.21,1254.18c-.04,4.48,1.36,5.81,5.69,5.58,6.14-.32,12.32-.07,18.48-.08,6.53-.02,6.77-.22,6.77-6.74.02-31.93.01-63.87.01-95.8,0-14.47-.1-28.94.05-43.41.04-4.28-1.45-5.97-5.84-5.78-6.48.28-13,.31-19.48-.01-4.31-.22-5.73,1.04-5.69,5.54.22,23.28.1,46.57.1,69.85s.11,47.24-.1,70.85Z"/>
  <path d="M2813.26,963.84c2.87-9.99,5.58-19.15,8.15-28.35,5.35-19.16,10.63-38.33,15.95-57.5,8.57-30.89,17.13-61.78,25.72-92.65,4.6-16.52,9.31-33.01,13.85-49.54.79-2.88,2-4.26,5.27-4.25,27.68.12,55.37.07,83.05.09,1,0,2,.19,3.75.37,0,2.14,0,4.13,0,6.12,0,101.15,0,202.3,0,303.45,0,6.9-.01,6.96-6.75,6.97-15.48.04-30.95.03-46.43,0-7.34-.01-7.55-.24-7.55-7.48,0-69.38,0-138.76,0-208.14v-5.66c-.22-.06-.45-.11-.67-.17-3.54,12.6-7.1,25.2-10.61,37.81-7.17,25.77-14.33,51.54-21.44,77.32-8.61,31.23-17.07,62.51-25.8,93.7-4.21,15.03-1.87,12.44-15.68,12.58-15.3.16-30.61-.12-45.91.12-5.2.08-7.88-1.27-9.39-6.81-13.04-47.98-26.41-95.87-39.72-143.77-6.51-23.46-13.09-46.89-19.65-70.34-.22-.78-.53-1.54-1.14-3.28,0,71.93.04,142.82-.04,213.7-.01,10.46,2.57,10.43-10.52,10.42-14.27,0-28.54.02-42.81-.01-7.15-.02-7.37-.25-7.37-7.11,0-100.98,0-201.95,0-302.93,0-6.88.03-6.9,6.69-6.9,26.14,0,52.27.12,78.41-.12,4.53-.04,6.22,1.56,7.36,5.7,11.65,42.31,23.49,84.58,35.27,126.86,8.92,32.04,17.83,64.08,26.75,96.12.27.97.65,1.9,1.27,3.66ZM2298.6,829.56c3.79,6.46,7.65,12.89,11.37,19.4,18.4,32.19,36.72,64.42,55.15,96.59,18.77,32.77,37.71,65.44,56.39,98.26,1.99,3.5,4.27,4.82,8.15,4.8,20.64-.11,41.27-.14,61.91,0,4.83.03,6.58-1.58,6.54-6.59-.22-24.39-.1-48.78-.1-73.16,0-75.91,0-151.83,0-227.74,0-11.24.7-9.43-9.76-9.5-15.13-.09-30.27-.03-45.4-.02q-7.49,0-7.51,7.71c0,68.7,0,137.4,0,206.1v5.25c-1.77-1.41-2.62-2.89-3.46-4.36-8.31-14.63-16.59-29.27-24.94-43.87-18.73-32.78-37.49-65.55-56.24-98.33-13.04-22.79-26.14-45.55-39.06-68.41-1.76-3.12-3.82-4.18-7.35-4.16-20.81.15-41.62.25-62.42-.05-5.33-.08-6.7,1.66-6.69,6.73.12,101.16.08,202.32.1,303.48,0,6.42.45,6.84,7.2,6.85,15.48.04,30.95.02,46.43.01q8.76,0,8.77-8.92c0-68.01,0-136.02,0-204.04v-5.91c.31-.05.62-.09.92-.14ZM3538.34,893.25c13.77-9.01,24.06-20.75,29.47-36.55,4.95-14.45,5.86-29.2,3.95-44.19-3.11-24.38-13.36-44.74-33.6-59.61-20.03-14.73-42.93-20.82-67.18-21.11-48.48-.59-96.96-.18-145.45-.18-7.16,0-7.2.01-7.2,7.01,0,100.97,0,201.93,0,302.9,0,6.62.37,7.01,7,7.03,15.82.04,31.63.03,47.45,0,7.24-.01,7.25-.05,7.25-7.52,0-36.06.03-72.12-.04-108.18,0-3.56.36-5.8,4.89-5.77,27.51.18,55.02-.1,82.52.28,10.73.15,21.56,2.62,27.17,12.79,3.51,6.35,5.67,14.13,6.01,21.39.85,17.99-.16,36.06.51,54.07.34,8.98,2.65,17.9,4.21,26.82.81,4.63,3.69,6.28,8.45,6.21,16.67-.22,33.35-.06,50.03-.13,1.94,0,3.87-.56,5.99-.88-.3-1.48-.4-2.32-.64-3.13-3.95-13.55-6.68-27.26-6.52-41.49.17-14.76.28-29.54-.05-44.3-.35-15.55-3.74-30.44-13.54-42.93-5.02-6.39-11.32-11.76-17.6-18.16,2.07-1.31,4.52-2.81,6.93-4.38ZM3466.33,789.43c7.45.36,15.24,1.41,22.13,4.09,12.24,4.75,20.12,13.53,21.47,27.58,1.65,17.08-1.29,31.93-16.88,41.74-8.46,5.33-17.91,7.89-27.89,7.93-26.65.12-53.3-.01-79.95.14-4.14.02-5.27-1.45-5.25-5.41.14-23.7.15-47.39,0-71.09-.03-4.15,1.43-5.3,5.41-5.24,13.75.19,27.51.07,41.26.07,13.24,0,26.5-.45,39.71.18ZM1549.69,1041.87c-.01,4.7,1.03,6.77,6.21,6.76,74.45-.12,148.89-.11,223.34-.02,4.67,0,6.4-1.68,6.35-6.33-.17-14.59-.04-29.19-.06-43.79-.01-7.9-.23-8.12-8.06-8.12-53.3,0-106.6-.06-159.9.1-4.79.01-6.14-1.41-6.09-6.14.23-21.98.27-43.96-.02-65.94-.07-5.28,1.5-6.64,6.69-6.61,44.01.2,88.03.12,132.04.11,6.71,0,6.74-.02,6.75-6.91.02-14.08.01-28.16,0-42.24q0-8.37-8.64-8.37c-43.5,0-87-.08-130.5.1-5.04.02-6.41-1.54-6.33-6.44.27-17.34.1-34.69.11-52.03q0-6.74,6.82-6.75c52.44,0,104.88-.05,157.32.09,4.66.01,6.29-1.25,6.2-6.07-.28-14.93-.09-29.88-.1-44.82q0-6.83-6.67-6.84c-72.9,0-145.8,0-218.7,0-6.65,0-6.67.02-6.67,6.84,0,50.48,0,100.97,0,151.45,0,50.66.05,101.31-.09,151.97ZM3901.25,1041.95c-.02,5.39,1.86,6.74,6.82,6.68,15.81-.2,31.63-.07,47.45-.08,8.24,0,8.3-.07,8.31-8.32,0-39.15,0-78.3,0-117.44,0-6.92.03-6.95,6.79-6.95,39.2,0,78.39,0,117.59,0q7.56,0,7.57,7.75c0,39.32,0,78.64.02,117.96,0,6.62.39,6.98,7.02,7,15.47.03,30.95.02,46.42,0q8.79,0,8.8-8.87c0-90.66,0-181.32,0-271.98,0-10.13-.17-20.26.07-30.39.11-4.54-1.54-5.87-6-5.81-16.16.23-32.32.09-48.48.09-7.8,0-7.83,0-7.83,7.95,0,37.09,0,74.18-.01,111.26,0,6.73-.13,6.85-6.99,6.85-38.85.01-77.71,0-116.56,0q-8.4,0-8.4-8.52c0-36.74,0-73.49,0-110.23,0-7.31-.04-7.31-7.44-7.32-15.99,0-31.98,0-47.97,0q-7.02,0-7.04,6.95c0,50.48,0,100.96,0,151.44s.08,101.3-.12,151.96ZM1508.85,733.31c-.27-.47-.55-.95-.82-1.42-1.8-.09-3.61-.27-5.41-.27-23.73-.02-47.46.09-71.19-.11-4.48-.04-7.6,1.21-10.69,4.54-35.02,37.77-70.2,75.4-105.34,113.07-2.01,2.15-4.05,4.29-6.88,7.28,0-3.31,0-5.19,0-7.06,0-37.1-.11-74.2.12-111.29.03-5.29-1.53-6.67-6.7-6.57-16.5.32-33.01.11-49.52.13-1.8,0-3.61.19-5.71.31,0,2.35,0,4.06,0,5.76,0,101.5.04,203-.11,304.51,0,5.05,1.6,6.5,6.43,6.44,16.33-.21,32.67-.24,49.01.01,5.31.08,6.62-1.9,6.59-6.96-.21-31.94-.13-63.89-.04-95.83,0-2.3.09-5.29,1.44-6.79,8.95-9.88,18.26-19.44,27.7-29.36,1.17,1.4,1.98,2.24,2.64,3.19,7.66,10.96,15.27,21.94,22.93,32.89,22.82,32.65,45.71,65.25,68.39,97.99,2.47,3.56,5.16,4.87,9.36,4.84,22.01-.14,44.02-.05,66.03-.1,2.14,0,4.28-.43,7.97-.83-44.8-61.65-88.84-122.25-133.31-183.45,42.68-43.96,84.91-87.45,127.13-130.93ZM3210.99,738.83c0,59.93.22,119.85-.18,179.78-.08,12.08-1.39,24.4-4.13,36.14-3.77,16.13-13.44,28.21-29.57,34.52-12.24,4.79-24.92,5.44-37.55,3.91-17.31-2.1-31.85-9.46-40.37-25.79-6.08-11.66-8.85-24.23-8.9-37.17-.22-64.05-.17-128.1,0-192.14.01-5.24-1.45-6.7-6.67-6.59-16.15.33-32.32.12-48.48.12-6.72,0-6.74.01-6.74,6.77,0,62.67-.11,125.35.05,188.02.06,23.55,3.95,46.42,14.48,67.81,12.62,25.63,32.52,43.4,59.57,52.14,32.08,10.37,64.71,10.24,96.77-.17,27.31-8.87,47.01-27.16,59.45-52.99,10.32-21.43,14.12-44.3,14.12-67.91,0-62.33,0-124.66,0-186.99,0-1.2.37-2.6-.12-3.56-.63-1.22-1.94-2.97-2.97-2.98-19.24-.18-38.49-.13-58.75-.13v7.2ZM3621.47,1040.3c0,8.15.1,8.25,8.42,8.25,15.47.01,30.95.02,46.43,0,7.27-.01,7.52-.28,7.52-7.56.01-33.14.09-66.29-.09-99.43-.03-4.81,1.5-6.11,6.2-6.07,24.07.21,48.14.21,72.21,0,6.33-.05,12.79-.44,18.94-1.8,40.11-8.82,66.02-32.75,76.22-72.83,3.77-14.83,3.87-30.01,1.77-45.03-3.55-25.32-13.69-47.36-34.53-63.39-18.1-13.91-39.1-20.3-61.47-20.64-44.35-.68-88.72-.21-133.08-.21q-8.52,0-8.53,8.35c0,49.97,0,99.95,0,149.92,0,50.14,0,100.29,0,150.43ZM3683.77,794.87c-.06-4.1,1.04-5.75,5.48-5.71,22.5.2,45.02-.36,67.5.25,15.33.42,29.86,4.58,36.69,20.13,6.97,15.86,6.85,32.74.33,48.61-6.61,16.12-21.5,20.38-37.31,20.73-22.49.49-45,.03-67.51.22-4.29.04-5.22-1.66-5.17-5.48.15-13.21.06-26.42.06-39.63,0-13.04.12-26.08-.07-39.12ZM2088.69,731.77c-20.11-.07-40.23-.18-60.33.02-1.38.01-3.46,2.05-3.99,3.58-2.18,6.31-3.87,12.8-5.76,19.21-11.34,38.47-22.71,76.93-34.03,115.41-6.97,23.69-13.82,47.41-20.79,71.09-2.86,9.73-5.9,19.42-9.19,30.19-.91-2.65-1.47-4.08-1.9-5.54-9.14-30.91-18.26-61.83-27.41-92.74-6.61-22.35-13.25-44.7-19.89-67.04-6.89-23.18-13.83-46.34-20.64-69.55-1.01-3.44-2.56-4.94-6.45-4.89-18.22.22-36.45.09-54.67.12-1.62,0-3.25.24-5.37.41.56,2.64.79,4.67,1.41,6.58,5.92,18.08,11.91,36.15,17.89,54.22,12.86,38.91,25.79,77.81,38.58,116.75,14.6,44.47,29.11,88.97,43.56,133.49,1.23,3.8,3.07,5.59,7.29,5.56,18.39-.17,36.79-.15,55.19-.01,3.95.03,5.93-1.59,7.08-5.2,2.9-9.16,6.03-18.24,9.02-27.37,8.73-26.73,17.4-53.47,26.14-80.19,8.8-26.89,17.67-53.75,26.48-80.64,11.05-33.72,22.08-67.46,33.08-101.19,2.32-7.11,4.49-14.28,6.72-21.4-1.09-.47-1.55-.84-2.01-.85ZM4186.88,747.52c16.44,30.13,32.93,60.24,49.36,90.37,13.48,24.71,26.71,49.55,40.45,74.1,5.14,9.2,8.04,18.32,7.84,29.15-.6,33.13-.22,66.28-.21,99.42,0,7.84.16,7.99,8.16,7.99,15.65.02,31.29.02,46.94,0,7.83,0,7.98-.16,7.98-8.17.01-36.06-.03-72.12.07-108.19,0-2.83.22-6.03,1.5-8.44,11.28-21.21,22.79-42.3,34.29-63.4,22.35-40.98,44.74-81.94,67.07-122.93.84-1.53,1.18-3.33,2.04-5.83-2.78,0-4.63,0-6.48,0-17.71,0-35.43.41-53.12-.2-7.1-.25-10.59,2.18-13.66,8.33-18.38,36.84-37.15,73.49-55.81,110.2-2.37,4.66-4.81,9.27-7.47,14.38-.85-1.18-1.32-1.68-1.61-2.25-10.54-20.82-21.06-41.64-31.59-62.47-10.76-21.29-21.58-42.56-32.23-63.9-1.62-3.24-3.76-4.19-7.27-4.16-19.43.16-38.86.07-58.29.09-1.66,0-3.32.15-6.18.28,3.04,5.78,5.56,10.73,8.23,15.62ZM2183.2,845.5c0-35.2,0-70.39,0-105.59q0-8.31-8.52-8.31c-15.47,0-30.94,0-46.41,0-7.4,0-7.43,0-7.43,7.24,0,100.61,0,201.21,0,301.82,0,7.85.02,7.87,8.19,7.88,15.3.02,30.6.01,45.9,0,8.2,0,8.27-.07,8.27-8.36,0-49.96,0-99.92,0-149.88,0-14.94,0-29.87,0-44.81ZM2549.41,982.27c-4.26-.08-6.19,1.18-6.14,5.85.2,18.19.17,36.38.01,54.56-.04,4.17,1.4,5.91,5.6,5.89,18.55-.09,37.11-.09,55.66,0,4.2.02,5.68-1.71,5.65-5.89-.15-18.19-.18-36.38.01-54.56.05-4.67-1.92-5.93-6.17-5.86-9.1.17-18.21.05-27.32.05-9.11,0-18.21.12-27.32-.05Z"/>
  <path class="cls-1" d="M328.62,0v1507.51C117.65,1502.29,0,1415.12,0,1158.22V0h328.62ZM1073.85,1408.8l-423.65-478.79,423.65-478.58h-320.25l-424,478.6,424,478.77h320.25Z"/>
</svg>