<?xml version="1.0" encoding="UTF-8"?>
<svg xmlns="http://www.w3.org/2000/svg" version="1.1" viewBox="0 0 445.8 600.4">
  <!-- Generator: Adobe Illustrator 28.6.0, SVG Export Plug-In . SVG Version: 1.2.0 Build 709)  -->
  <g>
    <g id="Layer_1">
      <g id="Layer_1-2">
        <path d="M.6,237.8C-7.8,119.3,78.8,16.9,195.8,2c2-.2,5.9-.2,8.9-1,1.6-.4,2.9-.6,4.1-.6,10.4,0,22.9-1.1,33,.6,1.6.3,3.6.5,5.9.8,118.4,11.6,208.2,121.1,197.2,239-10,107.4-92.4,194.2-200.9,203.6C118.2,455.3,9.6,363.2.8,237.8h-.2ZM304.4,90.1c-6.8-25.7,13.2-47,38.3-45.9.3,0,.5-.2.5-.5h0c0-.6-.6-.7-.9-.9-27.5-18-57.6-29.3-90.2-34-.1,0-.3,0-.3.2h0c.7,10.8-.3,21.4-3.1,31.9-.2.7-.5.8-1.1.4-1.8-1.2-2.8-.5-3.9,1.1-3.2,4.8-6.7,9.6-10.3,14.3-.2.2-.5.3-.8,0h0c-4.6-3.8-7.3-8.6-8.2-14.5-.8-5.2.6-12.2,5.9-14.5,5.8-2.5,11.4-6.1,16.7-10.8.2-.2.2-.5,0-.7s-.4-.2-.6,0c-4.7,2.3-9.7,4.5-15,6.6-13.5,5.2-15,23.5-9.9,34.9,6.5,14.7,18.3,13,31.3,17.7,7.5,2.7,8.2,11,10.4,17.5,4,11.6,26,20.8,36.9,23,25.2,5.3,45-14.4,46.2-38.7.5-9.3-4.4-17-13.9-19-21.1-4.5-29,14.2-26.8,31.6,0,.2,0,.3-.2.3h-.3c-.3,0-.5,0-.5-.3h0l-.2.3h0ZM210.6,14.5c-8.6,6.1-16.4,15.1-18.8,25-10.2,41.8,55.2,30.9,49.5,70.5-1.8,12.3-9.4,22.5-11.9,34.3-1.5,7.1-1.5,14.2.2,21.3,6.7,28.1,37.5,41,62.8,46.1,29.2,5.9,65.4,13.1,62.9,52.5,0,.2.1.5.4.5s.5-.1.5-.4c8.6-34.3-21.5-47.6-47.9-54.6-22.7-6-58.5-12.2-65.6-39.8-6.2-24,14-45.3,5.7-69.7-5.9-17.5-24.7-25.2-39.7-34.2-12.9-7.7-15.3-20.6-8.8-33.7,4.5-9,11.3-14.6,19.8-20,.9-.6.9-1-.2-1.1-17.2-2.4-37.9-1-38.1,21.6,0,3.2-.3,9.3,1.2,12.1.5.8.7.7.7-.2.8-17.6,10.7-27.1,27-30.8.2,0,.4,0,.4.3s0,.3-.1.4h0q0,0,0-.1ZM131.2,182.4c-.6,4.6-2.5,8-5.9,10.2-9.7,6.3-21.6,5.7-32.2,1.2-12.3-5.2-20.8-14.5-25.6-27.9-10.2-28.4-1.8-63.3,30.8-71.8.2,0,.4-.3.3-.5,0-.2-.2-.3-.4-.3-11.5-.1-23.1,2.5-31.6,10.6-16.9,16-17.2,36.5-20.2,57.8-.8,5.6-2.9,13.4-9.6,14.5-2.9.5-5.2-.7-7-3.5-.4-.7-.3-.8.4-.4,2.1,1.2,4.4,1.7,6.9,1.4.8,0,1.5-.6,1.8-1.4,3.2-8.2,1.9-18,2-26.7,0-6.7.5-11.9,1.2-15.8,8.2-45.1,48.5-48.3,85.9-51.6,4.5-.4,8.8,0,13.2-.5,8.4-.8,16.5-.8,24.9-2.7,7.1-1.6,11.4-4.8,12.9-11.9.3-1.3-.4-2.3-1.1-3.4-.2-.3-.4-.4-.7-.5-8.6-.9-6.8,7.8-12.6,10.5-9.9,4.7-10.4-8.8-18-6.5-6,1.8-13.8,9.2-20.2,5.9-7.1-3.5-10.8-9-11.2-16.5-.3-6.1,2.7-10.5,8.4-12.2.4,0,.8,0,1.1.3l1.5,1.8c.4.5.3.7-.3.6-.7,0-1.3-.3-1.9-.6-.3,0-.5-.2-.8,0-4.7,2-4.1,5.5-3.9,9.8.3,7.4,6.1,9.1,12.4,7.7,6.7-1.5,9.1-9.3,15.6-10.5.3,0,.6,0,.9,0,5.9,2.8,13.5,7.6,14.8-3.2,1.7-13.3,2.4-22.5,10.7-33,.1,0,0-.4,0-.5h-.3C81,34.8,13.3,114,7.3,209c-.9,14.9-.4,26.8,1.5,44.1,0,1.2.4,2.5.9,4.1.2.5.4.5.6,0,1.2-3,2.1-4.8,2.6-5.5,4.5-6.7,15.5-7.6,21.8-3.5.8.5,1.8.3,2.3-.5,0,0,0-.2,0-.2,7-16.1,25.1-38.1,45.5-31.9,7.5,2.3,11.4,8.4,11.8,18.4,0,2.3-.3,2.4-1.2.3-1-2.3-1.3-5.4-2.9-7.6-11.2-15.2-30.2,1.6-22.8,15.8,8.2,15.7,38.7,17.2,53.4,14.4.3,0,.5-.4.4-.7,0-.2-.2-.4-.4-.4-7.9-3-11.5-8.8-10.9-17.6,1-14.6,20.8-20.5,27.1-5.5,0,.2,0,.3-.2.4h-.3c-3.6-4-14-8.1-14.9.9-.6,5.4,5.1,10.1,9.6,11.6,23.9,8.2,35.1-36.1,37.8-51.1,3.3-18.7,4-37.9.5-56.6,0-.3-.3-.5-.6-.4-.2,0-.4.2-.4.3-4.3,11.2-8.6,22.6-17.9,30.9-5.6,5-12.3-8.9-14.1-12.4-4.2-8.8-8.3-17.7-12.2-26.6-2.3-5.2-13.5-28.2-21.9-21.6-13.2,10.4-20.4,24-21.6,40.5-1.2,16.4,4.7,37.3,21.2,43.9,9.8,3.9,19,1.3,25.7-6.6,1-1.2,2-2.3,3-3.4.2-.2.3-.2.3.1h0v-.2q.1,0,0,0ZM361.6,69.9c2.4-13.7-11.1-20.5-22.7-18.5-.2,0-.4.2-.4.5s.2.3.3.4c10.3,2.4,17.8,8.3,22.4,17.8,0,0,.2,0,.2,0h0c0,0,.2-.2.2-.2ZM126.5,293.6c-18,13.4-44.8,37-31.9,61.3,5.7,10.8,20.3,17,30.4,23,16,9.4,27.2,26.5,41.3,39,1.8,1.6,4,2.4,6.8,2.6.5,0,.5-.1.2-.5-31.7-32.1-41.9-83.4-13.2-121,.1-.2,0-.4,0-.6-.1,0-.3-.1-.4,0-3.1,1.6-6.6,5.9-9.1,8.4-19.1,19-21.7,48.2-14.1,72.9,0,.2,0,.3-.2.4h-.3c-11.8-11.8-37.4-17-38.5-36.5-.4-8.1,4.7-17.3,10.1-23.2,29-31.5,74.2-52.9,109-82.5,29.4-25,5.7-41.2-7.9-63.2-12.5-20.3.9-34.2,13.3-49,9.9-11.8,11.6-26.7-1.9-36.5-11.1-8.1-29.9-11.4-34-25-.1-.3-.5-.5-.8-.4-.3,0-.4.4-.4.6,1.9,16.2,19.1,20.7,30.5,27.6,9.9,6,7.8,13.9,1.8,21.9-7.8,10.3-17.6,19.6-19.8,33.6-3.1,19.4,8.5,33.9,19.8,47.8,4.8,5.9,9.3,15.3,6.8,23-4.7,14.2-26.9,28.7-38.9,36.7-19.6,13-39.5,25.7-58.4,39.8h0l-.2-.2h0ZM356.5,97.7c-12.2-8.6,4.9-25.1,14.8-11.7,11.4,15.5-19,33.6-29.5,38.3-11.1,4.9-23.5,6.8-35.4,4.5-8.1-1.5-14.6-5.4-21.5-9-.4-.2-.6-.1-.4.3.9,3.4,11.8,8.4,16.1,10.3,17.5,7.7,46.5,18.8,49.2,41.1.2,2,.4,4,.4,6.2s.2.5.5.5.4-.2.5-.4c5.4-18.3-8.9-31.4-22.7-40.2-.2-.1-.3-.4-.2-.7,0-.1.2-.2.4-.2,20.9-.9,46.8-12,54.2-33.4,1.3-3.6,1-10.3-.4-13.8-3-8-8.8-12.1-17.3-12.2-6.6,0-12,2.3-14.9,8.3-3.3,6.9.2,12.2,6.9,14.5,1.6.5,2.8,0,4.2-.7.2,0,.3-.4.2-.6,0-.1-.2-.2-.4-.3l-4-.4c-.3,0-.6-.1-.9-.3h.2q0-.1,0-.1ZM138.8,84.6c13.2.3,25.9-.8,39,1.4,7.8,1.3,29.7,6.4,23.6,19.3-3.9,8.3-12.4,16-17,23.7-12.1,20.5-2.9,38,4.7,57.8,8,20.9-3.1,40.8-18.7,54.2-14.9,12.8-40.1,18.5-53.1-.2-.1-.2-.4-.3-.6-.1-.2.1-.3.3-.2.5,5.7,17,26.4,16.8,40.5,14.1,19.4-3.7,39.2-16.6,43.2-37.2,3-15.5-3.3-29.6-10.6-44.1-5.3-10.6-7.5-24.2-3.8-35.6,4.1-12.5,16.2-20.1,21.3-32.8,4-9.9-7.4-17.8-15.5-20.1-16.2-4.7-31.2-4.1-47.8-2.5-2.1.2-3.8.5-5.3.9-1.3.4-1.3.6,0,.6h.3q0,.1,0,.1ZM165.1,91.3c-8.8-1.4-14.3-.2-23.1,0-7.4.3-14.8,1.9-22.3,5.1-.3.1-.5.4-.6.7-1,4.3,2.2,9.9,4.6,13.4,8.8,12.4,17.5,24.2,24.6,37.8,0,.2.3.2.4.1,0,0,.1,0,.1-.1,8.3-15.8,13.6-33.5,17.8-50.8.5-2.1.7-4,.7-5.8s-.2-.6-.7-.5c-.7.2-.9.2-1.6,0h.1ZM365.4,142.1c13.2-7.1,32.2-23.8,31.1-40.8,0-.2-.2-.4-.4-.4s-.4.1-.4.3c-5.2,20.2-22.7,36.1-42.7,42.4-.3,0-.4.4-.4.7,0,0,0,.2.1.2,4.3,4.3,8.8,9.1,13.3,12.5,10.6,8.1,24.8,14.5,38.5,13.7,8.1-.5,16.4-4.6,19.7-12.3,0-.2,0-.4-.2-.4h-.3c-19.1,13.9-45.1.7-58.6-15.3-.1-.2-.1-.4,0-.6h.3ZM402.1,103.4c-1,11.6-5.1,18.9-12.2,27.9-14.1,18,6.2,25.2,19.9,19.9,7.4-2.9,9.7-10.9,4.9-17.3-2.5-3.4-6.2-5.2-11-5.6-.4,0-.6-.4-.6-.7s.2-.5.4-.6c4.8-1.6,10,.7,13.9,3.5.1.1.4,0,.5,0v-.3c-4.3-9.4-9.4-18.3-15.2-26.9,0-.2-.3-.2-.5-.1,0,0-.2.2-.2.3h.1q0-.1,0,0ZM78,172c-3-11.5-4.4-24.6-2-36.3,2.6-12.3,7.5-23,17.2-31.1.3-.2.3-.6,0-.8-.2-.2-.5-.3-.7-.2-26.9,13.6-24.5,45-15.4,68.6,0,.2.3.4.6.3.2,0,.4-.3.3-.6h0ZM307.6,142.8c-11.1-3.2-18.8-10.2-27.6-17.2-.9-.7-2.3-1.5-4-2.3-.3-.2-.5,0-.4.3,1.5,7.5,4,14.6,7.5,21.3.2.3.5.6.8.6,6.7,1.5,17.2-.9,24.1-1.9.2,0,.3-.2.3-.3h0c-.2-.3-.4-.5-.6-.6h-.1q0,.1,0,0ZM323.4,185.3c.6,1.6.8,3.4,1.6,4.8,4,7.1,12.9,4.8,14.3-2.9,2.9-16.2-6.1-41.3-27-36.3-12.7,3.1-24,10.2-34.1,11.8-2,.3-3.4-.2-4.3-2.2-5.1-10.8-8.5-22.8-12.2-34.2-.1-.4-.5-.6-.9-.5-.2,0-.3.2-.4.4-5,8.9-7.6,20.9-6.8,30.7,1.6,18,16.7,26.5,31.8,31.9,17.4,6.2,35.2,11.7,51.8,19.8,44.9,21.7,67.3,61.3,74.9,109.4,0,.2.2.3.5.3s.2-.1.3-.2c3.6-9.3,3.2-21,2.1-31.2-1.1-10-2.3-20-3.5-30-1.7-14.3-3.4-41.2,18.4-40.5,2.7,0,5.7,1.5,7.3,3.4,1.2,1.5,1.8,1.3,1.8-.7-.6-18.9-3.4-37.4-8.4-55.6,0-.3-.4-.4-.6-.4s-.3.2-.3.3c-8.3,22-38.4,17.2-53.8,7.8-2.8-1.7-5.5-3.3-8.4-5-.2,0-.4,0-.5.1v.3c3.7,13.9-7,33.9-21.9,35.9-9.6,1.3-24-5.1-23-16.9,0-.4.4-.7.8-.6.3,0,.5.2.6.4h-.1q0-.1,0,0ZM233.1,189.2c-2.1-2-4.8-4.6-7.6-6.6-.2-.1-.4,0-.5,0-.1.1,0,.3,0,.5,5.4,5.5,10,11.6,13.9,18.4,11.5,19.8-.8,33.5-15.4,45.1-9.5,7.6-20.2,14.8-28.9,22-35.5,29.6-47.6,75.5-29.7,118.7,8.6,20.6,24.9,39.6,46.3,47.3,12.5,4.5,37.7,7.4,37-12.6-.5-14.6-23.7-12.4-18.6,3.8,0,.3.3.4.6.3.2,0,.3-.3.3-.5,0-3,1-5.5,3.1-7.5,6.6-6.2,13.1,8.8,1.1,12.9-17.9,6-37.8-11.4-47.1-24.9-27.6-40.1-20.5-90.9,10.7-126.5,9.6-11,18.7-18.2,28.9-26.7,5.6-4.6,11-9.7,15.1-14.6,14.6-17.8,5.2-36-9.2-49.3h0v.2h0ZM372.7,256.1c0-.2.1-.4.4-.5.2,0,.3,0,.4.2,12,23,17.5,49.2,21,74.6,0,.1.1.2.3.2h.1c.2-.2.3-.3.3-.6,1.3-30.4-4.9-66.4-27.9-88.4-.4-.3-.9-.3-1.2,0-.2.2-.3.5-.2.8,1.6,7.6,2.6,14.3,2.7,22.3.5,21.2-8.4,44.9-26.9,56.6-13.9,8.9-33.1,9.6-46.7-.9-2.7-2.1-4.5-4.8-5.4-8.2,0-.2,0-.3.2-.4h.2c15.3,8.1,33.2,8.3,46.7-3.4,11.2-9.7,18.1-30.3,6.8-42.6-12.1-13.1-31.1-14.2-45.9-23-9.5-5.7-16.9-13.5-22.3-23.7,0-.2-.3-.2-.4-.1,0,0-.1,0-.2.2-.2.5-.2.9,0,1.4,4.7,12.1,12.3,21.4,23,28,15.5,9.6,50.3,11.6,44.5,38.7-4,18.5-20.8,29.6-39.3,25.4-6-1.3-11.7-3.4-17.3-6.2-.2,0-.4,0-.5.2v.2c0,18,12,30.7,29.4,32.9,20,2.5,37.2-4.9,49.8-20,11.8-14.2,15.5-31.2,11.3-50.9-1-4.6-1.9-8.8-2.6-12.8h-.3ZM432.7,235.9c6.5-3.9,6.5-13-1.4-14.5-10.5-2-8.8,13.1-7.8,18.7,1.7,9.6,3.3,19.3,4.7,29,.6,4.1.6,9.8,1.6,14.7.1.6.2.6.4,0,4.6-15.9,7.3-32.1,8.2-48.6,0-.4-.2-.5-.5-.3-1.2.6-3.9,2.4-5.2,1.8-.5-.2-.5-.5,0-.7h0q0-.1,0-.1ZM308,285.1c-5.7-4.8-13.6-8.8-18.4-.3-1.9,3.4-2.4,6.8-1.3,10,1.6,5,6.5,6.5,11.6,7.2,11.9,1.6,27.8-5.1,26-19.4-1.1-9.3-17.9-14.8-25.1-18.3-15.9-7.7-28.2-19.7-36.7-36-.3-.6-.7-.6-1.1-.2l-7.9,7.7c-.3.3-.4.6-.4,1,1,11.5-2.2,19.9-4.9,30.1-1,3.9-.8,7.7-1.2,11.7-1.2,12.7-.5,26-.5,38.8s.7,4.2.8,6.4c1.2,23.6,6.8,59,30,72.2.3.2.6.2,1,.2,7.9-.8,16.2-.5,23.5-1.5,4.3-.6,8.7-1.2,13-1.9.3,0,.5-.3.4-.6,0-.1,0-.2-.2-.3-3.2-2.9-8.2-10.2-7.3-14.9.8-3.9,2.8-8.5,5.9-11.1,8.2-6.8,21.9-4.2,26.6,5.8.4.8.2.9-.5.4-3.4-2.6-6.7-4-9.8-4.1-8.5-.3-10,9.9-4.5,14.5,13.9,11.4,34.6,7.1,44.2-8.1,9.9-15.6,12.2-32.1,7-49.6-.1-.4-.4-.5-.7-.2-1.7,1.3-3.2,3.6-4.3,4.7-2.4,2.4-4.9,4.8-7.3,7.2-12.1,11.7-28,18.5-44.9,17-25.9-2.2-49-23.7-46-51.7.9-7.9,4.4-16.6,10.5-21.8,8-6.7,18.3-4.4,22.5,4.7.3.6.2.7-.4.3h.4q0,.1,0,0ZM60.1,320.4c0,.3-.2.6-.5.6s-.5-.1-.6-.4c-6.3-20.9-8.8-41.9-1.4-63.5,0-.3.3-.3.5-.1,11.5,11,24.4,13.6,40.7,15,4.8.4,9.1.6,12.8.5,17.3-.5,34.9-4.2,51-10.7.2,0,.3-.3.2-.5,0-.1-.1-.2-.3-.2-.4,0-.9,0-1.4.1-17.2,5.1-34.8,7.2-52.7,6.5-15.8-.6-36.5-5.4-46.9-18.2-5.1-6.3-6.2-13.3-3.1-20.8,0-.2,0-.4-.2-.5-.2,0-.3,0-.4.1-28.5,43.4-21.2,91.8,11.9,130.4,11.8,13.7,25.5,20.2,40.9,28.5,8.6,4.6,15.8,11.7,22.5,18.5,5.1,5.2,9.7,9.1,15,13.3,3,2.4,12.5,8.2,16.4,6.8.4-.1.4-.3,0-.4-19.6-8-30.6-30.1-47.1-41.4-10.8-7.3-29.1-14.5-38.6-28.3-7.2-10.5-10.7-22-10.6-34.5,0-11.6,4.1-31.6,15.8-35.9,15.2-5.5,22,15,8.7,19.5-4.9,1.6-9.5-1.1-12.8-4.7,0-.1-.3-.1-.4,0,0,0,0,.2,0,.3,4.3,11.1,17.7,10.5,23.6,1.4,4-6.1,2.4-14.9-2.6-19.8-2.8-2.8-6.7-4.5-11.4-5.1-22.7-3.1-30.8,26.6-28.9,43.3h0v.2q0,0-.1,0ZM20,271.7c-3.2-.5-5.8-1.9-7.8-4.3-.2-.2-.4-.2-.6,0s-.2.3,0,.4c7.7,35.4,23.2,66.9,46.5,94.5,1,1.2,7.4,9.3,8.2,9.3s.4-.2.4-.5,0-.2,0-.3c-22-25.8-36.8-58.7-37.5-92.6,0-5.4-.7-19.1-6.7-21-3.8-1.2-7.6,1.6-7.5,5.6,0,3.5,2.9,6.2,5.6,8.1.2.1.2.4,0,.6,0,.1-.2.2-.4.2h0ZM235.7,375.8c4.3-12.8,5-25.7,2.1-38.7-2.8-12.7-9.8-23.5-11.8-36.6-2.1-14,5.2-26.2,6.3-39.6,0-.3-.2-.6-.5-.6s-.3,0-.4.2c-18.4,19.1-39.1,43-44.3,69.8-8,42.1,33.4,59.1,66.5,63.9.1,0,.2,0,.2-.2h0c-3.6-6.1-7.4-10.5-15.3-11.1-.4,0-.7-.2-.9-.4-1.9-1.8-2.8-3.8-1.9-6.6h0q0-.1,0,0ZM336.1,396.9c1.2.2,1.2.6.3,1.3-19,12.9-39.8,22.1-62.2,27.5-.4.1-.6,0-.6-.5,0-3.6,0-7.1-1-10.5-3.5-10.8-10.9-16.6-22.3-17.5-12.9-1-32.4,7.8-25.8,23.9.1.3.4.6.8.7s.5,0,.4-.4c-3.4-13.6,12.2-21.5,23.5-18.3,13.8,3.8,19.9,16.2,14.9,29.8-.1.3,0,.6.3.7h.3c30.7-4.7,61.1-19,85.6-37.5.2-.2.3-.4.1-.7,0-.1-.2-.2-.4-.2-13.1-.5-27.5-5.9-32.7-19-.6-1.4-.8-2.9-.7-4.5,0-.2,0-.3-.2-.4h-.2c-.2-.3-.4-.2-.5,0-4.9,12.4,10.1,24,20.5,25.6h-.1,0ZM125.5,600.4h-10.2c-24.7-2.2-43.1-24.1-42.4-48.3.6-24.4,19.9-43.7,44.3-46.2,41.1-4.2,68.9,43.4,42.4,76.3-8.7,10.9-19.9,16.6-34,18.2h-.1,0ZM81,561c1.2,19.2,13.5,34.2,33.5,34.7,25.2.5,43.7-19.5,46.9-43.5,3-21.7-12.6-41.7-35.2-41.5-25.9.3-46.8,25-45.3,50.3,0,0,0,0,0,0ZM291.1,547.8c-.1,0-.2.2-.2.4,0,0,.1.2.2.2,16.9,2.3,29.5,17.6,19.3,34.3-9.9,16.2-36.5,15.3-52.5,14.6-.3,0-.5-.3-.5-.6v-.2c1.1-1.9,1.7-3.6,1.7-5.9v-74.7c0-1.9-.9-3.2-1.3-5,0-.4,0-.5.4-.5,12.9,0,42.2-3.8,47.4,13.5.6,1.9.6,4.5.2,7.8-1.1,7.9-7.8,13.5-14.9,16.2h.2q0,0,0,0ZM268.5,546.2c10.4,2.3,24.1-1.3,27.9-12,2.1-5.8,1.4-10.6-2.1-14.3-6-6.4-17.5-6.3-25.7-4-.4,0-.5.3-.5.7v29c0,.3.1.5.5.6h-.1,0ZM268.3,588.3c1.6,2.2,4.9,4.1,7.5,4.4,13.6,1.3,26-4.2,28.3-18.8,2.3-14-5.6-19-17.4-22.2-4.9-1.3-9.4-.8-14.1-1.5-1.4-.2-2.7,0-4,.4-.4,0-.5.4-.5.8v36.1c0,.3,0,.6.3.9h-.1q0,0,0-.1ZM328.3,550.6v32.3c0,7.2,2.8,10.2,10,10.2h20.9c5.6,0,9.1-1.1,13.1-4.5.2-.2.5,0,.6,0,0,0,.1.3,0,.4l-2.5,7.8c0,.3-.3.5-.7.5h-51.4c-.5,0-.6-.2-.4-.7,1.5-3.5,2.2-6.1,2.2-7.8v-70.4c0-2.6-.7-4.8-1.5-7.2-.1-.4,0-.6.3-.8,1.5-.8,3.4,0,4.5,0,13,0,26,0,39,.2.4,0,.7.2.7.7v5.5c0,.3-.1.4-.4.3-8.8-2.7-23.9-4.7-33.5-1.2-.3,0-.5.4-.6.7-1.5,8.8-.6,19.8-.5,28.9,0,.4.2.5.6.5h22.6c2.1,0,3.1-.8,4.8-1.9.5-.3.7-.2.7.4v7c0,.6-.2.7-.7.4l-2.4-1.7c-.3-.2-.6-.3-1-.3h-24c-.3,0-.5.3-.5.6h.1q0,0,0,0ZM184.1,515c-.3,0-.5.3-.5.6v74.1c0,2.5-.1,4.3.8,6.8.1.3,0,.7-.4.8h-9.9c-.4,0-.5-.2-.4-.6l1.3-2.8c.2-.3.2-.7.2-1v-77.7c0-.3,0-.5-.2-.8l-1.2-3.3c-.2-.5,0-.7.5-.7,8.7-.2,17.4-.2,26.1,0,28.3.5,28.7,33.9,1.5,38.7-.3,0-.5.4-.5.7v.2l31.9,45.8c.3.4.2,1-.2,1.3-.2,0-.4.2-.6.2h-9.8c-.5,0-.9-.3-1-.8-.6-2.9-1.7-5.6-3.4-8.2-8-12.2-16.3-24.4-24.7-36.4-1-1.4-1.8-2.8-2.6-4.3-.2-.4,0-.6.3-.6,11.2-.6,25.4-6.4,21.7-20.6-3.1-12.3-19.4-13.6-29.3-11.5h.4q0,0,0,0ZM235.3,597.4c-.2,0-.4-.2-.4-.4v-.2l1.4-2.3c.2-.3.3-.6.3-.9v-77.4c0-1.9-.7-3.3-1.2-5.2,0-.4,0-.6.4-.6h9.8c.5,0,.6.2.5.7-.7,3-1.3,5.6-1.3,8.6-.1,24.1,0,48.2.1,72.3,0,1.9.8,3.1,1.6,4.7s0,.6-.4.6h-11,.2Z"/>
      </g>
    </g>
  </g>
</svg>