<?xml version="1.0" encoding="utf-8"?>
<!-- Generator: Adobe Illustrator 27.9.3, SVG Export Plug-In . SVG Version: 9.03 Build 53313)  -->
<svg version="1.1" id="Layer_1" xmlns="http://www.w3.org/2000/svg" xmlns:xlink="http://www.w3.org/1999/xlink" x="0px" y="0px"
	 viewBox="0 0 680.2 860" style="enable-background:new 0 0 680.2 860;" xml:space="preserve">
<path d="M452.3,674.8c16.9,0,34,0,51.2,0c0,2.8,0,4.8,0,6.5c-9.3-0.7-18.2-1.9-27.1-2C463,679,463,679.3,463,692.4
	c0,7.6,0,15.3,0,22.8c10.8,0,21.3,0,32.4,0c0,1.9,0,4.5,0,7.6c-10.6-4.6-21.2-2-32.4-1.5c0,10.1,0,19.9,0,29.6c0,3.7,0,7.3,0,11
	c0.1,4.9,4.2,9,9.1,9.1c6,0.1,12,0,18,0c4.2,0,8.4,0.4,12.5-0.3c3.8-0.6,7.5-2.4,11.1-3.6c-0.2,7.9-1.2,8.9-8.8,8.9
	c-18,0-35.9,0-53.2,0C454,742.2,452.8,708.7,452.3,674.8z M324.2,716.8c10.9-4.9,15.6-13.5,13.7-24.9c-1.5-9.1-9.4-15.9-20.4-16.7
	c-9.6-0.7-19.3-0.6-28.9-0.8c-1.9,0-3.8,0.5-5.2,0.8c0,33.9,0,67.1,0,100.6c3.5,0,7.1,0,11,0c0-1.9,0-3.6,0-5.2
	c-0.1-23.8-0.3-47.6-0.3-71.4c0-5.2,0.3-10.3,0.4-15.5c0-3,1.3-4.7,4.5-4.5c5,0.4,10,0.2,14.9,1.3c10.3,2.2,16,10.1,15,19.9
	c-0.8,7.4-7,13.3-16.7,15.7c-3,0.7-6,1.2-9.5,1.9c12.8,19.5,25.1,38.4,37.7,57.6c3.1,0,7.1,0,12.3,0c-12.9-18.7-25.2-36.5-37.9-54.9
	C318.4,719.1,321.4,718.1,324.2,716.8z M354.6,775.7c3.5,0,7.4,0,11.2,0c0-33.9,0-67.4,0-101.2c-3.7,0-7,0-11.2,0
	C354.6,708.5,354.6,741.9,354.6,775.7z M454.7,572.4c-92.2,44.6-201.4,32.2-279.9-32.6c-51.1-42.2-82.4-96.4-91.9-162.2
	C62.1,234,155.7,117.9,275.2,87.8c12.9-3.2,26.2-4.7,39.3-6.9c1.5-0.3,2.9-0.5,4.4-0.8c7.7,0,15.3,0,23,0c8,0.5,15.9,0.8,23.9,1.4
	c32.7,2.5,63.3,11.8,92.3,27c75.6,39.7,121.3,101.7,137,185.5C615.9,405.4,556.2,523.4,454.7,572.4z M548,204
	c-1,8.3-4.4,15.6-9.3,22.3c-2.6,3.6-5.5,7.1-7.8,11c-4.8,8-1.4,16.8,7.6,18.6c5,1,10.3,1.2,15.3,0.6c7-0.9,11.7-6.2,12.1-12.1
	c0.4-6.4-3.6-12-10.2-14.4c-1.6-0.6-3.2-1.1-4.8-1.6c0.2-0.7,0.4-1.4,0.6-2.1c4.8,1.2,9.7,2.4,15.7,3.9c-5.9-10.4-11.5-20.1-17-29.8
	c-0.4,0.1-0.9,0.2-1.3,0.2C548.7,201.8,548.2,202.9,548,204z M541,199.4c-9,23.5-26,38.8-49.8,47.7c8.3,9.9,17.6,17.5,28.5,23.1
	c10.5,5.4,21.4,9.2,33.5,7.9c8.7-1,15.6-4.8,20.9-13.2c-28.2,12.5-48.8-0.2-68.8-18.5c3.1-2.4,5.5-4.2,7.9-5.9
	c11-8.1,20.5-17.6,26.4-30.1c1.5-3.2,1.8-7.1,2.7-10.6C541.8,199.6,541.4,199.5,541,199.4z M487.2,184.4
	c-0.3,6.8,6.3,12.3,12.5,10.4c-1.3-0.6-2.5-1.1-3.6-1.8c-5.8-3.5-7.1-8.6-3.7-13.9c3.1-4.8,11.5-6.6,16-3.5c7.3,5.2,9.5,13.5,4.4,21
	c-3.5,5.2-7.8,10-12.7,13.9c-25.2,19.9-52.5,26.6-82.7,11.3c-1.7-0.8-3.4-1.5-5.1-2.2c1.2,2.2,2.9,3.5,4.7,4.5
	c7.1,3.7,14.3,7.1,21.4,10.8c10.3,5.5,20.8,10.6,30.5,16.9c10.8,7,17.6,17.1,18.9,30.3c0.1,0.9,0.4,1.7,0.7,2.6
	c1.2-4.2,1.7-8.5,1.1-12.6c-2.3-15.3-14.6-23.1-25.7-32.4c1.2-0.7,1.5-1.1,2-1.2c0.6-0.2,1.3-0.2,2-0.3c15.6-1.7,29.7-7.2,42.2-16.6
	c7.9-5.9,13.8-13.6,16.2-23.4c2.2-9.3,0.2-17.6-7.1-24.1c-6.9-6.1-14.8-6.1-23-3C490.2,173.4,487.5,178.3,487.2,184.4z M402,223.4
	c-0.5,0.2-0.9,0.5-1.4,0.7c2.8,7.2,5.3,14.5,8.5,21.6c0.8,1.8,3.8,3.9,5.7,3.8c7.5-0.4,15-1.5,22.3-2.4
	C425.1,239.1,413.6,231.3,402,223.4z M340.1,113.5c-9.1,12.9-7.7,42.4,16.1,48.7c3.1,0.8,6,2,9.1,2.5c11,1.6,17.2,7.6,20,18.6
	c1.2,5,4.7,10.1,8.5,13.6c8.7,8.1,19.3,13.6,30.9,16.8c31.6,8.6,60.6-15.3,58.3-48c-0.6-9-5.2-14.9-13.7-17.6
	c-15.9-5.1-29.2,2.8-32.2,19.4c-0.9,4.9-1,9.8-1.6,16c-7.3-25.6,10.8-52.8,44.1-52.7c-14-15.1-84.2-42-105.3-40.4
	c-0.1,1.6-0.2,3.2-0.3,4.9c-1,9.3-1.9,18.5-3.1,27.8c-0.2,1.4-1,3.1-2.1,4.1c-2.3,2.2-5.4,3.7-7.4,6c-3.4,4-6.3,8.5-9.5,13
	c-1.1-1-2-1.7-2.8-2.5c-11.6-11.6-9.6-26.6,4.4-34.4c4.7-2.6,9-5.9,13.5-8.8c-0.2-0.4-0.4-0.7-0.7-1.1c-6.4,2.6-12.9,5-19.2,8
	C344.3,108.6,341.8,111,340.1,113.5z M292.9,130.6c2.1-18.4,11.5-30.1,30.1-33.9c-4.1,4.6-8.5,8.9-12.2,13.7
	c-12.9,17.1-12.2,40.3,9.9,51.6c8.4,4.3,16.7,9,24.6,14.2c15.2,10,19.3,22,13.6,39.2c-3,9.1-7.5,17.8-10.3,27
	c-6.2,20.4-2.4,38.9,12.3,54.6c7.3,7.8,15.7,14.3,25.6,17.9c13.9,5,28.1,9.3,42.4,12.9c13.8,3.6,28.1,5.7,40.6,13.2
	c13.3,8,21.6,19.5,24,35c0.2,1.5,0.2,3,0.3,4.5c0.1,1.5,0.2,2.9,0.4,5.3c0.8-1.3,1.3-1.7,1.3-2.1c1.4-14.8-0.1-28.9-12.8-39
	c-5.8-4.6-11.8-9.7-18.7-12.2c-15.6-5.7-31.7-10.1-47.6-14.6c-13.7-3.9-27-8.5-38.2-17.7c-14.3-11.7-20-26.6-15.9-44.9
	c2.5-11.2,5.7-22.3,7.9-33.5c3.9-20-1.6-36.6-19.2-48.2c-4.9-3.2-9.7-6.4-14.6-9.5c-5.7-3.7-11.6-7.1-17.3-11
	c-8.6-5.9-11.4-14.5-9.9-24.5c2-13.6,9.6-23.5,20.6-31.2c1.9-1.3,3.7-2.8,5.6-4.2c-14-2.7-27.6-4.4-38.2,6.8
	C288.9,108.9,291.6,119.9,292.9,130.6z M303.9,227.4c2.9-3.9,5.9-7.6,8.7-11.6c2.7-3.8,5.3-7.6,7.6-11.7c3.1-5.4,2.7-11.1-1.8-15.2
	c-4.5-4-9.7-7.8-15.3-9.7c-18.7-6.4-37.9-4.6-57.2-2c2.2,0.2,4.5,0.6,6.7,0.7c9.7,0.4,19.3,0.6,29,1.2c9.4,0.6,18.6,2,26.6,7.5
	c8.3,5.7,9.5,10.4,4,18.9c-4.5,7-9.7,13.5-14.6,20.3c-10,13.8-12.2,28.9-6.8,45c2.9,8.8,6.4,17.5,9.4,26.3c3.3,10,4.5,21,1.1,30.5
	c-8.2,22.4-23.5,38.7-47.3,45c-13.2,3.5-25.5,1-35.3-9.5c-0.4-0.5-1.1-0.7-2.2-1.3c3.4,8.2,9.4,13.3,18.7,15.1
	c17.7,3.6,34.4,0,50.2-8.4c25.4-13.6,34.6-36.9,24.9-64.1c-3.5-9.9-8.4-19.2-11.8-29.1C292.6,258.6,292.8,242.3,303.9,227.4z
	 M269.5,185.1c-13.1,0.9-26.3,1.2-39.2,3.1c-14.2,2-15.3,5.2-7.6,17.4c9.5,15.1,19.4,29.9,29.1,44.8c0.4,0.6,0.7,1.2,1,1.8
	c0.8-0.9,1.3-1.2,1.5-1.6c9-19.4,15.6-39.6,20-60.5C275.1,186.2,273,184.8,269.5,185.1z M91,378.1c7.1-14.1,18-14.2,30.4-9.2
	c3.6-5.8,6.7-11.7,10.7-17c8.6-11.5,19-20.7,34.1-22.3c13.6-1.5,24.5,9.3,22.9,24.1c-1.2-3.1-1.9-5-2.7-6.8
	c-2.4-5.6-6.2-9.6-12.6-9.8c-6.7-0.2-11.8,2.6-14.9,8.9c-4.2,8.7-2.8,16.2,4.8,22.2c10.3,8.2,22.5,11.3,35.4,11.8
	c6.8,0.3,13.7-0.2,20.5-0.3c0.1-0.6,0.2-1.2,0.3-1.7c-1.4-1.1-2.7-2.4-4.1-3.3c-7.2-4.8-8.8-12-7.5-19.8c1.3-7.2,6.6-11.3,13.2-13.8
	c6.7-2.5,13.6,1,16.4,8.2c-1.3-0.7-2.3-1.3-3.3-1.7c-3.8-1.5-7.8-2.9-11,1c-2.8,3.4-1.6,8.7,2.3,12.5c8.3,7.9,21.7,7.3,29.6-2.7
	c5.5-6.9,10.3-14.9,13.4-23.2c9.3-25,12.2-51.1,10.9-77.6c-0.3-5.5-1.4-10.9-2.1-16.3c-0.5,0-1,0-1.5,0c-1.8,3.9-3.3,8-5.4,11.7
	c-3.9,6.9-7.7,14-12.6,20.2c-4.1,5.3-7.1,5.4-11.2,0c-4.6-6-8.3-12.8-11.7-19.6c-5.7-11.4-10.5-23.4-16.6-34.6
	c-2.7-5.1-7.4-9.2-11.7-13.3c-3-3-6.2-2.3-9.5,0.7c-16,14.7-24.6,32.5-23.3,54.5c0.8,13,3.6,25.5,13.3,35.2
	c12.4,12.4,28.9,12.3,41.2-0.1c0.9-0.9,2-1.8,3.8-3.4c-0.5,1.9-0.5,2.6-0.8,3.2c-4.3,10.1-13.3,12.6-22.8,13.3
	c-20.1,1.5-40.1-11.7-48.8-31.6c-5.5-12.7-7.4-26-5.9-39.6c2.5-22.8,13.7-39.2,35.6-47.6c0.8-0.3,1.4-0.9,2.9-2
	c-11.6,0.3-21.9,1.6-30.4,8.2c-10.9,8.5-19.2,19.2-22.2,32.9c-2.5,11.4-3.9,23-6.1,34.4c-1.1,5.5-2.2,11.2-4.7,16.1
	c-3.1,6.3-9.2,6.7-13.6,1.8c9.3,0.4,10.2-0.3,11.1-10.3c0.2-2.3,0.2-4.7,0.3-7c0.3-9.2,0.2-18.3,1.1-27.5c2.5-26.4,15-46,40.5-55.6
	c9-3.4,18.5-5.8,28-7c19.2-2.3,38.5-3.3,57.7-5.3c8.1-0.8,16.1-2.3,24-4.1c5.3-1.2,8.6-5.2,9.3-10.6c0.3-1.7-0.3-4.7-1.4-5.2
	c-1.5-0.7-4.3-0.2-5.7,0.9c-2,1.5-3.5,3.9-5,6.1c-3.7,5.8-8.9,6.8-14.4,2.6c-1.6-1.2-3-2.6-4.4-4c-2.4-2.4-4.9-2.9-8-1.1
	c-3.2,1.8-6.5,3.4-9.8,4.9c-7.3,3.3-12.4,2.5-18.2-3.1l0-9.4c1.5,1.9,3.7,3,6.6,3.3c6.9,0.8,11.3-3.1,15.7-7.3
	c4.2-4,8.5-5.6,14.3-2.6c7,3.7,10.6,1.7,11.8-6.2c2-13.3,4-26.6,11.8-38.1c0-0.1-0.1-0.3-0.4-1c-71,18.7-125.1,59.5-161.4,123.4
	C90.6,267.4,83,321.2,91,378.1z M187.6,200.7c-10.9,4.4-19.1,13.8-22.7,25.3c-3.3,10.4-3.4,21-1.4,31.6c1.3,7.2,3.3,14.3,5,21.4
	c0.4-0.1,0.8-0.2,1.2-0.2C164.2,250.1,165.1,223,187.6,200.7z M150.9,504.4c-0.2-0.4-0.4-0.9-0.7-1.3c-22.7-29.5-35.3-62.6-36.7-100
	c-0.2-6.4-1.9-12.8-3.7-19c-1.5-5.1-5.3-6.4-9.3-4.4c-3.8,1.9-4.6,5.9-2.1,10.3c1,1.8,2.3,3.4,3.5,5.1c-0.2,0.3-0.5,0.6-0.7,0.8
	c-2.5-1.4-5-2.7-8.2-4.5C102.5,434.9,121.5,472.4,150.9,504.4z M269.7,576.4c-4-3.8-8.4-6.7-12.3-10.2c-6-5.5-11.9-11.2-17.5-17.1
	c-12-12.6-25.2-23.7-40.5-32.2c-5.1-2.8-9.7-6.4-14.5-9.7c-30.7-21.2-29-63.7-18-85.2c3-5.8,7.9-8.9,13.9-10.5
	c4.8-1.3,10.7,1.3,13.4,5.6c2.7,4.5,2.2,10.4-1.4,14.4c-3.4,3.9-8.6,4.8-13.7,2.4c-1.9-0.9-3.6-2.1-5.4-3.1c0.2,2,1.1,3.6,2.3,4.6
	c5,4.1,12.3,4.7,17.8,1.6c5.7-3.3,9.7-10.7,8.6-16.8c-1.4-8.1-5.6-14.3-13.8-16.7c-9.5-2.7-18.7-2.4-25.7,5.8
	c-7.9,9.3-11.9,20.3-13,32.4c-0.3,3.1-0.4,6.2-0.6,9.3c-8.7-23.6-9.9-47.3-2.8-71.6c5.4,3.3,9.8,6.6,14.7,8.9
	c5.1,2.4,10.5,4.5,15.9,5.6c21.2,4.5,42.4,3.5,63.5-0.8c8.6-1.8,16.9-4.7,25.4-7c-0.1-0.4-0.2-0.8-0.3-1.2c-1,0.1-2,0.1-2.9,0.4
	c-20.3,5.4-41,6.9-61.9,5.6c-13.4-0.8-26.4-4-38-11.1c-12-7.3-19.7-17-16.3-32.4c-13.7,20.3-21.5,42.5-20,66.8
	c2.9,47,24,83.8,65.3,107.2c17.9,10.1,34.1,21.7,48.7,36.1c6.2,6.1,13.8,10.9,21,15.9C263.9,575,267,575.4,269.7,576.4z M279.9,569
	c-35-44.6-46.5-90.7-15.1-141.3c-5.5,2.6-13.7,11.2-19.5,20.6c-13.8,22.6-12.6,46.8-7.5,72c-11.3-7.4-22-14.3-32.7-21.4
	c-1.8-1.2-3.7-2.6-4.7-4.4c-2.5-4.1-5.1-8.2-6.5-12.7c-2.8-9.6,1.5-17.6,7.2-24.9c10.8-13.7,23.8-25.2,38-35.3
	c20.9-14.8,42.3-29.1,63.2-43.9c10.1-7.1,19.7-14.7,29.4-22.4c3.6-2.9,6.8-6.4,9.8-10c7.8-9.5,9.8-20.2,3.4-31
	c-6.3-10.6-13.8-20.4-20.2-30.9c-3-5-5.6-10.7-6.7-16.4c-2-9.8,1.2-18.7,7.5-26.5c5.8-7.3,11.9-14.5,16.9-22.3
	c9.2-14.3,5.5-29.4-9.1-38.1c-6.3-3.8-12.9-7-19.3-10.6c-7-3.9-14-7.9-17.1-16.1c-0.7,0.4-1.4,0.8-2.1,1.2c2.1,3.9,3.4,8.8,6.6,11.6
	c5.4,4.8,11.9,8.4,18,12.4c4.7,3.1,9.9,5.6,14.4,9c5.7,4.4,6.8,9.1,3.3,15.4c-3.3,5.9-7.5,11.4-11.4,16.9c-2.9,4.1-6.4,7.8-9,12
	c-8.7,14.1-10.4,29.1-3.1,44.3c3.3,6.8,7.8,13.1,12,19.5c3.7,5.7,8.1,11,11.6,16.8c6.4,10.6,5.9,20.9-2.5,30.4c-3,3.4-5.8,7-9.4,9.6
	c-17.3,12.7-34.9,25-52.4,37.5c-19.2,13.8-38.7,27.2-57.4,41.6c-10.7,8.2-20,18.2-25.8,30.7c-7.1,15.3-3.6,30.8,9.6,41.1
	c4.4,3.5,9.3,6.5,14.2,9.3c14.4,8.1,27.1,18,38.3,30.2c6.1,6.6,12.2,13.2,18.7,19.5C273.1,565.1,276.7,566.8,279.9,569z M369,571.7
	c0-5-2.3-8.2-6.5-10.3c-4.3-2.1-8.5-1.3-12.2,1.6c-3.8,3-4,7.1-2.9,12.6c1.1-2.4,1.8-3.9,2.5-5.3c1.6-3,3.5-6,7.6-4.4
	c3.6,1.4,5.4,6.1,3,9.7c-1.7,2.6-4.5,5.3-7.3,6.1c-4,1.1-8.6,1.2-12.8,0.7c-13.9-1.9-25-9.3-33.8-19.7
	c-30.5-35.7-35.8-75.9-19-119.1c9.4-24.1,25.8-43.3,45.6-59.8c9.9-8.3,19.4-17.3,28.6-26.4c6-5.9,8.8-13.4,8.9-22.1
	c0.1-19.2-14-29.2-25.5-40.8c1.1,2.6,2.9,4.8,4.4,7.1c3.3,4.8,6.8,9.5,9.5,14.6c7.6,14.2,5.8,27-5.6,38.2
	c-6.5,6.4-13.7,12.1-20.8,18c-11.7,9.7-24.3,18.3-35,28.9c-46.6,46.3-47.3,119.4-2.1,164.9c15.1,15.2,33.1,23.9,54.8,23.7
	C361.7,589.9,369,582.5,369,571.7z M343.9,416.2c0.8-6.4,2.4-12.7,3.7-19.1c0.8-4.1,1.6-8.3,2.5-12.4c-0.7-0.3-1.3-0.6-2-0.9
	c-7.8,9.2-15.9,18.3-23.5,27.8c-10.3,12.8-18.9,26.6-24,42.3c-9.8,30.3-0.5,54.2,27.1,69.7c13.2,7.4,27.7,11.3,42.4,14.3
	c1.4,0.3,2.8,0.2,5,0.3c-3.9-6.3-8.4-10.3-14.8-12.2c-5.7-1.7-6.6-3.4-5.5-9.2c1-5.1,2.4-10,3.1-15.1c2.7-17.9-1.4-34.7-8.5-51
	C344.5,439.8,342.4,428.2,343.9,416.2z M487,541.1c-17.5-3.5-33.5-8-39.2-27.7c-1.8,7.9,0.6,14.6,6.4,19.3
	c5.3,4.4,11.7,7.4,17.8,11.1c-21.9,14.8-46,25.5-72.7,31.9c-0.2-2.3-0.3-4.1-0.4-5.8c-0.9-9.3-4.9-16.9-12.7-22.2
	c-10.9-7.4-22.4-6.4-33.8-1.6c-6.4,2.7-10.6,8.1-12,15.1c-0.5,2.4,0.2,5,0.3,7.5c2.3-12.3,12.8-21.4,24.5-20.4
	c7.3,0.6,13.4,3.9,18.3,9.3c7,7.8,7.8,16.8,3.8,27.6C425.1,578.4,457.6,563.4,487,541.1z M520.1,456.9c-2.1,2.8-3.4,5.1-5.2,6.7
	c-7.5,6.5-14.6,13.9-23,19.1c-20.4,12.6-41.8,12.8-62.6,0.9c-19.3-11-30-27.4-28.3-50.5c0.8-11.1,4.4-20.9,13.3-28
	c8.2-6.6,18.1-4.5,24.2,5.4c-2.8-1.4-4.9-2.6-7.1-3.5c-7.2-2.7-12.1-0.5-14.9,6.4c-2.8,6.8-0.3,13.4,6.2,16.2
	c9.7,4.3,23.6,2,31.3-5.3c8.6-8.1,7.9-19.4-2.1-25.6c-7-4.4-14.6-8-22-11.7c-15.6-7.7-28.1-18.9-37.5-33.5c-1.7-2.7-3.3-5.4-5.9-9.6
	c-3.7,5-8.1,8.6-9.3,13.1c-2.6,10.2-4.3,20.8-5.2,31.4c-1.5,16.7-2.8,33.5-2.8,50.3c0,21.7,2.1,43.2,8.8,64.1
	c4.2,13.3,9.9,25.9,21.6,34.5c2.9,2.1,7,3.7,10.5,3.5c11.6-0.4,23.2-1.7,34.8-2.7c1.1-0.1,2.1-0.6,2-0.6c-2-6.6-5.4-12.8-5.4-19
	c0-7,4.5-12.8,11.7-15.4c9.4-3.3,21.6,1.3,23.6,8.5c-3-0.9-6.2-2.6-9.3-2.5c-2.9,0.1-7.3,1.3-8.4,3.4c-1.3,2.5-1,7.3,0.6,9.6
	c2.6,3.5,6.6,6.7,10.7,8.4c13.5,5.5,29.1,1.3,38.6-9.8c9.2-10.8,14-23.3,14.5-37.5C524,474.9,524.2,466.6,520.1,456.9z M506.8,361.5
	c0.3,1.9,0.5,3.5,0.7,5.1c2.7,18.3,3.4,36.6-3.8,54.1c-7.9,19.3-19.8,34.7-41.5,39.8c-14.6,3.5-28.2,1.5-39.7-8.7
	c-2.2-1.9-3.5-4.9-5.3-7.3c5.9,0.8,10.6,2.5,15.5,3.7c18.5,4.8,33.6-1,45.2-15.6c15.4-19.3,10.7-41.3-11-52.7
	c-5.7-3-11.8-5.5-17.9-7.6c-19.7-6.8-37.2-16.4-47.6-35.6c-0.1-0.1-0.3-0.1-1.4-0.3c1.5,3.4,2.7,6.4,4.2,9.2
	c8.5,15.8,22.2,25.1,38.8,31.1c8.4,3.1,16.6,6.9,24.5,10.9c6.3,3.2,10,8.6,10.9,15.8c1,7.8-0.2,15.3-4.1,22.2
	c-9,16-27.6,22.9-46.7,17.1c-5.2-1.6-10.2-3.7-15.9-5.8c0.2,2.2,0.2,3.8,0.4,5.4c2.4,18.2,13.2,28.9,30.6,32.4
	c25.8,5.1,50.2-5.2,66.1-29.2c12.1-18.4,11.6-38.3,7.4-58.7c-0.5-2.6-1.1-5.1-1.7-7.7c14.9,25.6,19.5,54.3,25.6,82.6
	C544.6,427.2,525.7,370.6,506.8,361.5z M590.5,354.1c-1.5,0.2-3,0.5-5.3,0.9c1.2-1.7,1.9-2.8,2.7-3.8c2.9-3.5,2.2-7,0.2-10.6
	c-2-3.6-5.3-3.6-8.7-3.3c-4.2,0.4-5.3,3.7-5.8,7.1c-0.5,3.1-0.6,6.3-0.2,9.4c1.4,10.9,3.2,21.7,4.7,32.5c1,7.2,1.8,14.4,2.8,22
	C585.2,400.9,591.7,363.3,590.5,354.1z M592.1,335.3c-1.5-22.6-4.7-44.2-10-66.5c-1.2,1.8-1.9,2.5-2.2,3.3
	c-4.4,9.8-12.7,13.7-22.6,14.9c-13.5,1.7-26.2-0.5-38-7.5c-3.3-2-6.8-3.7-10.6-5.9c-0.2,4.3-0.2,7.8-0.6,11.2
	c-1.9,19-15.8,31-34.2,29.7c-7.7-0.6-15.5-6.5-17.9-13.9c-0.5-1.5-0.5-3.2-0.7-4.8c1.5,0.5,1.9,1.2,2.2,1.9
	c2.4,5.6,6.2,8.6,10.2,7.9c4.8-0.9,8.3-5.7,8.2-11.6c-0.1-4.8-0.3-9.7-1-14.4c-3-19.3-18.4-28.8-36.6-22.6
	c-9.9,3.4-19.6,7.4-29.5,10.8c-6.6,2.2-8.2,1.5-10.7-4.9c-3.6-9-6.7-18.1-10-27.2c-1.1-3-2.3-6-4-10.2c-1.4,2.8-2.2,4.4-3,6
	c-4.4,9.4-5.5,19.4-5.2,29.7c0.3,10.9,4.6,19.9,13.8,25.7c6.7,4.3,13.8,8.1,21.1,11.1c15.6,6.3,31.4,11.8,47.1,17.8
	c35.9,13.6,63.9,36.2,82.1,70.6c9.9,18.8,15.2,39,19.9,59.4c0.2,1,0.6,1.9,0.9,2.8c0.5,0,1-0.1,1.5-0.1c0.5-5.9,1.7-11.9,1.4-17.7
	c-1.1-17.1-3.2-34.1-4.1-51.2c-0.6-10.2-1-20.7,0.6-30.8c2.3-15.1,15.4-21,29-14.2C589.6,334.9,590.3,334.9,592.1,335.3z
	 M275.8,736.9c-5.5,22.9-21.4,36.5-44.2,42c-1.3,0.3-2.5,0.7-3.7,1.1c-5,0-10,0-15,0c-1.6-0.4-3.1-1-4.7-1.3
	c-22.3-5.2-39.5-23.6-43.2-46c-3.5-21.9,7.1-43.4,27.5-55.7c19.2-11.5,44.4-10.3,62.6,3.4C274,694.7,281.3,714.2,275.8,736.9z
	 M254.6,685.4c-13.2-12.8-29.4-12.7-45.3-7.1c-21.8,7.6-37.8,35-35.2,57.9c2.1,18.6,15.8,38.8,40.9,38.4c5.5-1.1,11.4-1.3,16.4-3.4
	c17.1-7,28.8-19.7,34-37.4C270.8,715.9,268.7,698.9,254.6,685.4z M226,128.5c0-0.4,0-0.8,0-1.2c-1.8,0.1-3.9-0.4-5.3,0.4l0,2.7
	C221.9,129.5,223.7,128.9,226,128.5z M440.6,760.2c-4.7,6.4-10.7,11.4-18.6,12.6c-13.4,1.9-27,2.9-40.7,4.2c0-35,0-68.5,0-102.7
	c7.4,0,15-0.3,22.6,0.1c5.9,0.3,12,0.9,17.7,2.6c8.4,2.6,14.8,7.8,15.3,17.6c0.6,10-5.2,16.4-13,21.5c-1.1,0.7-2.2,1.2-3.6,1.9
	c4.6,2.1,8.8,3.8,12.6,6C446.5,731.6,449.8,747.5,440.6,760.2z M392.1,698C392.1,698,392.1,698,392.1,698c0,4.7-0.3,9.3,0.2,13.9
	c0.2,1.8,2.3,4.6,3.7,4.7c10.3,1,19.5-1.5,26.3-9.9c7.8-9.5,3.6-23.3-8.3-25.9c-5.9-1.3-12.2-0.8-18.3-0.6c-1.3,0.1-3.4,2.6-3.6,4.2
	C391.8,689,392.1,693.5,392.1,698z M434.6,741c-1-9.7-7.8-15-16.6-17.1c-7-1.7-14.4-2-21.6-2.9c-3.1-0.4-4.2,1.3-4.2,4.1
	c0,6.3,0,12.6,0,19c-0.1,0-0.2,0-0.3,0c0,5,0,10,0,15c0,6.4,4.1,11.2,10.6,11.7c7.6,0.5,15-0.9,21.3-5.4
	C432.3,759.4,435.6,750.9,434.6,741z"/>
</svg>
