<?xml version="1.0" encoding="UTF-8"?>
<svg xmlns="http://www.w3.org/2000/svg" version="1.1" viewBox="0 0 1192.3 409.2">
  <!-- Generator: Adobe Illustrator 28.6.0, SVG Export Plug-In . SVG Version: 1.2.0 Build 709)  -->
  <g>
    <g id="Layer_1">
      <path id="QS4Mg4" d="M77.3,7.2c18.2,0,36.4,0,54.6,0,4,0,17.5-2.6,20.8.4,8.2,7.4-4.8,8.2-8.8,8.3-9,.3-18.1,0-27.2,0s-15.5-1.9-18,1.2c-3.4,4.1,10.1,32.3,11.7,37.1,19.7,60.1,42.2,119.2,62.7,179.1,4.9,14.4,10.1,28.6,15.4,42.8,2,5.5,10.2,40.5,17.2,35.6,3.9-2.7,5.6-18.1,6.9-22.7,2.3-7.8,4.5-15.6,7-23.4,5.7-17.5,11.3-34.9,17-52.4,10.7-32.7,19.8-65.9,31-98.4,5.6-16.2,9.6-32.9,14.9-49.2,2.6-8.1,5-16.4,7.7-24.5,1.5-4.5,9.8-19.5,7.2-23.6-3.4-5.4-33.2-1.8-39-1.7-3.6,0-15.3,2.3-17.8-1.2-4.2-6.1,1.4-6.4,5-7.6,7.4-2.4,19.4,0,27.4,0,9.1,0,18.2,0,27.4,0,9.1,0,18.2,0,27.4,0,3.2,0,19.6-2.7,22,1,8.3,12.4-28.8,6.7-33.4,7.9-12.4,3.2-13.8,26-17.3,36.4-10.7,31.5-19.8,63.5-30.1,95.2-21.1,64.8-41.4,129.8-62,194.7-4.5,14.3-8.1,28.8-13.2,42.9-2.3,6.5-7.1,33.5-19,20.5-4-4.5-5.8-15.5-7.8-21.4-3-8.3-5.8-16.8-8.5-25.2-6.1-18.6-13.2-36.9-19.5-55.4-25-73.8-51.5-147.1-77.6-220.5-6.7-18.9-12-38.9-20.5-57.1-5.4-11.5-11.5-10.1-23.6-10.2-4.5,0-16.9,3-17.4-3.9-.6-6.9,9.1-4.8,13.1-4.8,21.4,0,42.8,0,64.2,0h0ZM759.1,13.7c34.5-8.1,71.8.1,99.5,22,12.8,10.2,23.2,22.5,30.9,37,3,5.7,11.3,39.4,18.9,33.8,2.5-1.8.3-22.5.3-25.5,0-8.8,0-17.6,0-26.5s0-17.6,0-26.5c0-3.9,2.4-17.7-.2-20-9.7-8.6-18.7,23.2-25.3,25.3-5.5,1.8-14.8-7.2-18.9-9.8-6.7-4.3-13.6-8.4-20.8-11.8-28.7-13.4-56.7-14.9-87-7.3-32.8,8.2-59.7,21.9-83.4,46.6-86.9,91-78.7,274.6,39,338.2,14.5,7.8,30.4,13.3,46.6,16.1,16.5,2.8,28.8,3.2,45.3.5,15.7-2.6,29.6-6.3,44.1-13.3,6.9-3.3,13.6-7.2,20.1-11.3,3.3-2,9.4-8.2,14-7.4,6.1,1.1,19.5,37.6,26.5,24.8,2.9-5.3,0-20.1,0-26.2v-58.3c0-4,2.4-18.2-2.2-20.5-6-3-18.2,32-20.2,36-27.7,54.3-93,86.8-150.8,56.9-66.4-34.4-54-121.7-54-184.4-1.2-67.6-6.3-168.9,77.4-188.4h0ZM995.6,385c0,10.1-1.1,11.1-11.2,11.2-8.5,0-17,0-25.5,0-1.9,0-4,.2-3.8,2.8.1,2.2,2,2.3,3.7,2.4,1.3,0,2.7,0,4,0,72.3,0,144.6,0,216.9.2,2.7,0,4.2-.8,4.4-3.4.3-7.2,2.9-14.2,2.9-21.2.2-22,5.2-43.6,5.1-65.6,0-1.7.5-3.7-1.8-4-1.9-.3-3.1,1.4-3.4,3-1.6,8.2-5,16-7.3,24-3.6,12.2-9.1,23.2-15.4,34-6,10.4-13.8,19.4-25.1,22.9-10.2,3.1-21.2,4.2-32,4.6-21.1.7-42.3.1-63.5.3-4.4,0-6.6-1.6-6.7-6,0-2.2-.2-4.3-.2-6.5,0-41.2,0-82.3,0-123.5s0-12.5,12.8-13.1c12.1-.5,24.1.3,35.3,4.5,16.3,6.2,23,19.9,24.6,36.5.5,5.5.1,11,.2,16.5,0,1.7-.5,4.1,2.2,4.2,3.1.2,2.6-2.4,2.6-4.3,0-38.8,0-77.6,0-116.5,0-1.9.5-4.6-2.4-4.6s-2.3,2.7-2.4,4.6c-.4,9.7.6,19.4-3.6,28.9-4.7,10.6-11.9,18.4-22.7,21-12.3,3.1-25.1,4.8-38,4.3-6.4-.2-8.6-2.5-8.6-8.5,0-42.6,0-85.3,0-128,0-5.7,2.4-7.9,8.2-7.8,15.3.3,30.7-.4,46,.2,14.8.6,29.4,2,43.4,8.5,18.3,8.5,26.7,24.2,33.4,41.5,2.7,6.9,4.2,14.1,6.4,21.2.6,1.8.7,4.6,3.4,4.2,3.1-.4,2.2-3.3,2.1-5.3,0-10.1-3.1-20-3.1-30.1.1-14.1-.6-28.2-3.1-42.2-.6-3.6-1.8-4.8-5.4-4.8-69.3,0-138.6,0-207.9,0-2.5,0-5.5-.4-5.3,3.4.1,3.6,2.9,3.5,5.5,3.4,8,0,16,0,24,0,9.9,0,11.1,1.2,11.1,11.3v137.5c0,46,0,92,0,138h0ZM505.2,169.9c-51-10.1-102.2,12.3-126.9,58.6-23.4,44-17.6,99.8,13.8,138.3,30.8,37.8,88.6,53.1,132.7,31.3,40.9-20.2,72.1-61.8,68.5-109.2,2.9-53.6-34.2-108.4-88.2-119h0ZM533.3,367.6c-9.7,21.8-34.4,30.2-56.7,29.2-20.3-.9-39.4-7.2-50.3-25.4-12.5-20.8-8.9-55.5-8.9-78.9,0-25.8-3.1-55.8,4.9-80.7,6.6-20.4,27.5-31.5,47.8-34.2,22-2.9,49.9,5.5,61.3,25.8,13.4,23.9,8.8,56,9.2,82.2,0,26.3,3.6,57.1-7.4,81.9h0ZM1041.8,54.2c10.4-3.9,24.6-11,35.5-11.9,10.8-.9,27.2,7.8,37.7,11.4,8.6,2.9,27.3,14,36,9-12.9-9-25.9-18-38.6-27.2-6.2-4.5-12.4-9-18.6-13.5-3.8-2.8-11-10.4-15.9-10-4.6.4-12.8,8.6-16.7,11.4-7,5-14,10-21,15-11.6,8.3-23.1,16.6-34.6,25,11.1,1.4,25.9-5.3,36.2-9.2h0Z"/>
    </g>
  </g>
</svg>